<svg width="24" height="24" viewBox="0 0 24 24" fill="none" xmlns="http://www.w3.org/2000/svg">
<path fill-rule="evenodd" clip-rule="evenodd" d="M13 2C13 1.44772 12.5523 1 12 1C11.4477 1 11 1.44772 11 2V5H5.5H2.5C1.94772 5 1.5 5.44772 1.5 6C1.5 6.55228 1.94772 7 2.5 7H4.35125C2.91579 9.56149 0.587055 13.9443 0.0936775 16.25C0.0329241 16.5339 0 16.7863 0 17C0 17.2549 0.0209824 17.5054 0.0614627 17.75C0.459512 20.1556 2.74283 22 5.5 22C8.25717 22 10.5405 20.1556 10.9385 17.75C10.979 17.5054 11 17.2549 11 17C11 16.7863 10.9671 16.5339 10.9063 16.25C10.4129 13.9443 8.08421 9.56149 6.64875 7H11H12H13H17.3512C15.9158 9.56149 13.5871 13.9443 13.0937 16.25C13.0329 16.5339 13 16.7863 13 17C13 17.2549 13.021 17.5054 13.0615 17.75C13.4595 20.1556 15.7428 22 18.5 22C21.2572 22 23.5405 20.1556 23.9385 17.75C23.979 17.5054 24 17.2549 24 17C24 16.7863 23.9671 16.5339 23.9063 16.25C23.4129 13.9443 21.0842 9.56149 19.6488 7H21C21.5523 7 22 6.55228 22 6C22 5.44772 21.5523 5 21 5H18.5H13V2ZM9.32339 16.1106C9.33748 16.159 9.35054 16.2055 9.36263 16.25H1.63737C1.64946 16.2055 1.66252 16.159 1.67661 16.1106C1.80692 15.6627 2.00077 15.1287 2.24675 14.5303C2.73843 13.3341 3.40347 11.9643 4.08195 10.6543C4.57582 9.70078 5.07055 8.79088 5.5 8.01939C5.92945 8.79088 6.42418 9.70078 6.91805 10.6543C7.59653 11.9643 8.26157 13.3341 8.75325 14.5303C8.99923 15.1287 9.19308 15.6627 9.32339 16.1106ZM5.5 20.5C7.51663 20.5 9.02101 19.246 9.40447 17.75H1.59553C1.97899 19.246 3.48337 20.5 5.5 20.5ZM17.082 10.6543C17.5758 9.70078 18.0706 8.79088 18.5 8.01939C18.9294 8.79088 19.4242 9.70078 19.918 10.6543C20.5965 11.9643 21.2616 13.3341 21.7533 14.5303C21.9992 15.1287 22.1931 15.6627 22.3234 16.1106C22.3375 16.159 22.3505 16.2055 22.3626 16.25H14.6374C14.6495 16.2055 14.6625 16.159 14.6766 16.1106C14.8069 15.6627 15.0008 15.1287 15.2467 14.5303C15.7384 13.3341 16.4035 11.9643 17.082 10.6543ZM18.5 20.5C16.4834 20.5 14.979 19.246 14.5955 17.75H22.4045C22.021 19.246 20.5166 20.5 18.5 20.5Z" fill="#AAADBB"/>
</svg>
