<svg width="22" height="22" viewBox="0 0 22 22" fill="none" xmlns="http://www.w3.org/2000/svg">
<path fill-rule="evenodd" clip-rule="evenodd" d="M6.69167 2.24915C6.50709 2.09041 6.27107 2.0042 6.02763 2.0066C6.02434 2.00663 6.02104 2.00664 6.01775 2.00664H3.00846C2.86932 2.00683 2.73173 2.03596 2.60445 2.09218C2.47704 2.14846 2.36275 2.23065 2.26884 2.33352C2.17494 2.43639 2.10349 2.55769 2.05903 2.68969C2.01527 2.8196 1.99861 2.95707 2.01005 3.09362C2.32381 6.03478 3.32527 8.86088 4.9335 11.3434C4.93433 11.3447 4.93516 11.346 4.93598 11.3473C4.93674 11.3484 4.93749 11.3496 4.93824 11.3508C6.39961 13.6506 8.34942 15.6004 10.6492 17.0618C10.6518 17.0634 10.6544 17.0651 10.657 17.0668C13.1279 18.6691 15.9398 19.6703 18.8673 19.99C19.0039 20.0013 19.1415 19.9845 19.2714 19.9406C19.4037 19.8958 19.5253 19.8239 19.6282 19.7295C19.7312 19.635 19.8132 19.5201 19.8692 19.3921C19.9252 19.2641 19.9538 19.1258 19.9532 18.9861L19.9532 18.982V15.9722C19.9532 15.9639 19.9533 15.9556 19.9535 15.9473C19.9596 15.7013 19.8751 15.4616 19.716 15.2739C19.5577 15.0871 19.3366 14.9646 19.0943 14.9295C18.058 14.7924 17.0404 14.5387 16.0609 14.1732L16.0587 14.1724C15.8791 14.1049 15.684 14.0903 15.4964 14.1303C15.3096 14.1701 15.138 14.2625 15.0019 14.3964C15.0013 14.397 15.0008 14.3976 15.0002 14.3981L13.73 15.6683C13.4107 15.9877 12.9173 16.0543 12.5247 15.831C9.85597 14.3136 7.6463 12.1039 6.12882 9.43518C5.90558 9.04257 5.97218 8.5492 6.29154 8.22984L7.56333 6.95806C7.69734 6.82192 7.78971 6.65034 7.82957 6.46349C7.86957 6.27589 7.85497 6.08076 7.78748 5.90121L7.78663 5.89895C7.42116 4.91956 7.16747 3.90202 7.03037 2.8657C6.99559 2.62609 6.87531 2.40708 6.69167 2.24915ZM6.01332 9.72994e-05C6.74174 -0.00575723 7.44763 0.252766 8.00002 0.727819C8.55378 1.20405 8.91548 1.8654 9.0177 2.58859C9.01813 2.59166 9.01855 2.59474 9.01896 2.59782C9.13606 3.48567 9.35319 4.35743 9.6662 5.19649C9.86826 5.73477 9.91191 6.31968 9.79198 6.88201C9.67196 7.4448 9.39311 7.96138 8.9885 8.37055C8.98718 8.37188 8.98586 8.37321 8.98454 8.37453L8.2651 9.09397C9.4448 10.9447 11.0152 12.5151 12.8659 13.6948L13.5853 12.9753C13.5867 12.974 13.588 12.9727 13.5893 12.9714C13.9985 12.5668 14.5151 12.2879 15.0779 12.1679C15.6403 12.0479 16.2253 12.0916 16.7637 12.2938C17.6026 12.6067 18.4743 12.8238 19.3621 12.9409C19.365 12.9413 19.368 12.9417 19.371 12.9421C20.102 13.0453 20.7697 13.4135 21.2469 13.9767C21.7212 14.5365 21.9746 15.2502 21.9598 15.9834V18.9804C21.9611 19.3987 21.8753 19.8127 21.7077 20.196C21.5398 20.58 21.2935 20.9247 20.9847 21.208C20.6759 21.4914 20.3112 21.7071 19.9142 21.8414C19.5172 21.9756 19.0965 22.0255 18.6791 21.9878C18.6759 21.9875 18.6727 21.9872 18.6695 21.9869C18.6666 21.9866 18.6638 21.9863 18.661 21.986C15.4193 21.6337 12.3053 20.5264 9.56911 18.7528C7.02366 17.1345 4.86531 14.9761 3.24705 12.4307C1.46722 9.68197 0.359556 6.55281 0.013753 3.29645C0.0131994 3.29124 0.0126867 3.28602 0.0122149 3.2808C-0.0253921 2.86464 0.024066 2.44522 0.157439 2.04922C0.290813 1.65322 0.50518 1.28934 0.786892 0.980729C1.0686 0.67212 1.41149 0.42555 1.79371 0.256718C2.17594 0.087886 2.58913 0.000491265 3.00699 9.77131e-05L6.01332 9.72994e-05Z" fill="white"/>
</svg>
