<svg width="24" height="24" viewBox="0 0 24 24" fill="none" xmlns="http://www.w3.org/2000/svg">
<path fill-rule="evenodd" clip-rule="evenodd" d="M7.69167 3.24915C7.50709 3.09041 7.27107 3.0042 7.02763 3.0066C7.02434 3.00663 7.02104 3.00664 7.01775 3.00664H4.00846C3.86932 3.00683 3.73173 3.03596 3.60445 3.09218C3.47704 3.14846 3.36275 3.23065 3.26884 3.33352C3.17494 3.43639 3.10349 3.55769 3.05903 3.68969C3.01527 3.8196 2.99861 3.95707 3.01005 4.09362C3.32381 7.03478 4.32527 9.86088 5.9335 12.3434C5.93433 12.3447 5.93516 12.346 5.93598 12.3473C5.93674 12.3484 5.93749 12.3496 5.93824 12.3508C7.39961 14.6506 9.34942 16.6004 11.6492 18.0618C11.6518 18.0634 11.6544 18.0651 11.657 18.0668C14.1279 19.6691 16.9398 20.6703 19.8673 20.99C20.0039 21.0013 20.1415 20.9845 20.2714 20.9406C20.4037 20.8958 20.5253 20.8239 20.6282 20.7295C20.7312 20.635 20.8132 20.5201 20.8692 20.3921C20.9252 20.2641 20.9538 20.1258 20.9532 19.9861L20.9532 19.982V16.9722C20.9532 16.9639 20.9533 16.9556 20.9535 16.9473C20.9596 16.7013 20.8751 16.4616 20.716 16.2739C20.5577 16.0871 20.3366 15.9646 20.0943 15.9295C19.058 15.7924 18.0404 15.5387 17.0609 15.1732L17.0587 15.1724C16.8791 15.1049 16.684 15.0903 16.4964 15.1303C16.3096 15.1701 16.138 15.2625 16.0019 15.3964C16.0013 15.397 16.0008 15.3976 16.0002 15.3981L14.73 16.6683C14.4107 16.9877 13.9173 17.0543 13.5247 16.831C10.856 15.3136 8.6463 13.1039 7.12882 10.4352C6.90558 10.0426 6.97218 9.5492 7.29154 9.22984L8.56333 7.95806C8.69734 7.82192 8.78971 7.65034 8.82957 7.46349C8.86957 7.27589 8.85497 7.08076 8.78748 6.90121L8.78663 6.89895C8.42116 5.91956 8.16747 4.90202 8.03037 3.8657C7.99559 3.62609 7.87531 3.40708 7.69167 3.24915ZM7.01332 1.0001C7.74174 0.994243 8.44763 1.25277 9.00002 1.72782C9.55378 2.20405 9.91548 2.8654 10.0177 3.58859C10.0181 3.59166 10.0186 3.59474 10.019 3.59782C10.1361 4.48567 10.3532 5.35743 10.6662 6.19649C10.8683 6.73477 10.9119 7.31968 10.792 7.88201C10.672 8.4448 10.3931 8.96138 9.9885 9.37055C9.98718 9.37188 9.98586 9.37321 9.98454 9.37453L9.2651 10.094C10.4448 11.9447 12.0152 13.5151 13.8659 14.6948L14.5853 13.9753C14.5867 13.974 14.588 13.9727 14.5893 13.9714C14.9985 13.5668 15.5151 13.2879 16.0779 13.1679C16.6403 13.0479 17.2253 13.0916 17.7637 13.2938C18.6026 13.6067 19.4743 13.8238 20.3621 13.9409C20.365 13.9413 20.368 13.9417 20.371 13.9421C21.102 14.0453 21.7697 14.4135 22.2469 14.9767C22.7212 15.5365 22.9746 16.2502 22.9598 16.9834V19.9804C22.9611 20.3987 22.8753 20.8127 22.7077 21.196C22.5398 21.58 22.2935 21.9247 21.9847 22.208C21.6759 22.4914 21.3112 22.7071 20.9142 22.8414C20.5172 22.9756 20.0965 23.0255 19.6791 22.9878C19.6759 22.9875 19.6727 22.9872 19.6695 22.9869C19.6666 22.9866 19.6638 22.9863 19.661 22.986C16.4193 22.6337 13.3053 21.5264 10.5691 19.7528C8.02366 18.1345 5.86531 15.9761 4.24705 13.4307C2.46722 10.682 1.35956 7.55281 1.01375 4.29645C1.0132 4.29124 1.01269 4.28602 1.01221 4.2808C0.974608 3.86464 1.02407 3.44522 1.15744 3.04922C1.29081 2.65322 1.50518 2.28934 1.78689 1.98073C2.0686 1.67212 2.41149 1.42555 2.79371 1.25672C3.17594 1.08789 3.58913 1.00049 4.00699 1.0001L7.01332 1.0001Z" fill="#5C6A7F"/>
</svg>
