<svg width="81" height="80" viewBox="0 0 81 80" fill="none" xmlns="http://www.w3.org/2000/svg">
<g opacity="0.8">
<path d="M65.5 52.5L64.25 43.75C66.9022 43.75 69.4457 44.8036 71.3211 46.6789C73.1964 48.5543 74.25 51.0978 74.25 53.75V63.75H58V51.25L65.5 52.5Z" fill="url(#paint0_linear)"/>
<path d="M50.5 52.5L58 51.25V63.75H41.75V53.75C41.75 51.0978 42.8036 48.5543 44.6789 46.6789C46.5543 44.8036 49.0978 43.75 51.75 43.75L50.5 52.5Z" fill="url(#paint1_linear)"/>
<path d="M76.75 63.75V68.75H4.25V63.75H41.75H58H74.25H76.75Z" fill="url(#paint2_linear)"/>
<path d="M36.75 35V52.5C36.748 53.1624 36.484 53.7972 36.0156 54.2656C35.5472 54.734 34.9124 54.998 34.25 55H24.25V45H16.75V55H6.75C6.08757 54.998 5.45283 54.734 4.98442 54.2656C4.51601 53.7972 4.25198 53.1624 4.25 52.5V35C4.25198 34.3376 4.51601 33.7028 4.98442 33.2344C5.45283 32.766 6.08757 32.502 6.75 32.5H34.25C34.9124 32.502 35.5472 32.766 36.0156 33.2344C36.484 33.7028 36.748 34.3376 36.75 35Z" fill="url(#paint3_linear)"/>
<path d="M66.75 23.75C67.4115 23.7549 68.0446 24.0199 68.5123 24.4877C68.9801 24.9554 69.2451 25.5885 69.25 26.25C69.248 26.9124 68.984 27.5472 68.5156 28.0156C68.0472 28.484 67.4124 28.748 66.75 28.75H49.25C48.5885 28.7451 47.9554 28.4801 47.4877 28.0123C47.0199 27.5446 46.7549 26.9115 46.75 26.25C46.752 25.5876 47.016 24.9528 47.4844 24.4844C47.9528 24.016 48.5876 23.752 49.25 23.75H66.75Z" fill="url(#paint4_linear)"/>
<path d="M66.75 23.75L60.5 23.7497V16.3622C62.0384 16.6075 63.4577 17.339 64.55 18.4497C65.2498 19.1432 65.8046 19.9689 66.1823 20.8788C66.56 21.7887 66.753 22.7648 66.75 23.75Z" fill="url(#paint5_linear)"/>
<path d="M60.5 16.3622V23.7497L55.5 23.75V15C55.5 14.6685 55.6317 14.3505 55.8661 14.1161C56.1005 13.8817 56.4185 13.75 56.75 13.75H59.25C59.5815 13.75 59.8995 13.8817 60.1339 14.1161C60.3683 14.3505 60.5 14.6685 60.5 15V16.3622Z" fill="url(#paint6_linear)"/>
<path d="M55.5 16.3622L55.5 23.75H49.25C49.2493 21.9782 49.8769 20.2633 51.0213 18.9107C52.1656 17.5581 53.7526 16.6551 55.5 16.3622Z" fill="url(#paint7_linear)"/>
</g>
<path d="M66.7502 33.75V30C67.6403 30.0032 68.5023 29.6887 69.1813 29.1131C69.8603 28.5375 70.3116 27.7385 70.4541 26.8599C70.5966 25.9813 70.421 25.0806 69.9588 24.3199C69.4966 23.5592 68.7782 22.9883 67.9327 22.71C67.7107 20.7631 66.8309 18.9503 65.4389 17.5712C64.417 16.5379 63.1469 15.7842 61.7502 15.3825V15C61.7502 14.337 61.4868 13.7011 61.0179 13.2322C60.5491 12.7634 59.9132 12.5 59.2502 12.5H56.7502C56.0871 12.5 55.4512 12.7634 54.9824 13.2322C54.5136 13.7011 54.2502 14.337 54.2502 15V15.375C52.6135 15.8549 51.1544 16.8062 50.0551 18.1102C48.9558 19.4143 48.265 21.0132 48.0689 22.7075C47.2232 22.9858 46.5046 23.5567 46.0422 24.3176C45.5798 25.0784 45.404 25.9792 45.5463 26.858C45.6887 27.7369 46.1399 28.5361 46.8188 29.1121C47.4977 29.688 48.3599 30.0028 49.2502 30V33.75C49.2502 36.0706 50.172 38.2962 51.813 39.9372C53.4539 41.5781 55.6795 42.5 58.0002 42.5C60.3208 42.5 62.5464 41.5781 64.1874 39.9372C65.8283 38.2962 66.7502 36.0706 66.7502 33.75ZM63.6702 19.3375C64.541 20.1982 65.1347 21.2995 65.3752 22.5H61.7502V18.0375C62.4678 18.3433 63.1198 18.7847 63.6702 19.3375ZM56.7502 15H59.2502V22.5H56.7502V15ZM54.2502 18.04V22.5H50.6252C50.8237 21.5189 51.2573 20.6006 51.8887 19.8238C52.52 19.047 53.3304 18.4349 54.2502 18.04ZM48.0002 26.25C48.0002 25.9185 48.1319 25.6005 48.3663 25.3661C48.6007 25.1317 48.9187 25 49.2502 25H66.7502C67.0817 25 67.3996 25.1317 67.6341 25.3661C67.8685 25.6005 68.0002 25.9185 68.0002 26.25C68.0002 26.5815 67.8685 26.8995 67.6341 27.1339C67.3996 27.3683 67.0817 27.5 66.7502 27.5H49.2502C48.9187 27.5 48.6007 27.3683 48.3663 27.1339C48.1319 26.8995 48.0002 26.5815 48.0002 26.25ZM58.0002 40C56.3432 39.998 54.7546 39.3389 53.5829 38.1672C52.4113 36.9956 51.7522 35.407 51.7502 33.75V30H64.2502V33.75C64.2482 35.407 63.5891 36.9956 62.4174 38.1672C61.2457 39.3389 59.6572 39.998 58.0002 40Z" fill="#28347C"/>
<path d="M76.75 62.5H75.5V53.75C75.4967 50.7673 74.3104 47.9078 72.2013 45.7987C70.0922 43.6896 67.2327 42.5033 64.25 42.5H51.75C48.7673 42.5033 45.9078 43.6896 43.7987 45.7987C41.6896 47.9078 40.5033 50.7673 40.5 53.75V62.5H30.5V60C30.5 59.6685 30.3683 59.3505 30.1339 59.1161C29.8995 58.8817 29.5815 58.75 29.25 58.75H25.5V56.25H34.25C35.2446 56.25 36.1984 55.8549 36.9016 55.1516C37.6049 54.4484 38 53.4946 38 52.5V35C38 34.0054 37.6049 33.0516 36.9016 32.3483C36.1984 31.6451 35.2446 31.25 34.25 31.25H6.75C5.75544 31.25 4.80161 31.6451 4.09835 32.3483C3.39509 33.0516 3 34.0054 3 35V52.5C3 53.4946 3.39509 54.4484 4.09835 55.1516C4.80161 55.8549 5.75544 56.25 6.75 56.25H15.5V58.75H11.75C11.4185 58.75 11.1005 58.8817 10.8661 59.1161C10.6317 59.3505 10.5 59.6685 10.5 60V62.5H4.25C3.91848 62.5 3.60054 62.6317 3.36612 62.8661C3.1317 63.1005 3 63.4185 3 63.75V68.75C3 69.0815 3.1317 69.3995 3.36612 69.6339C3.60054 69.8683 3.91848 70 4.25 70H6.75V76.25C6.75 76.5815 6.8817 76.8995 7.11612 77.1339C7.35054 77.3683 7.66848 77.5 8 77.5H73C73.3315 77.5 73.6495 77.3683 73.8839 77.1339C74.1183 76.8995 74.25 76.5815 74.25 76.25V70H76.75C77.0815 70 77.3995 69.8683 77.6339 69.6339C77.8683 69.3995 78 69.0815 78 68.75V63.75C78 63.4185 77.8683 63.1005 77.6339 62.8661C77.3995 62.6317 77.0815 62.5 76.75 62.5ZM73 53.75V62.5H69.25V53.75H66.75V62.5H59.25V52.725L65.295 53.7325C65.4888 53.7647 65.6875 53.7508 65.875 53.6919C66.0624 53.633 66.2333 53.5307 66.3738 53.3933C66.5144 53.256 66.6205 53.0875 66.6837 52.9014C66.7469 52.7153 66.7653 52.517 66.7375 52.3225L65.71 45.1325C67.7463 45.4784 69.5948 46.5329 70.9288 48.1099C72.2628 49.6868 72.9964 51.6845 73 53.75ZM64.02 50.9863L60.3562 50.375L63.41 46.7088L64.02 50.9863ZM61.58 45L58 49.2962L54.42 45H61.58ZM52.59 46.71L55.6438 50.375L51.98 50.985L52.59 46.71ZM43 53.75C43.0038 51.6846 43.7375 49.687 45.0715 48.1101C46.4054 46.5332 48.2538 45.4786 50.29 45.1325L49.2625 52.3225C49.2347 52.517 49.2531 52.7153 49.3163 52.9014C49.3795 53.0875 49.4856 53.256 49.6262 53.3933C49.7667 53.5307 49.9376 53.633 50.125 53.6919C50.3125 53.7508 50.5112 53.7647 50.705 53.7325L56.75 52.725V62.5H49.25V53.75H46.75V62.5H43V53.75ZM6.75 53.75C6.41848 53.75 6.10054 53.6183 5.86612 53.3839C5.6317 53.1495 5.5 52.8315 5.5 52.5V35C5.5 34.6685 5.6317 34.3505 5.86612 34.1161C6.10054 33.8817 6.41848 33.75 6.75 33.75H34.25C34.5815 33.75 34.8995 33.8817 35.1339 34.1161C35.3683 34.3505 35.5 34.6685 35.5 35V52.5C35.5 52.8315 35.3683 53.1495 35.1339 53.3839C34.8995 53.6183 34.5815 53.75 34.25 53.75H25.5V45C25.5 44.6685 25.3683 44.3505 25.1339 44.1161C24.8995 43.8817 24.5815 43.75 24.25 43.75H16.75C16.4185 43.75 16.1005 43.8817 15.8661 44.1161C15.6317 44.3505 15.5 44.6685 15.5 45V53.75H6.75ZM18 46.25H23V58.75H18V46.25ZM13 61.25H28V62.5H13V61.25ZM71.75 75H9.25V70H71.75V75ZM75.5 67.5H5.5V65H75.5V67.5Z" fill="#28347C"/>
<defs>
<linearGradient id="paint0_linear" x1="40.5" y1="13.75" x2="40.5" y2="68.75" gradientUnits="userSpaceOnUse">
<stop stop-color="#F9B335"/>
<stop offset="1" stop-color="#F69914"/>
</linearGradient>
<linearGradient id="paint1_linear" x1="40.5" y1="13.75" x2="40.5" y2="68.75" gradientUnits="userSpaceOnUse">
<stop stop-color="#F9B335"/>
<stop offset="1" stop-color="#F69914"/>
</linearGradient>
<linearGradient id="paint2_linear" x1="40.5" y1="13.75" x2="40.5" y2="68.75" gradientUnits="userSpaceOnUse">
<stop stop-color="#F9B335"/>
<stop offset="1" stop-color="#F69914"/>
</linearGradient>
<linearGradient id="paint3_linear" x1="40.5" y1="13.75" x2="40.5" y2="68.75" gradientUnits="userSpaceOnUse">
<stop stop-color="#F9B335"/>
<stop offset="1" stop-color="#F69914"/>
</linearGradient>
<linearGradient id="paint4_linear" x1="40.5" y1="13.75" x2="40.5" y2="68.75" gradientUnits="userSpaceOnUse">
<stop stop-color="#F9B335"/>
<stop offset="1" stop-color="#F69914"/>
</linearGradient>
<linearGradient id="paint5_linear" x1="40.5" y1="13.75" x2="40.5" y2="68.75" gradientUnits="userSpaceOnUse">
<stop stop-color="#F9B335"/>
<stop offset="1" stop-color="#F69914"/>
</linearGradient>
<linearGradient id="paint6_linear" x1="40.5" y1="13.75" x2="40.5" y2="68.75" gradientUnits="userSpaceOnUse">
<stop stop-color="#F9B335"/>
<stop offset="1" stop-color="#F69914"/>
</linearGradient>
<linearGradient id="paint7_linear" x1="40.5" y1="13.75" x2="40.5" y2="68.75" gradientUnits="userSpaceOnUse">
<stop stop-color="#F9B335"/>
<stop offset="1" stop-color="#F69914"/>
</linearGradient>
</defs>
</svg>
