<svg width="81" height="80" viewBox="0 0 81 80" fill="none" xmlns="http://www.w3.org/2000/svg">
<g opacity="0.8">
<path d="M57.048 61.0955C55.9478 61.5518 55.0988 63.6 53.8332 63.6C52.5676 63.6 51.7186 61.5518 50.6184 61.0955C49.927 60.9177 49.2063 60.8813 48.4999 60.9893V73.3331L53.8332 69.3331L59.1665 73.3331V60.9893C58.4602 60.8813 57.7395 60.9177 57.048 61.0955Z" fill="url(#paint0_linear)"/>
<path d="M56.5003 13.333L61.8336 17.333V1.33301H51.1669V17.333L56.5003 13.333Z" fill="url(#paint1_linear)"/>
<path d="M57.0482 45.5708C55.9479 45.1144 55.099 43.0662 53.8333 43.0662C52.5677 43.0662 51.7187 45.1144 50.6185 45.5708C49.4772 46.0441 47.4336 45.2133 46.5736 46.0734C45.7135 46.9334 46.5443 48.977 46.071 50.1183C45.6146 51.2186 43.5664 52.0675 43.5664 53.3331C43.5664 54.5988 45.6146 55.4477 46.071 56.548C46.5443 57.6893 45.7135 59.7329 46.5736 60.5929C47.1348 60.9822 47.8301 61.1268 48.5 60.9933C49.2064 60.8852 49.9271 60.9217 50.6185 61.1001C51.7187 61.5558 52.5677 63.604 53.8333 63.604C55.099 63.604 55.9479 61.5558 57.0482 61.1001C57.7396 60.9204 58.4602 60.8826 59.1665 60.9893C59.8365 61.1228 60.5319 60.9783 61.0931 60.589C61.9518 59.729 61.1224 57.6854 61.5957 56.5441C62.0521 55.4477 64.1003 54.5988 64.1003 53.3331C64.1003 52.0675 62.0521 51.2186 61.5957 50.1183C61.1224 48.977 61.9531 46.9334 61.0931 46.0734C60.2331 45.2133 58.1895 46.0441 57.0482 45.5708ZM53.8333 57.3331C51.6243 57.3331 49.8333 55.5421 49.8333 53.3331C49.8333 51.1242 51.6243 49.3331 53.8333 49.3331C56.0423 49.3331 57.8333 51.1242 57.8333 53.3331C57.8333 55.5421 56.0423 57.3331 53.8333 57.3331Z" fill="url(#paint2_linear)"/>
</g>
<path d="M64.4997 0H16.4997C12.8193 0.0045573 9.83757 2.98633 9.83301 6.66667V73.3333C9.83757 77.0137 12.8193 79.9954 16.4997 80H64.4997C68.18 79.9954 71.1618 77.0137 71.1663 73.3333V6.66667C71.1618 2.98633 68.18 0.0045573 64.4997 0ZM60.4997 2.66667V14.6667L57.2998 12.2669C56.8259 11.9108 56.1735 11.9108 55.6996 12.2669L52.4997 14.6667V2.66667H60.4997ZM68.4997 73.3333C68.4997 75.5423 66.7087 77.3333 64.4997 77.3333H16.4997C14.2907 77.3333 12.4997 75.5423 12.4997 73.3333V6.66667C12.4997 4.45768 14.2907 2.66667 16.4997 2.66667H49.833V17.3333C49.833 17.8385 50.1182 18.3001 50.57 18.526C51.0218 18.752 51.5622 18.7031 51.9665 18.3997L56.4997 15L61.0329 18.3997C61.4372 18.7031 61.9775 18.752 62.4294 18.526C62.8812 18.3001 63.1663 17.8385 63.1663 17.3333V2.66667H64.4997C66.7087 2.66667 68.4997 4.45768 68.4997 6.66667V73.3333Z" fill="#28347C"/>
<path d="M53.8331 47.9999C50.8878 47.9999 48.4998 50.3879 48.4998 53.3332C48.4998 56.2785 50.8878 58.6665 53.8331 58.6665C56.7785 58.6665 59.1665 56.2785 59.1665 53.3332C59.1665 50.3879 56.7785 47.9999 53.8331 47.9999ZM53.8331 55.9999C52.3605 55.9999 51.1665 54.8059 51.1665 53.3332C51.1665 51.8605 52.3605 50.6665 53.8331 50.6665C55.3058 50.6665 56.4998 51.8605 56.4998 53.3332C56.4998 54.8059 55.3058 55.9999 53.8331 55.9999Z" fill="#28347C"/>
<path d="M63.6433 50.4389C63.3354 50.1994 63.0613 49.9201 62.8275 49.6082C62.7585 49.198 62.7501 48.7794 62.8022 48.3667C63.0339 47.228 62.7533 46.0444 62.0352 45.131C61.1225 44.4103 59.9382 44.1297 58.7995 44.3641C58.3868 44.4161 57.9682 44.4077 57.558 44.3387C57.2462 44.1049 56.9669 43.8309 56.7273 43.5229C56.0769 42.5249 55.0157 41.8693 53.8327 41.7332C52.6498 41.8693 51.5886 42.5249 50.9382 43.5229C50.6986 43.8309 50.4193 44.1049 50.1075 44.3387C49.6973 44.4077 49.2787 44.4161 48.866 44.3641C47.7273 44.131 46.5437 44.4116 45.6303 45.131C44.9122 46.0444 44.6316 47.228 44.8633 48.3667C44.9154 48.7794 44.907 49.198 44.838 49.6082C44.6042 49.9201 44.3301 50.1994 44.0222 50.4389C43.0242 51.0893 42.3686 52.1505 42.2325 53.3335C42.3686 54.5164 43.0242 55.5776 44.0222 56.228C44.3301 56.4676 44.6042 56.7469 44.838 57.0587C44.907 57.4689 44.9154 57.8875 44.8633 58.3003C44.6316 59.4389 44.9122 60.6225 45.6303 61.5359C46.0489 61.9422 46.5873 62.2026 47.1661 62.2775V73.3335C47.1661 73.8387 47.4512 74.3003 47.9031 74.5262C48.3549 74.7521 48.8953 74.7033 49.2995 74.3999L53.8327 71.0001L58.366 74.3999C58.7702 74.7033 59.3106 74.7521 59.7624 74.5262C60.2143 74.3003 60.4994 73.8387 60.4994 73.3335V62.2775C61.0782 62.2026 61.6166 61.9422 62.0352 61.5359C62.7533 60.6225 63.0339 59.4389 62.8022 58.3003C62.7501 57.8875 62.7585 57.4689 62.8275 57.0587C63.0613 56.7469 63.3354 56.4676 63.6433 56.228C64.6413 55.5776 65.2969 54.5164 65.433 53.3335C65.2969 52.1505 64.6413 51.0893 63.6433 50.4389ZM54.6329 68.2671C54.1589 67.9109 53.5066 67.9109 53.0326 68.2671L49.8328 70.6668V62.2814C49.9258 62.284 50.0183 62.2996 50.1075 62.3283C50.4193 62.562 50.6986 62.8361 50.9382 63.144C51.5886 64.1421 52.6498 64.7977 53.8327 64.9337C55.0157 64.7977 56.0769 64.1421 56.7273 63.144C56.9669 62.8361 57.2462 62.562 57.558 62.3283C57.6472 62.2996 57.7397 62.284 57.8327 62.2814V70.6668L54.6329 68.2671ZM61.8887 54.2215C61.2494 54.7026 60.7286 55.3237 60.366 56.0372C60.1088 56.8185 60.0326 57.6479 60.1433 58.463C60.1674 58.8549 60.2071 59.5118 60.1954 59.616C59.7885 59.685 59.3738 59.6935 58.9649 59.6414C58.1498 59.5307 57.3204 59.6069 56.5391 59.8641C55.8256 60.2273 55.2045 60.7488 54.7234 61.3895C54.4675 61.7104 54.1804 62.0053 53.8673 62.271C53.5163 62.0268 53.2058 61.7293 52.9473 61.3895C52.4656 60.7495 51.8432 60.2286 51.129 59.8667C50.6361 59.6805 50.1114 59.5926 49.5847 59.6082C49.2833 59.6082 48.9864 59.6271 48.7032 59.644C48.3113 59.6681 47.6531 59.7137 47.5502 59.6961C47.4818 59.2892 47.4734 58.8745 47.5248 58.4656C47.6355 57.6505 47.5593 56.8211 47.3022 56.0398C46.9389 55.3263 46.4174 54.7052 45.7768 54.2241C45.4558 53.9682 45.1609 53.6811 44.8953 53.368C45.1394 53.0171 45.4369 52.7065 45.7768 52.448C46.4167 51.9663 46.9376 51.3439 47.2995 50.6297C47.5567 49.8484 47.6329 49.019 47.5222 48.2039C47.4981 47.812 47.4584 47.1551 47.4701 47.0509C47.877 46.9813 48.2917 46.9728 48.7006 47.0255C49.5157 47.1362 50.3451 47.06 51.1264 46.8029C51.8399 46.4396 52.461 45.9181 52.9421 45.2775C53.198 44.9565 53.4851 44.6616 53.7982 44.396C54.1492 44.6401 54.4597 44.9376 54.7182 45.2775C55.1999 45.9174 55.8223 46.4383 56.5365 46.8003C57.3178 47.0568 58.1472 47.1329 58.9623 47.0229C59.3542 46.9988 60.0098 46.952 60.1153 46.9708C60.1837 47.3777 60.1921 47.7924 60.1407 48.2013C60.03 49.0164 60.1062 49.8458 60.3633 50.6271C60.7266 51.3406 61.2481 51.9617 61.8887 52.4428C62.2169 52.6987 62.5092 52.9975 62.7579 53.3309C62.5092 53.6648 62.2169 53.9643 61.8887 54.2215Z" fill="#28347C"/>
<path d="M20.4999 12.0001H25.8333V14.6668H20.4999V12.0001Z" fill="#28347C"/>
<path d="M28.4998 12.0001H41.8331V14.6668H28.4998V12.0001Z" fill="#28347C"/>
<path d="M20.4999 17.3333H41.8333V19.9999H20.4999V17.3333Z" fill="#28347C"/>
<path d="M20.4999 27.9999H44.4999V30.6665H20.4999V27.9999Z" fill="#28347C"/>
<path d="M47.1666 27.9999H52.4999V30.6665H47.1666V27.9999Z" fill="#28347C"/>
<path d="M55.1665 27.9999H60.4998V30.6665H55.1665V27.9999Z" fill="#28347C"/>
<path d="M20.4999 33.3333H60.4999V36H20.4999V33.3333Z" fill="#28347C"/>
<path d="M20.4999 38.6668H36.4999V41.3335H20.4999V38.6668Z" fill="#28347C"/>
<path d="M20.4999 49.3334H33.8333V52.0001H20.4999V49.3334Z" fill="#28347C"/>
<path d="M20.4999 54.6665H33.8333V57.3332H20.4999V54.6665Z" fill="#28347C"/>
<defs>
<linearGradient id="paint0_linear" x1="53.8333" y1="1.33301" x2="53.8333" y2="73.3331" gradientUnits="userSpaceOnUse">
<stop stop-color="#F9B335"/>
<stop offset="1" stop-color="#F69914"/>
</linearGradient>
<linearGradient id="paint1_linear" x1="53.8333" y1="1.33301" x2="53.8333" y2="73.3331" gradientUnits="userSpaceOnUse">
<stop stop-color="#F9B335"/>
<stop offset="1" stop-color="#F69914"/>
</linearGradient>
<linearGradient id="paint2_linear" x1="53.8333" y1="1.33301" x2="53.8333" y2="73.3331" gradientUnits="userSpaceOnUse">
<stop stop-color="#F9B335"/>
<stop offset="1" stop-color="#F69914"/>
</linearGradient>
</defs>
</svg>
