<svg width="81" height="80" viewBox="0 0 81 80" fill="none" xmlns="http://www.w3.org/2000/svg">
<g clip-path="url(#clip0)">
<g opacity="0.8">
<path d="M15.0617 51.8684H1.82324V78.3452H15.0617V51.8684Z" fill="url(#paint0_linear)"/>
<path d="M42.8635 38.6299H41.5397C42.2708 38.6299 42.8635 38.0378 42.8635 37.306V32.0107C42.8635 31.2796 42.2708 30.6868 41.5397 30.6868H23.0059C22.2748 30.6868 21.682 31.2796 21.682 32.0107V37.306C21.682 38.0378 22.2748 38.6299 23.0059 38.6299H24.3297C23.5986 38.6299 23.0059 39.2226 23.0059 39.9537V45.2491C23.0059 45.9808 23.5986 46.573 24.3297 46.573H42.8635C43.5946 46.573 44.1874 45.9808 44.1874 45.2491V39.9537C44.1874 39.2226 43.5946 38.6299 42.8635 38.6299Z" fill="url(#paint1_linear)"/>
<path d="M71.9875 21.42V16.1246C71.9875 15.3935 71.3947 14.8008 70.6636 14.8008H52.1298C51.3987 14.8008 50.806 15.3935 50.806 16.1246V21.42C50.806 22.1517 51.3987 22.7438 52.1298 22.7438H49.4821C48.751 22.7438 48.1583 23.3366 48.1583 24.0677V29.3631C48.1583 30.0948 48.751 30.6869 49.4821 30.6869H52.1298C51.3987 30.6869 50.806 31.2797 50.806 32.0107V37.3061C50.806 38.0379 51.3987 38.63 52.1298 38.63H50.806C50.0749 38.63 49.4821 39.2227 49.4821 39.9538V45.2492C49.4821 45.9809 50.0749 46.573 50.806 46.573H69.3398C70.0709 46.573 70.6636 45.9809 70.6636 45.2492V39.9538C70.6636 39.2227 70.0709 38.63 69.3398 38.63H70.6636C71.3947 38.63 71.9875 38.0379 71.9875 37.3061V32.0107C71.9875 31.2797 71.3947 30.6869 70.6636 30.6869H68.0159C68.747 30.6869 69.3398 30.0948 69.3398 29.3631V24.0677C69.3398 23.3366 68.747 22.7438 68.0159 22.7438H70.6636C71.3947 22.7438 71.9875 22.1517 71.9875 21.42Z" fill="url(#paint2_linear)"/>
</g>
<path d="M24.3292 17.4479H21.6815C20.9504 17.4479 20.3577 16.8558 20.3577 16.124H17.71C17.71 18.3179 19.4883 20.0956 21.6815 20.0956V21.4194H24.3292V20.0956C26.5225 20.0956 28.3007 18.3179 28.3007 16.124C28.3007 13.9308 26.5225 12.1525 24.3292 12.1525H21.6815C20.9504 12.1525 20.3577 11.5604 20.3577 10.8287C20.3577 10.0976 20.9504 9.50482 21.6815 9.50482H24.3292C25.0603 9.50482 25.653 10.0976 25.653 10.8287H28.3007C28.3007 8.6354 26.5225 6.85713 24.3292 6.85713V5.53329H21.6815V6.85713C19.4883 6.85713 17.71 8.6354 17.71 10.8287C17.71 13.0226 19.4883 14.8002 21.6815 14.8002H24.3292C25.0603 14.8002 25.653 15.3929 25.653 16.124C25.653 16.8558 25.0603 17.4479 24.3292 17.4479Z" fill="#28347C"/>
<path d="M23.0047 26.7147C30.3162 26.7147 36.2431 20.7877 36.2431 13.4762C36.2431 6.16535 30.3162 0.237793 23.0047 0.237793C15.6932 0.237793 9.76626 6.16535 9.76626 13.4762C9.77402 20.7845 15.6964 26.7069 23.0047 26.7147ZM23.0047 2.88548C28.854 2.88548 33.5955 7.62753 33.5955 13.4762C33.5955 19.3256 28.854 24.067 23.0047 24.067C17.1554 24.067 12.414 19.3256 12.414 13.4762C12.4204 7.63011 17.1586 2.89259 23.0047 2.88548Z" fill="#28347C"/>
<path d="M79.8866 55.5866C79.1471 53.9958 77.8045 52.7644 76.1555 52.1645C74.5066 51.5646 72.6869 51.6461 71.0981 52.3895L53.945 60.3752C55.0827 58.3248 55.0503 55.8264 53.8616 53.8057C52.6722 51.7851 50.5029 50.5446 48.1583 50.544H28.3007C24.7215 50.5414 21.4624 52.6041 19.933 55.8393H16.3861V51.8678C16.3861 51.1367 15.7934 50.544 15.0623 50.544H1.82384C1.09276 50.544 0.5 51.1367 0.5 51.8678V78.3446C0.5 79.0764 1.09276 79.6685 1.82384 79.6685H15.0623C15.7934 79.6685 16.3861 79.0764 16.3861 78.3446V75.697H50.9566C51.923 75.6963 52.8771 75.4849 53.753 75.0777L76.6927 64.3848C79.992 62.8263 81.4173 58.8994 79.8866 55.5866ZM13.7384 77.0208H3.14769V53.1916H13.7384V77.0208ZM75.5725 61.9873L52.6341 72.6789C52.1085 72.9219 51.5365 73.0486 50.9566 73.0493H16.3861V58.487H20.8211C21.3841 58.487 21.8857 58.1302 22.0706 57.5976C23.0002 54.9544 25.4985 53.1871 28.3007 53.1916H48.1583C50.3516 53.1916 52.1299 54.9699 52.1299 57.1632C52.1299 59.3571 50.3516 61.1347 48.1583 61.1347H36.2438V63.7824H51.435C52.3994 63.7817 53.3522 63.5704 54.2268 63.1631L72.2189 54.787C74.1989 53.8607 76.5544 54.7139 77.4813 56.6932C77.725 57.2226 77.8517 57.7986 77.8524 58.3816C77.8511 59.9227 76.9642 61.326 75.5725 61.9873Z" fill="#28347C"/>
<path d="M20.3573 32.0104V37.3058C20.3605 38.2618 20.8802 39.1416 21.7166 39.6044C21.6966 39.7195 21.685 39.8365 21.6811 39.9535V45.2489C21.6811 46.7117 22.8666 47.8965 24.3288 47.8965H42.8626C44.3248 47.8965 45.5103 46.7117 45.5103 45.2489V39.9535C45.507 38.9981 44.9873 38.1183 44.1509 37.6555C44.1709 37.5398 44.1826 37.4234 44.1864 37.3058V32.0104C44.1864 30.5482 43.0009 29.3627 41.5387 29.3627H23.0049C21.5428 29.3627 20.3573 30.5482 20.3573 32.0104ZM42.8626 45.2489H24.3288V39.9535H26.9765V42.6012H29.6242V39.9535H32.2718V42.6012H34.9195V39.9535H37.5672V42.6012H40.2149V39.9535H42.8626V45.2489ZM41.5387 37.3058H23.0049V32.0104H25.6526V34.6581H28.3003V32.0104H30.948V34.6581H33.5957V32.0104H36.2434V34.6581H38.8911V32.0104H41.5387V37.3058Z" fill="#28347C"/>
<path d="M49.4818 32.0097V37.3051C49.4857 37.4227 49.4974 37.5391 49.5174 37.6548C48.6809 38.1176 48.1612 38.9974 48.158 39.9528V45.2482C48.158 46.711 49.3435 47.8959 50.8057 47.8959H69.3395C70.8017 47.8959 71.9872 46.711 71.9872 45.2482V39.9528C71.9833 39.8358 71.9717 39.7188 71.9516 39.6037C72.7881 39.1409 73.3078 38.2611 73.311 37.3051V32.0097C73.311 30.5476 72.1255 29.362 70.6633 29.362V24.0667C72.1255 24.0667 73.311 22.8818 73.311 21.419V16.1236C73.311 14.6614 72.1255 13.4759 70.6633 13.4759H52.1295C50.6674 13.4759 49.4818 14.6614 49.4818 16.1236V21.419C48.0197 21.419 46.8342 22.6045 46.8342 24.0667V29.362C46.8342 30.8249 48.0197 32.0097 49.4818 32.0097ZM57.4249 34.6574V32.0097H60.0726V34.6574H62.7203V32.0097H65.368V34.6574H68.0156V32.0097H70.6633V37.3051H52.1295V32.0097H54.7772V34.6574H57.4249ZM69.3395 45.2482H50.8057V39.9528H53.4534V42.6005H56.1011V39.9528H58.7487V42.6005H61.3964V39.9528H64.0441V42.6005H66.6918V39.9528H69.3395V45.2482ZM52.1295 16.1236H54.7772V18.7713H57.4249V16.1236H60.0726V18.7713H62.7203V16.1236H65.368V18.7713H68.0156V16.1236H70.6633V21.419H52.1295V16.1236ZM49.4818 24.0667H52.1295V26.7144H54.7772V24.0667H57.4249V26.7144H60.0726V24.0667H62.7203V26.7144H65.368V24.0667H68.0156V29.362H49.4818V24.0667Z" fill="#28347C"/>
</g>
<defs>
<linearGradient id="paint0_linear" x1="36.9053" y1="14.8008" x2="36.9053" y2="78.3452" gradientUnits="userSpaceOnUse">
<stop stop-color="#F9B335"/>
<stop offset="1" stop-color="#F69914"/>
</linearGradient>
<linearGradient id="paint1_linear" x1="36.9053" y1="14.8008" x2="36.9053" y2="78.3452" gradientUnits="userSpaceOnUse">
<stop stop-color="#F9B335"/>
<stop offset="1" stop-color="#F69914"/>
</linearGradient>
<linearGradient id="paint2_linear" x1="36.9053" y1="14.8008" x2="36.9053" y2="78.3452" gradientUnits="userSpaceOnUse">
<stop stop-color="#F9B335"/>
<stop offset="1" stop-color="#F69914"/>
</linearGradient>
<clipPath id="clip0">
<rect width="80" height="80" fill="white" transform="translate(0.5)"/>
</clipPath>
</defs>
</svg>
