<svg width="81" height="80" viewBox="0 0 81 80" fill="none" xmlns="http://www.w3.org/2000/svg">
<g clip-path="url(#clip0)">
<g opacity="0.8">
<path d="M72.5001 64.0001C72.5001 68.4181 68.9181 72.0001 64.5001 72.0001C60.0822 72.0001 56.5002 68.4181 56.5002 64.0001C56.5002 59.5822 60.0822 56.0001 64.5001 56.0001C68.9181 56.0001 72.5001 59.5822 72.5001 64.0001Z" fill="url(#paint0_linear)"/>
<path d="M35.1672 64.0001C35.1672 68.4181 31.5852 72.0001 27.1672 72.0001C22.7492 72.0001 19.1672 68.4181 19.1672 64.0001C19.1672 59.5822 22.7492 56.0001 27.1672 56.0001C31.5852 56.0001 35.1672 59.5822 35.1672 64.0001Z" fill="url(#paint1_linear)"/>
<path d="M17.834 26.667C17.834 28.1396 19.028 29.3336 20.5007 29.3336C21.9733 29.3336 23.1673 28.1396 23.1673 26.667C23.1673 25.1943 21.9733 24.0003 20.5007 24.0003C19.03 24.0049 17.8385 25.1963 17.834 26.667ZM39.1673 26.667C39.166 27.5504 39.1035 28.4326 38.9805 29.307C37.5625 39.2581 28.5195 46.2998 18.5247 45.2353C8.5293 44.1715 1.17123 35.3838 1.88021 25.3571C2.5892 15.3304 11.1107 7.66568 21.1563 8.01854C31.2012 8.37141 39.1634 16.6155 39.1673 26.667Z" fill="url(#paint2_linear)"/>
</g>
<path d="M80.1094 45.7232L63.5573 29.1712C62.8092 28.4186 61.791 27.996 60.7292 27.9993H43.1667V30.666H44.5V50.666H47.1667V30.666H60.7292C61.0827 30.6673 61.4212 30.8079 61.6719 31.0566L63.9479 33.3326H57.8333C56.3607 33.3326 55.1667 34.5266 55.1667 35.9993V47.9993C55.1667 49.4719 56.3607 50.666 57.8333 50.666H77.8333V61.3326C77.8333 62.0689 77.2363 62.666 76.5 62.666H73.7266C73.0677 58.0768 69.1361 54.6699 64.5 54.6699C59.8639 54.6699 55.9323 58.0768 55.2734 62.666H36.3932C35.7344 58.0768 31.8027 54.6699 27.1667 54.6699C22.5306 54.6699 18.599 58.0768 17.9401 62.666H15.1667C14.4303 62.666 13.8333 62.0689 13.8333 61.3326V47.9993H11.1667V61.3326C11.1667 63.5416 12.9577 65.3326 15.1667 65.3326H17.9401C18.2305 67.36 19.1829 69.235 20.6478 70.666H0.5V73.3326H64.5C69.1354 73.3274 73.0645 69.9205 73.7266 65.3326H76.5C78.709 65.3326 80.5 63.5416 80.5 61.3326V46.666C80.5 46.3124 80.3594 45.9732 80.1094 45.7232ZM20.5 63.9993C20.5 60.3176 23.485 57.3326 27.1667 57.3326C30.8483 57.3326 33.8333 60.3176 33.8333 63.9993C33.8333 67.6809 30.8483 70.666 27.1667 70.666C23.4863 70.6614 20.5046 67.6796 20.5 63.9993ZM33.6855 70.666C35.1504 69.235 36.1029 67.36 36.3932 65.3326H55.2734C55.5638 67.36 56.5163 69.235 57.9811 70.666H33.6855ZM64.5 70.666C60.8184 70.666 57.8333 67.6809 57.8333 63.9993C57.8333 60.3176 60.8184 57.3326 64.5 57.3326C68.1816 57.3326 71.1667 60.3176 71.1667 63.9993C71.1621 67.6796 68.1803 70.6614 64.5 70.666ZM57.8333 47.9993V35.9993H66.6146L77.8333 47.218V47.9993H57.8333Z" fill="#28347C"/>
<path d="M25.8335 62.6662H28.5001V65.3329H25.8335V62.6662Z" fill="#28347C"/>
<path d="M63.1664 62.6662H65.8331V65.3329H63.1664V62.6662Z" fill="#28347C"/>
<path d="M0.5 58.6663H7.16667V61.333H0.5V58.6663Z" fill="#28347C"/>
<path d="M3.16641 53.3328H7.16641V55.9995H3.16641V53.3328Z" fill="#28347C"/>
<path d="M4.50026 47.9994H7.16693V50.666H4.50026V47.9994Z" fill="#28347C"/>
<path d="M51.1669 53.3328H56.5003V55.9995H51.1669V53.3328Z" fill="#28347C"/>
<path d="M20.5 46.6665C31.5456 46.6665 40.5 37.7121 40.5 26.6665C40.5 15.6209 31.5456 6.6665 20.5 6.6665C9.45443 6.6665 0.5 15.6209 0.5 26.6665C0.51237 37.7069 9.45963 46.6541 20.5 46.6665ZM20.5 9.33317C30.0729 9.33317 37.8333 17.0936 37.8333 26.6665C37.8333 36.2394 30.0729 43.9998 20.5 43.9998C10.9271 43.9998 3.16667 36.2394 3.16667 26.6665C3.17773 17.0981 10.9316 9.34424 20.5 9.33317Z" fill="#28347C"/>
<path d="M20.5001 30.6666C22.4461 30.6705 24.1108 29.2701 24.4409 27.3521C24.7703 25.4341 23.6688 23.5585 21.8335 22.912V15.9999H19.1668V22.912C18.0372 23.315 17.1486 24.2037 16.7456 25.3332H12.5001V27.9999H16.7456C17.3087 29.5923 18.8113 30.6594 20.5001 30.6666ZM20.5001 25.3332C21.2365 25.3332 21.8335 25.9302 21.8335 26.6666C21.8335 27.4029 21.2365 27.9999 20.5001 27.9999C19.7638 27.9999 19.1668 27.4029 19.1668 26.6666C19.1668 25.9302 19.7638 25.3332 20.5001 25.3332Z" fill="#28347C"/>
<path d="M4.50026 25.3333H7.16693V28H4.50026V25.3333Z" fill="#28347C"/>
<path d="M19.1668 39.9998H21.8335V42.6665H19.1668V39.9998Z" fill="#28347C"/>
<path d="M33.8333 25.3333H36.5V28H33.8333V25.3333Z" fill="#28347C"/>
<path d="M19.1668 10.6664H21.8335V13.3331H19.1668V10.6664Z" fill="#28347C"/>
</g>
<defs>
<linearGradient id="paint0_linear" x1="37.1666" y1="8.00684" x2="37.1666" y2="72.0001" gradientUnits="userSpaceOnUse">
<stop stop-color="#F9B335"/>
<stop offset="1" stop-color="#F69914"/>
</linearGradient>
<linearGradient id="paint1_linear" x1="37.1666" y1="8.00684" x2="37.1666" y2="72.0001" gradientUnits="userSpaceOnUse">
<stop stop-color="#F9B335"/>
<stop offset="1" stop-color="#F69914"/>
</linearGradient>
<linearGradient id="paint2_linear" x1="37.1666" y1="8.00684" x2="37.1666" y2="72.0001" gradientUnits="userSpaceOnUse">
<stop stop-color="#F9B335"/>
<stop offset="1" stop-color="#F69914"/>
</linearGradient>
<clipPath id="clip0">
<rect width="80" height="80" fill="white" transform="translate(0.5)"/>
</clipPath>
</defs>
</svg>
