<svg width="32" height="32" viewBox="0 0 32 32" fill="none" xmlns="http://www.w3.org/2000/svg">
<path d="M4 8.00016C4 7.26378 4.59695 6.66683 5.33333 6.66683H12C12.7364 6.66683 13.3333 7.26378 13.3333 8.00016C13.3333 8.73654 12.7364 9.3335 12 9.3335H5.33333C4.59695 9.3335 4 8.73654 4 8.00016Z" fill="#EFEFF4"/>
<path d="M8.66667 12.6668C7.93029 12.6668 7.33333 12.0699 7.33333 11.3335L7.33333 4.66683C7.33333 3.93045 7.93029 3.3335 8.66667 3.3335C9.40305 3.3335 10 3.93045 10 4.66683L10 11.3335C10 12.0699 9.40305 12.6668 8.66667 12.6668Z" fill="#EFEFF4"/>
<path d="M5.36684 20.0337C5.88753 19.513 6.73175 19.513 7.25245 20.0337L11.9665 24.7478C12.4872 25.2685 12.4872 26.1127 11.9665 26.6334C11.4458 27.1541 10.6016 27.1541 10.0809 26.6334L5.36683 21.9193C4.84614 21.3986 4.84614 20.5544 5.36684 20.0337Z" fill="#EFEFF4"/>
<path d="M5.36684 26.6334C4.84614 26.1127 4.84614 25.2685 5.36684 24.7478L10.0809 20.0337C10.6016 19.513 11.4458 19.513 11.9665 20.0337C12.4872 20.5544 12.4872 21.3986 11.9665 21.9193L7.25245 26.6334C6.73175 27.1541 5.88753 27.1541 5.36684 26.6334Z" fill="#EFEFF4"/>
<path d="M18.6667 8.00016C18.6667 7.26378 19.2636 6.66683 20 6.66683H26.6667C27.403 6.66683 28 7.26378 28 8.00016C28 8.73654 27.403 9.3335 26.6667 9.3335H20C19.2636 9.3335 18.6667 8.73654 18.6667 8.00016Z" fill="#EFEFF4"/>
<path d="M18.6667 21.3335C18.6667 20.5971 19.2636 20.0002 20 20.0002H26.6667C27.403 20.0002 28 20.5971 28 21.3335C28 22.0699 27.403 22.6668 26.6667 22.6668H20C19.2636 22.6668 18.6667 22.0699 18.6667 21.3335Z" fill="#EFEFF4"/>
<path d="M18.6667 25.3335C18.6667 24.5971 19.2636 24.0002 20 24.0002H26.6667C27.403 24.0002 28 24.5971 28 25.3335C28 26.0699 27.403 26.6668 26.6667 26.6668H20C19.2636 26.6668 18.6667 26.0699 18.6667 25.3335Z" fill="#EFEFF4"/>
</svg>
