<svg width="58" height="21" viewBox="0 0 58 21" fill="none" xmlns="http://www.w3.org/2000/svg">
<path d="M7.96411 9.86951C7.6312 10.1486 7.46472 10.5001 7.46472 10.9253C7.46472 11.3502 7.6312 11.702 7.96411 11.9805C8.29706 12.2597 8.67885 12.3991 9.10975 12.3991C9.53169 12.3991 9.90224 12.2642 10.2209 11.9939C10.5389 11.7244 10.6988 11.3681 10.6988 10.9253C10.6988 10.4831 10.5389 10.1266 10.2209 9.85617C9.90224 9.58584 9.53169 9.45096 9.10975 9.45096C8.67885 9.45096 8.29706 9.59057 7.96411 9.86951Z" fill="#AAADBB"/>
<path d="M30.0129 12.3322C30.4345 12.3322 30.788 12.2023 31.0746 11.941C31.3605 11.6803 31.5033 11.3368 31.5033 10.912C31.5033 10.5043 31.3577 10.1681 31.0677 9.90223C30.7771 9.63721 30.4252 9.50348 30.0129 9.50348C29.6003 9.50348 29.2513 9.63721 28.9656 9.90223C28.6794 10.1681 28.5365 10.5043 28.5365 10.912C28.5365 11.3368 28.6794 11.6803 28.9656 11.941C29.2516 12.2023 29.6003 12.3322 30.0129 12.3322Z" fill="#AAADBB"/>
<path d="M42.1331 10.3803H44.9738C44.9268 10.0348 44.7644 9.77123 44.4882 9.59043C44.2118 9.40906 43.9138 9.31737 43.5955 9.31737C43.2765 9.31737 42.9722 9.40677 42.6816 9.5834C42.391 9.76089 42.2081 10.0262 42.1331 10.3803Z" fill="#AAADBB"/>
<path fill-rule="evenodd" clip-rule="evenodd" d="M58 0H0V21H58V0ZM10.6991 14.0324V13.3286C10.5115 13.5942 10.223 13.7981 9.8338 13.9394C9.44487 14.0815 9.09638 14.1519 8.7871 14.1519C7.90561 14.1519 7.12744 13.8539 6.45258 13.2557C5.77738 12.6576 5.4401 11.8806 5.4401 10.9253C5.4401 9.96938 5.77738 9.1924 6.45258 8.59463C7.12744 7.99614 7.90561 7.69869 8.7871 7.69869C9.09638 7.69869 9.43586 7.76039 9.80641 7.88436C10.1761 8.00819 10.4735 8.22027 10.6991 8.52145V7.83099H12.6394V14.0324H10.6991ZM15.6112 14.0325V11.8673C15.6112 10.2208 16.1551 9.39744 17.2425 9.39744C17.6358 9.39744 17.9684 9.45943 18.2404 9.5834L18.5926 7.92339C18.2734 7.77316 17.8984 7.69826 17.4669 7.69826C17.0923 7.69826 16.7285 7.83515 16.3776 8.10906C16.026 8.38442 15.7702 8.7912 15.6112 9.33187V7.83055H13.6572V14.0325H15.6112ZM21.2243 7.83055H22.7237V9.43102H21.2243V14.0322H19.284V5.45354H21.2243V7.83055ZM22.0821 15.4803V17.1531H23.2775C24.1671 17.1531 24.8049 16.9212 25.1896 16.4563C25.5738 15.9914 25.7661 15.3252 25.7661 14.4581V7.83055H23.7978V14.4971C23.8161 15.1527 23.5302 15.4803 22.9403 15.4803H22.0821ZM23.5591 5.53346C23.5591 5.83435 23.6777 6.09062 23.9172 6.30298C24.1562 6.51635 24.4443 6.62253 24.7816 6.62224C25.1192 6.62224 25.4052 6.51635 25.6397 6.30298C25.8738 6.09062 25.9913 5.83435 25.9913 5.53346C25.9913 5.23285 25.8738 4.97802 25.6397 4.7691C25.4052 4.56219 25.1192 4.45759 24.7816 4.45759C24.4443 4.45759 24.1562 4.56219 23.9172 4.7691C23.6777 4.97802 23.5591 5.23285 23.5591 5.53346ZM32.4386 13.2423C31.7775 13.8394 30.9688 14.1386 30.0129 14.1386C29.0568 14.1386 28.2506 13.8394 27.5947 13.2423C26.9382 12.6443 26.6099 11.8673 26.6099 10.912C26.6099 9.95518 26.9382 9.1802 27.5947 8.58688C28.2506 7.99499 29.0568 7.69826 30.0129 7.69826C30.9688 7.69826 31.7775 7.99499 32.4386 8.58688C33.0989 9.1802 33.4296 9.95518 33.4296 10.912C33.4296 11.8673 33.0989 12.6443 32.4386 13.2423ZM36.2141 14.0322V11.5756L38.4071 14.0322H40.8116L37.5355 10.5661L40.2631 7.83055H37.7745L36.2141 9.53117V4.4573H34.2741V14.0322H36.2141ZM45.1565 11.9875L46.5759 12.904C45.9761 13.7451 44.9776 14.1644 43.5812 14.1644C42.6157 14.1644 41.8033 13.8618 41.1421 13.2553C40.4809 12.649 40.1504 11.8673 40.1504 10.912C40.1504 9.95518 40.4809 9.1802 41.1421 8.58688C41.8033 7.9947 42.616 7.69826 43.5812 7.69826C44.5373 7.69826 45.3366 8.00087 45.9788 8.60711C46.6211 9.21378 46.9419 10.0004 46.9419 10.9642C46.9419 11.1332 46.9325 11.3228 46.9135 11.5364H42.1054C42.1517 11.8723 42.3369 12.1297 42.6602 12.3061C42.9837 12.4833 43.3378 12.5717 43.7221 12.5717C44.3596 12.5717 44.8369 12.3774 45.1565 11.9875ZM49.4786 14.019V11.8538C49.4786 10.207 50.0225 9.38395 51.1096 9.38395C51.5029 9.38395 51.8359 9.44594 52.1075 9.56991L52.4597 7.9099C52.1405 7.75967 51.7652 7.68477 51.3343 7.68477C50.9594 7.68477 50.5959 7.82166 50.2446 8.09558C49.8934 8.37093 49.6376 8.77772 49.4786 9.31838V7.81735H47.5246V14.019H49.4786Z" fill="#AAADBB"/>
</svg>
