<svg width="20" height="19" viewBox="0 0 20 19" fill="none" xmlns="http://www.w3.org/2000/svg">
<path d="M20 11.648V19H15.7124V12.1407C15.7124 10.4184 15.0934 9.2422 13.541 9.2422C12.3563 9.2422 11.6525 10.034 11.3417 10.8008C11.2288 11.0748 11.1997 11.4553 11.1997 11.8396V18.9997H6.91181C6.91181 18.9997 6.96937 7.38225 6.91181 6.17969H11.2V7.9964C11.1914 8.01071 11.1793 8.0247 11.1716 8.03836H11.2V7.9964C11.7698 7.12476 12.786 5.87865 15.0643 5.87865C17.8851 5.87865 20 7.71094 20 11.648ZM2.4263 -3.40708e-07C0.959583 -3.40708e-07 -3.51935e-08 0.957152 -3.51935e-08 2.21471C-3.51935e-08 3.44556 0.931765 4.43037 2.37002 4.43037H2.39784C3.89333 4.43037 4.82318 3.44556 4.82318 2.21471C4.79472 0.957152 3.89333 -3.40708e-07 2.4263 -3.40708e-07ZM0.254844 19H4.54115V6.17969H0.254844V19Z" fill="#AAADBB"/>
</svg>
