<svg width="108" height="39" viewBox="0 0 108 39" fill="none" xmlns="http://www.w3.org/2000/svg">
<g clip-path="url(#clip0)">
<path d="M3.73633 13.8936C3.89426 9.64345 6.53914 6.09246 10.5781 4.85308C11.4124 4.57579 12.2862 4.42587 13.1682 4.40869C20.7729 4.41685 28.3763 4.41685 35.9782 4.40869H36.9132C36.174 8.52842 35.4391 12.5931 34.7189 16.6619C34.1672 19.8072 33.5818 22.9485 33.1375 26.1081C32.5731 30.1239 30.4947 32.9532 26.5905 34.4821C26.5155 34.5001 26.4381 34.507 26.361 34.5025C29.7303 27.164 28.8227 20.4942 22.4527 15.2309C16.767 10.5363 10.319 10.5016 3.73633 13.8936Z" fill="#222C67"/>
<path d="M0 34.9855C0.465381 32.2194 0.913916 29.5164 1.3793 26.8154C1.84468 24.1144 2.29742 21.4114 2.81756 18.7227C2.9418 18.0867 3.5946 17.7035 4.08103 17.3284C6.7554 15.2777 9.81933 14.2401 13.2244 14.5215C18.9732 14.9944 23.5997 18.8185 24.8905 24.3061C25.7792 28.0915 24.9137 31.5344 22.5362 34.6451C22.4767 34.7527 22.3876 34.8423 22.2786 34.9038C22.1697 34.9654 22.0453 34.9965 21.9192 34.9937C14.6416 34.9855 7.35555 34.9855 0 34.9855Z" fill="#222C67"/>
<path d="M78.7828 5.15293C77.6078 6.09062 76.4496 7.02423 75.2851 7.94765C73.213 9.59337 71.1416 11.2357 69.0709 12.8746C68.3971 13.4087 67.6474 13.8449 67.0283 14.4565C66.7861 14.695 66.7187 14.8295 66.9462 15.068C68.0264 16.1953 69.0962 17.3348 70.2017 18.4396C70.3275 18.5425 70.4247 18.6741 70.4846 18.8225C70.5446 18.9709 70.5653 19.1315 70.545 19.2896C70.187 21.377 69.8269 23.4664 69.4394 25.5497C69.3573 25.986 69.1594 25.8025 68.9425 25.5783C68.0749 24.6977 67.1757 23.8374 66.3207 22.9589C64.9309 21.5319 63.5558 20.0826 62.1786 18.6373C61.9491 18.3948 61.7575 18.4457 61.528 18.6373C60.7256 19.2631 59.9023 19.8604 59.1084 20.5005C58.8873 20.681 58.7433 20.9345 58.7041 21.2119C58.4935 22.4615 58.2829 23.709 58.0723 24.9545C57.9944 25.3969 57.8618 25.6211 57.249 25.5762C55.916 25.4784 54.5683 25.5396 53.2269 25.5355C52.9131 25.5355 52.5952 25.5355 52.2793 25.5355C52.791 22.7673 53.2901 20.0663 53.7849 17.3633C54.2215 14.9837 54.6518 12.6055 55.0758 10.2287C55.1154 9.95743 55.2116 9.69681 55.3586 9.4627C55.5055 9.2286 55.7002 9.02591 55.9307 8.867C57.6996 7.59092 59.4544 6.29311 61.1952 4.97354C61.3721 4.839 61.549 4.62089 61.7238 4.7697C61.8417 4.87366 61.7238 5.12031 61.6859 5.28747C61.4458 6.54723 61.1679 7.79885 60.9278 9.05861C60.7299 10.1003 60.5761 11.148 60.3908 12.1938C60.3276 12.5383 60.2118 12.8787 60.3634 13.2884C62.0481 11.9981 63.7011 10.7179 65.3689 9.45611C67.2094 8.06181 69.0751 6.69808 70.8966 5.28135C71.1325 5.09094 71.4319 4.99021 71.739 4.998C73.8658 4.96131 75.9927 4.93481 78.1195 4.9185C78.241 4.90878 78.3633 4.92471 78.4778 4.96518C78.5923 5.00565 78.6964 5.06971 78.7828 5.15293V5.15293Z" fill="#FE9A00"/>
<path d="M81.6056 9.61914C81.1066 9.58827 80.6057 9.60602 80.1105 9.67214C80.1105 9.67214 79.9715 10.5405 79.8578 10.9869C79.1987 13.6104 78.7817 16.2869 78.3374 18.9369C77.9899 21.0182 77.4108 23.0709 77.3182 25.1889C77.2992 25.5966 76.9876 25.5966 76.8065 25.6108C75.0713 25.6455 73.3382 25.6516 71.6031 25.6394C71.2409 25.6394 71.3082 25.303 71.3588 25.1094C71.9905 22.6102 72.2959 20.0479 72.8139 17.5284C73.235 15.5225 73.5256 13.4942 73.8668 11.4762C74.0668 10.3061 74.3827 9.32968 75.5935 8.60195C77.3203 7.56233 78.8533 6.21695 80.4369 4.97349C80.7804 4.70033 81.2138 4.55565 81.6582 4.5658C82.8417 4.55357 84.0357 4.48018 85.196 4.72276C87.4071 5.18549 89.0054 6.40857 89.9782 8.42256C90.7616 10.0533 90.7532 11.7126 90.2436 13.3312C89.4012 16.0179 87.7798 18.1338 85.0759 19.4343C83.4797 20.2028 81.8857 20.7104 80.0936 20.6268C79.6388 20.6044 79.4619 20.476 79.5398 20.054C79.7041 19.0857 79.8051 18.1012 80.062 17.1553C80.201 16.6457 79.9589 16.026 80.4032 15.6326C80.8475 15.2392 81.4561 15.5857 81.9931 15.5225C83.8272 15.3187 85.4297 13.5656 85.2086 11.6678C85.078 10.5568 83.9451 9.65787 82.9217 9.61098C82.5006 9.59264 82.0794 9.61098 81.6582 9.61098C81.6688 9.61914 81.6056 9.61302 81.6056 9.61914Z" fill="#FE9A00"/>
<path d="M56.2132 7.7437C56.0026 7.91085 55.7626 8.06781 55.5583 8.24923C54.4379 9.18967 52.9933 9.68807 51.511 9.64558C50.1169 9.63335 48.8282 10.2428 47.6405 10.9583C45.779 12.0795 44.644 13.6838 44.5345 15.8241C44.4755 16.9738 44.9956 17.9645 45.8527 18.7921C47.2425 20.1375 48.9861 20.4392 50.8371 20.4229C51.77 20.4229 51.7995 20.4229 51.6436 21.2933C51.412 22.5653 51.1719 23.8373 50.9592 25.1134C50.8876 25.5476 50.7381 25.7005 50.2348 25.6373C49.3925 25.5292 48.5228 25.5476 47.6658 25.5007C44.3281 25.3152 41.6937 23.9168 39.8533 21.1975C38.573 19.3058 38.415 17.2429 38.7814 15.127C39.0847 13.3596 40.3313 10.7953 41.5527 9.45192C43.2605 7.56406 45.4431 6.13516 47.889 5.30366C49.6607 4.69037 51.531 4.38735 53.4125 4.40878C55.4383 4.42305 57.4619 4.40878 59.4877 4.40878H60.5743L56.2132 7.7437Z" fill="#FE9A00"/>
<path d="M47.488 34.8125H45.8454C45.9065 33.6485 46.3972 32.5579 46.3845 31.2085C45.4369 32.3092 44.5925 33.2897 43.7502 34.2662C43.3606 34.7187 42.0066 35.0469 41.4864 34.8247C41.2337 34.7187 41.3222 34.5189 41.3517 34.3701C41.6991 32.564 42.0971 30.7661 42.4046 28.9539C42.5057 28.3424 42.7605 28.2303 43.3227 28.2466C44.5651 28.2792 44.5356 28.2466 44.2851 29.38C44.0911 30.1469 43.9991 30.9347 44.0113 31.7242C44.841 30.7926 45.7128 30.0364 46.2856 29.1089C46.9173 28.0713 47.8291 28.2792 48.743 28.2629C49.0842 28.2629 48.9431 28.4667 48.9157 28.6196C48.682 29.9609 48.4608 31.3043 48.1976 32.6415C48.0839 33.2225 48.0692 33.8279 47.8207 34.3844C47.6714 34.4949 47.5563 34.643 47.488 34.8125V34.8125Z" fill="#222C67"/>
<path d="M39.1851 28.2586C39.9727 28.2586 40.7623 28.2749 41.5499 28.2586C41.9142 28.2586 42.0047 28.385 41.9584 28.705C41.7794 29.9281 41.7815 29.9281 40.4654 29.9281C40.0969 29.9281 39.7305 29.9281 39.362 29.9281C38.0227 29.9281 38.0416 29.9281 37.8542 31.194C37.7026 32.2132 37.492 33.2324 37.3278 34.2415C37.2583 34.6777 37.0793 34.853 36.5802 34.8388C35.0577 34.8163 35.0704 34.8388 35.3631 33.3935C35.6853 31.7913 35.9948 30.187 36.2665 28.5766C36.3254 28.224 36.5044 28.2505 36.7403 28.2505C37.5552 28.2586 38.3701 28.2586 39.1851 28.2586Z" fill="#222C67"/>
<path d="M47.4882 34.8125C47.2376 34.4048 47.5009 34.3681 47.8273 34.3865C47.7788 34.5781 47.9262 34.9124 47.4882 34.8125Z" fill="#222C67"/>
<path d="M20.6183 18.0298L17.4786 26.8461C15.3728 24.4469 13.3386 22.1577 11.2012 19.7278L20.6183 18.0298Z" fill="#FE9A00"/>
<path d="M77.8106 31.2531C78.417 30.8882 78.3117 30.2339 78.4423 29.7039C78.6866 28.7478 78.2907 28.2769 77.2525 28.2647C76.5155 28.2525 75.7785 28.2647 75.0435 28.2647C74.3086 28.2647 73.519 28.2851 72.7588 28.2647C72.3376 28.2504 72.1881 28.3748 72.1144 28.8049C71.7985 30.6395 71.4405 32.4741 71.0615 34.2965C70.9625 34.7674 71.1015 34.8591 71.5521 34.851C73.0262 34.8285 74.5003 34.8408 75.9743 34.8387C77.0272 34.8387 77.5831 34.4881 77.7516 33.5178C77.8653 32.8696 78.3328 32.1745 77.7305 31.5161C77.6358 31.406 77.7326 31.3 77.8106 31.2531ZM75.9153 32.5455C75.8859 32.892 75.8501 33.1896 75.351 33.157C74.7298 33.1264 74.1065 33.157 73.4979 33.157C73.3821 32.3763 73.7274 32.1378 74.4434 32.2316C74.7487 32.2723 75.0751 32.2193 75.3805 32.2438C75.5974 32.2601 75.9596 32.0827 75.9238 32.5394L75.9153 32.5455ZM76.2186 30.8434C75.4373 31.0289 74.6477 30.931 73.858 30.8902C73.8136 30.874 73.7678 30.8617 73.7211 30.8536H73.7337C73.9991 30.6089 73.6411 30.0382 74.0959 29.9811C74.8109 29.8726 75.5396 29.8795 76.2523 30.0015C76.6334 30.081 76.1007 30.5437 76.2291 30.8434H76.2186Z" fill="#222C67"/>
<path d="M73.8672 30.8906L76.2278 30.8438Z" fill="#222C67"/>
<path d="M56.4624 28.7786C56.5235 28.4668 56.5403 28.2486 56.0813 28.2568C54.7167 28.2792 53.3437 28.2201 51.9834 28.2772C50.6967 28.3322 50.2166 28.8377 50.0124 30.0996C49.865 31.0169 49.6902 31.9342 49.5512 32.8474C49.5175 33.0676 49.4438 33.1878 49.2164 33.1511C48.81 33.0879 48.7594 33.2938 48.7257 33.6261C48.6525 34.0365 48.5483 34.4412 48.4141 34.8369H55.6643C55.7886 34.8369 56.0265 34.8186 55.9823 34.7207C55.7486 34.205 56.8246 33.5446 55.7717 33.1206C55.5969 33.0492 55.677 32.7883 55.7086 32.6232C55.957 31.3389 56.2076 30.0588 56.4624 28.7786ZM53.9355 31.3063C53.8576 31.6773 53.6575 32.0504 53.6912 32.4091C53.7628 33.1817 53.3227 33.2001 52.7478 33.1613C52.3266 33.1328 51.9055 33.1613 51.4569 33.1613C51.6149 32.2685 51.7707 31.4327 51.9076 30.5929C51.9897 30.0914 52.2235 29.91 52.7899 29.9324C54.2198 29.9793 54.224 29.9446 53.9376 31.3165L53.9355 31.3063Z" fill="#222C67"/>
<path d="M70.6109 28.2589C69.9602 28.3201 69.2968 28.2712 68.6398 28.2712C67.9828 28.2712 67.2711 28.2549 66.5888 28.2712C65.479 28.3038 64.7504 28.6931 64.5672 29.4942C64.1966 31.1474 63.9186 32.821 63.5964 34.4844C63.548 34.7331 63.5964 34.8146 63.887 34.8432C65.5296 35.0022 65.5443 35.0042 65.8138 33.4162C66.0244 32.2278 66.0244 32.2278 67.349 32.2278C68.5745 32.2278 68.5745 32.2278 68.3029 33.3836C67.947 34.89 67.947 34.8799 69.5664 34.835C69.9012 34.8248 70.0718 34.7942 70.1097 34.4029C70.1899 33.7529 70.3037 33.1073 70.4508 32.4684C70.6867 31.286 70.9394 30.1078 71.1689 28.9255C71.2447 28.5341 71.2489 28.1896 70.6109 28.2589ZM68.823 30.3198C68.7957 30.6195 68.7683 30.8784 68.3598 30.8722C67.8396 30.8722 67.3195 30.8722 66.7994 30.8722C66.5888 30.8722 66.3298 30.915 66.414 30.5828C66.473 30.3463 66.3108 29.9712 66.7636 29.9427C67.0752 29.9244 67.3953 29.9427 67.7006 29.9427V29.9549H68.3324C68.5851 29.9468 68.8588 29.904 68.823 30.3117V30.3198Z" fill="#222C67"/>
<path d="M107.516 28.2587C106.149 28.2934 104.778 28.2587 103.411 28.2771C102.137 28.2995 101.542 28.7011 101.285 29.8202C100.941 31.3144 100.684 32.8269 100.411 34.3354C100.379 34.5107 100.265 34.7737 100.659 34.8532C101.977 35.1182 102.474 34.7838 102.611 33.4752C102.611 33.3997 102.622 33.3243 102.624 33.2469C102.649 32.4519 103.013 32.0564 103.887 32.2439C103.94 32.2501 103.993 32.2501 104.045 32.2439C104.229 32.2572 104.413 32.2572 104.597 32.2439C105.134 32.1685 105.298 32.2908 105.178 32.8738C105.104 33.3718 105 33.8652 104.867 34.3517C104.757 34.684 104.837 34.8389 105.26 34.8593C106.789 34.9306 106.787 34.949 107.05 33.4466C107.071 33.3264 107.151 33.2142 107.175 33.0919C107.455 31.6596 107.726 30.2265 107.987 28.7928C108.042 28.4381 107.985 28.2384 107.516 28.2587ZM105.62 30.3461C105.591 30.6682 105.532 30.8822 105.136 30.8741C104.483 30.8598 103.833 30.8741 103.157 30.8741C103.083 30.0302 103.5 29.8202 104.229 29.9323C104.541 29.9629 104.855 29.9629 105.168 29.9323C105.473 29.9201 105.658 29.9649 105.623 30.338L105.62 30.3461Z" fill="#222C67"/>
<path d="M62.5825 28.2588C61.8729 28.2588 61.1632 28.2588 60.4535 28.2588C59.7713 28.2588 59.089 28.271 58.4046 28.2588C58.0003 28.2486 57.7729 28.2588 57.7308 28.7969C57.6802 29.594 57.457 30.3808 57.3096 31.1697C57.1032 32.2052 56.8926 33.2387 56.6779 34.2702C56.5978 34.6555 56.6568 34.8471 57.1622 34.8491C58.611 34.8491 58.611 34.8838 58.8974 33.4569C58.9628 33.2394 59.0051 33.0161 59.0237 32.7903C59.0237 32.3622 59.1922 32.2114 59.6344 32.2277C60.3967 32.2562 61.1583 32.2562 61.9192 32.2277C62.6331 32.2052 63.3027 31.9953 63.5701 31.294C63.7659 30.7468 63.8835 30.1762 63.9197 29.5981C63.9871 28.6379 63.5954 28.269 62.5825 28.2588ZM61.8286 30.2035C61.6918 30.4277 61.8834 30.8721 61.3864 30.868C61.0727 30.868 60.7547 30.868 60.4451 30.868C60.2629 30.8823 60.0798 30.8823 59.8976 30.868C59.7081 30.8374 59.3164 31.0107 59.3943 30.6499C59.447 30.4094 59.3101 29.9222 59.8576 29.9303C60.4051 29.9385 61.0032 29.9303 61.5759 29.9426C61.7507 29.9344 61.9297 30.0322 61.8286 30.1994V30.2035Z" fill="#222C67"/>
<path d="M90.448 29.39C89.8774 30.2849 89.0498 31.0207 88.3422 31.8361C88.3727 31.0923 88.4771 30.353 88.6539 29.6285C88.974 28.228 88.9824 28.2301 87.481 28.2647C87.2072 28.2647 86.9019 28.1791 86.8345 28.6113C86.6239 29.9037 86.2533 31.1695 86.1712 32.4843C85.9438 33.2001 85.8025 33.9388 85.75 34.6859C86.7713 35.0691 87.6557 34.8673 88.2559 34.1518C89.0519 33.1998 89.8689 32.2662 90.7618 31.2246C90.8502 32.1602 90.5344 32.8757 90.4165 33.6137C90.2227 34.8367 90.168 34.849 91.4314 34.8367C91.7494 34.8367 92.1579 35.0263 92.259 34.4413C92.6149 32.4028 93.0171 30.3644 93.3962 28.3565C92.1158 28.065 91.1682 28.2586 90.448 29.39Z" fill="#222C67"/>
<path d="M100.057 32.2378C99.9854 31.243 99.2947 30.9189 98.3471 30.8374C99.0947 29.9323 100.017 29.2412 100.722 28.275C98.7051 28.2383 98.7051 28.2383 97.4374 29.545C97.17 29.8222 96.8815 30.079 96.633 30.3604C96.4561 30.5642 96.3466 30.8353 95.9465 30.8068C95.9621 30.4737 96.0008 30.1421 96.0623 29.814C96.4835 28.1711 96.4835 28.1711 94.7357 28.2526C94.6831 28.2556 94.6303 28.2556 94.5777 28.2526C94.3671 28.2526 94.2766 28.3178 94.2345 28.5482C93.8891 30.4745 93.5206 32.3968 93.1668 34.3211C93.1395 34.474 93.03 34.7594 93.249 34.7818C93.8196 34.8389 94.424 34.9061 94.9673 34.7818C95.3506 34.6941 95.2853 34.16 95.34 33.8115C95.5864 32.2276 95.578 32.2602 97.2037 32.2133C97.8754 32.1929 98.1681 32.3152 97.8986 32.9961C97.8059 33.4588 97.7196 33.9256 97.6185 34.3863C97.5743 34.5902 97.4564 34.7512 97.8017 34.8287C99.2147 35.1446 99.7096 34.8124 99.758 33.4017C99.758 33.1327 99.9686 32.9472 99.9433 32.6903C100.001 32.6307 100.041 32.5577 100.061 32.4785C100.081 32.3992 100.08 32.3163 100.057 32.2378V32.2378Z" fill="#222C67"/>
<path d="M85.8648 28.2894H83.9696C83.2178 28.2894 82.4661 28.2446 81.7164 28.2711C80.6319 28.3078 80.1244 28.6563 79.8465 29.4799C79.6759 29.539 79.7117 29.6715 79.7264 29.7979C79.36 30.2565 79.6654 30.8171 79.4927 31.3023C79.36 31.3818 79.3895 31.5061 79.3958 31.6284C79.1852 31.8323 79.2716 32.1034 79.2252 32.346C79.1789 32.5885 79.082 33.0839 78.9852 33.09C78.1787 33.1369 78.3429 33.726 78.2608 34.1826C77.8038 35.2813 78.7304 34.6963 79.082 34.8125C80.2592 34.8268 80.7162 34.5128 80.9773 33.459C81.1499 32.7761 81.3205 32.0911 81.43 31.3981C81.6743 29.8611 81.6574 29.859 83.1757 29.9385C83.2017 29.9406 83.2277 29.9406 83.2536 29.9385C83.6201 29.9039 83.7085 30.0771 83.6495 30.3972C83.4579 31.4164 83.3084 32.4356 83.0831 33.4549C82.7714 34.8512 82.7504 34.8308 84.2371 34.8492C84.6835 34.8492 84.9341 34.7901 85.0099 34.2927C85.2857 32.5396 85.5974 30.8069 85.8922 29.0742C86.0354 28.8031 86.2039 28.5381 85.8648 28.2894ZM80.1792 30.703H80.1897H80.1792Z" fill="#222C67"/>
<path d="M80.1868 30.7122V30.709H80.1836V30.7122H80.1868Z" fill="#222C67"/>
</g>
<defs>
<clipPath id="clip0">
<rect width="108" height="30.5891" fill="white" transform="translate(0 4.40869)"/>
</clipPath>
</defs>
</svg>
