<?xml version="1.0" standalone="no"?>
<!DOCTYPE svg PUBLIC "-//W3C//DTD SVG 20010904//EN"
 "http://www.w3.org/TR/2001/REC-SVG-20010904/DTD/svg10.dtd">
<svg version="1.0" xmlns="http://www.w3.org/2000/svg"
 width="300.000000pt" height="300.000000pt" viewBox="0 0 300.000000 300.000000"
 preserveAspectRatio="xMidYMid meet">

<g transform="translate(0.000000,300.000000) scale(0.100000,-0.100000)"
fill="#222b67" stroke="none">
<path d="M1142 2304 c-29 -7 -79 -26 -110 -41 -75 -35 -188 -148 -225 -226
-28 -58 -65 -202 -55 -212 3 -3 43 11 88 30 143 61 228 79 375 80 145 0 221
-17 345 -80 187 -94 362 -281 431 -459 71 -185 62 -412 -26 -628 -16 -39 -20
-58 -12 -58 7 0 41 17 77 37 72 43 162 128 178 170 25 64 281 1331 282 1396 0
4 -291 7 -647 6 -528 0 -658 -3 -701 -15z"/>
<path d="M1045 1762 c-38 -10 -96 -30 -129 -45 -70 -33 -181 -110 -200 -140
-8 -12 -26 -87 -40 -167 -45 -252 -116 -688 -116 -709 0 -21 0 -21 579 -21
l579 0 28 33 c42 49 102 184 120 267 38 177 -19 402 -138 547 -88 106 -223
194 -353 228 -94 25 -246 28 -330 7z m509 -406 c-44 -124 -82 -226 -85 -226
-3 0 -77 82 -164 183 -127 146 -154 183 -139 186 65 14 460 87 463 85 1 -2
-32 -104 -75 -228z"/>
</g>
</svg>
