<svg width="40" height="40" viewBox="0 0 40 40" fill="none" xmlns="http://www.w3.org/2000/svg">
<mask id="mask0" mask-type="alpha" maskUnits="userSpaceOnUse" x="0" y="0" width="40" height="40">
<path fill-rule="evenodd" clip-rule="evenodd" d="M0 20C0 8.95431 8.95431 0 20 0C31.0457 0 40 8.95431 40 20C40 31.0457 31.0457 40 20 40C8.95431 40 0 31.0457 0 20Z" fill="white"/>
</mask>
<g mask="url(#mask0)">
<path fill-rule="evenodd" clip-rule="evenodd" d="M0 20C0 8.95431 8.95431 0 20 0C31.0457 0 40 8.95431 40 20C40 31.0457 31.0457 40 20 40C8.95431 40 0 31.0457 0 20Z" fill="white"/>
<path fill-rule="evenodd" clip-rule="evenodd" d="M19.9997 9.3335C17.1028 9.3335 16.7392 9.34616 15.6014 9.39794C14.4659 9.44994 13.6907 9.62972 13.0125 9.8935C12.311 10.1659 11.7158 10.5304 11.1229 11.1235C10.5296 11.7164 10.1652 12.3115 9.89181 13.0129C9.62737 13.6913 9.44737 14.4667 9.39625 15.6018C9.34536 16.7396 9.33203 17.1034 9.33203 20.0003C9.33203 22.8972 9.34492 23.2596 9.39648 24.3974C9.4487 25.533 9.62848 26.3081 9.89204 26.9863C10.1647 27.6879 10.5292 28.283 11.1223 28.8759C11.7149 29.4693 12.3101 29.8346 13.0112 30.107C13.6899 30.3708 14.4652 30.5506 15.6005 30.6026C16.7383 30.6544 17.1017 30.667 19.9984 30.667C22.8955 30.667 23.258 30.6544 24.3957 30.6026C25.5313 30.5506 26.3073 30.3708 26.986 30.107C27.6873 29.8346 28.2816 29.4693 28.8742 28.8759C29.4676 28.283 29.832 27.6879 30.1054 26.9866C30.3676 26.3081 30.5476 25.5328 30.6009 24.3977C30.652 23.2599 30.6654 22.8972 30.6654 20.0003C30.6654 17.1034 30.652 16.7398 30.6009 15.602C30.5476 14.4664 30.3676 13.6913 30.1054 13.0131C29.832 12.3115 29.4676 11.7164 28.8742 11.1235C28.2809 10.5302 27.6876 10.1657 26.9853 9.8935C26.3053 9.62972 25.5298 9.44994 24.3942 9.39794C23.2564 9.34616 22.8942 9.3335 19.9964 9.3335H19.9997ZM19.0428 11.2557C19.3268 11.2553 19.6437 11.2557 19.9997 11.2557C22.8477 11.2557 23.1853 11.266 24.3099 11.3171C25.35 11.3646 25.9144 11.5384 26.2904 11.6844C26.7882 11.8777 27.1431 12.1088 27.5162 12.4822C27.8895 12.8555 28.1206 13.2111 28.3144 13.7089C28.4604 14.0844 28.6344 14.6489 28.6818 15.6889C28.7329 16.8133 28.744 17.1511 28.744 19.9978C28.744 22.8445 28.7329 23.1823 28.6818 24.3068C28.6342 25.3468 28.4604 25.9112 28.3144 26.2868C28.1211 26.7846 27.8895 27.139 27.5162 27.5121C27.1429 27.8855 26.7884 28.1166 26.2904 28.3099C25.9148 28.4566 25.35 28.6299 24.3099 28.6775C23.1855 28.7286 22.8477 28.7397 19.9997 28.7397C17.1514 28.7397 16.8139 28.7286 15.6894 28.6775C14.6494 28.6295 14.0849 28.4557 13.7087 28.3097C13.2109 28.1163 12.8554 27.8852 12.482 27.5119C12.1087 27.1386 11.8776 26.7839 11.6838 26.2859C11.5378 25.9103 11.3638 25.3459 11.3165 24.3059C11.2654 23.1814 11.2551 22.8436 11.2551 19.9952C11.2551 17.1467 11.2654 16.8107 11.3165 15.6862C11.364 14.6462 11.5378 14.0818 11.6838 13.7058C11.8771 13.208 12.1087 12.8524 12.482 12.4791C12.8554 12.1057 13.2109 11.8746 13.7087 11.6808C14.0847 11.5342 14.6494 11.3608 15.6894 11.3131C16.6734 11.2686 17.0548 11.2553 19.0428 11.2531V11.2557ZM25.6936 13.0269C24.9869 13.0269 24.4136 13.5996 24.4136 14.3065C24.4136 15.0131 24.9869 15.5865 25.6936 15.5865C26.4003 15.5865 26.9736 15.0131 26.9736 14.3065C26.9736 13.5998 26.4003 13.0265 25.6936 13.0265V13.0269ZM19.9996 14.5224C16.9744 14.5224 14.5217 16.9751 14.5217 20.0003C14.5217 23.0254 16.9744 25.477 19.9996 25.477C23.0247 25.477 25.4765 23.0254 25.4765 20.0003C25.4765 16.9751 23.0245 14.5224 19.9993 14.5224H19.9996ZM19.9997 16.4447C21.9633 16.4447 23.5553 18.0365 23.5553 20.0003C23.5553 21.9639 21.9633 23.5559 19.9997 23.5559C18.0359 23.5559 16.4442 21.9639 16.4442 20.0003C16.4442 18.0365 18.0359 16.4447 19.9997 16.4447Z" fill="black"/>
</g>
</svg>
