<svg width="40" height="40" viewBox="0 0 40 40" fill="none" xmlns="http://www.w3.org/2000/svg">
<path fill-rule="evenodd" clip-rule="evenodd" d="M0 20C0 8.95431 8.95431 0 20 0C31.0457 0 40 8.95431 40 20C40 31.0457 31.0457 40 20 40C8.95431 40 0 31.0457 0 20Z" fill="#0077B5"/>
<path fill-rule="evenodd" clip-rule="evenodd" d="M14.431 12.3522C14.4016 11.017 13.4467 10 11.8962 10C10.3457 10 9.33203 11.017 9.33203 12.3522C9.33203 13.6598 10.3157 14.7061 11.8374 14.7061H11.8664C13.4467 14.7061 14.431 13.6598 14.431 12.3522ZM14.1324 16.5648H9.59994V30.1829H14.1324V16.5648ZM25.2596 16.2451C28.2422 16.2451 30.4782 18.1919 30.4782 22.3748L30.478 30.183H25.9458V22.8973C25.9458 21.0673 25.2899 19.8185 23.6491 19.8185C22.3969 19.8185 21.6511 20.6603 21.3235 21.4734C21.2037 21.7648 21.1743 22.1708 21.1743 22.5778V30.1833H16.6413C16.6413 30.1833 16.701 17.8431 16.6413 16.5652H21.1743V18.4941C21.7758 17.5669 22.8532 16.2451 25.2596 16.2451Z" fill="white"/>
</svg>
