<svg width="40" height="40" viewBox="0 0 40 40" fill="none" xmlns="http://www.w3.org/2000/svg">
<path fill-rule="evenodd" clip-rule="evenodd" d="M20 40C31.0457 40 40 31.0457 40 20C40 8.95431 31.0457 0 20 0C8.95431 0 0 8.95431 0 20C0 31.0457 8.95431 40 20 40Z" fill="white"/>
<path fill-rule="evenodd" clip-rule="evenodd" d="M30.2866 20.1108C30.2866 20.8503 30.2063 21.5699 30.052 22.2648C30.4446 23.0438 30.6654 23.9205 30.6654 24.8491C30.6654 28.0615 28.0238 30.6668 24.7651 30.6668C23.7554 30.6668 22.8071 30.4158 21.9755 29.9756C21.3709 30.0857 20.7488 30.1438 20.1116 30.1438C14.4923 30.1438 9.93661 25.6528 9.93661 20.1108C9.93661 19.4209 10.0081 18.7457 10.1423 18.0953C9.62805 17.2298 9.33203 16.2257 9.33203 15.1525C9.33203 11.9376 11.9736 9.3335 15.2336 9.3335C16.3863 9.3335 17.4625 9.66117 18.3719 10.2262C18.9388 10.1298 19.5196 10.0791 20.1116 10.0791C25.7322 10.0791 30.2866 14.5713 30.2866 20.1108ZM23.2625 26.4516C24.1656 26.0831 24.8605 25.5638 25.3308 24.906C25.8025 24.2469 26.0433 23.4939 26.0433 22.6679C26.0433 21.9767 25.9041 21.3832 25.6294 20.8997C25.3547 20.42 24.9696 20.0193 24.4829 19.7065C24.0038 19.3986 23.4193 19.1365 22.7407 18.9238C22.0721 18.7123 21.3158 18.5157 20.4917 18.3426C19.8407 18.1943 19.3666 18.0793 19.0844 18.0014C18.8084 17.9272 18.5325 17.8208 18.2653 17.6885C18.0069 17.5599 17.8025 17.4091 17.6595 17.2335C17.5215 17.0703 17.455 16.8786 17.455 16.6511C17.455 16.2777 17.662 15.9624 18.0859 15.6891C18.5262 15.4035 19.1207 15.26 19.8482 15.26C20.6347 15.26 21.2054 15.3886 21.5478 15.6458C21.9003 15.9104 22.2076 16.2851 22.461 16.7599C22.6805 17.1309 22.8787 17.3905 23.0693 17.5575C23.2725 17.7355 23.5685 17.827 23.9448 17.827C24.3588 17.827 24.7112 17.6823 24.9897 17.3955C25.2669 17.1123 25.4074 16.7859 25.4074 16.4273C25.4074 16.0551 25.2995 15.6706 25.0888 15.2835C24.8805 14.9002 24.5469 14.533 24.0991 14.1868C23.6551 13.8442 23.0906 13.5673 22.4196 13.362C21.7523 13.1568 20.9533 13.0529 20.0452 13.0529C18.9075 13.0529 17.9041 13.2087 17.0599 13.5166C16.2032 13.8269 15.5384 14.2844 15.0844 14.8693C14.6253 15.4579 14.3932 16.1417 14.3932 16.8984C14.3932 17.6935 14.6153 18.3698 15.0518 18.9102C15.482 19.4406 16.0703 19.8648 16.8003 20.1702C17.5127 20.4706 18.4096 20.734 19.4669 20.9566C20.2434 21.1173 20.8705 21.2719 21.3334 21.4129C21.7761 21.5513 22.1411 21.7492 22.4196 22.0039C22.683 22.2487 22.8122 22.5603 22.8122 22.9548C22.8122 23.4568 22.5663 23.8673 22.0583 24.2074C21.5403 24.556 20.8504 24.7341 20.0088 24.7341C19.398 24.7341 18.9 24.6451 18.5312 24.4744C18.165 24.3026 17.8777 24.0837 17.677 23.8216C17.4701 23.5532 17.2744 23.2095 17.0938 22.8014C16.932 22.4293 16.7313 22.1387 16.4967 21.9421C16.2521 21.7381 15.9498 21.6354 15.6012 21.6354C15.1747 21.6354 14.8172 21.7653 14.5387 22.0249C14.2578 22.2858 14.1148 22.6048 14.1148 22.9709C14.1148 23.5607 14.333 24.1703 14.7658 24.7836C15.1935 25.3944 15.7567 25.8865 16.4403 26.25C17.3973 26.7508 18.6228 27.0043 20.0841 27.0043C21.302 27.0043 22.3707 26.8176 23.2625 26.4516Z" fill="#00AEF3"/>
</svg>
