<svg width="40" height="40" viewBox="0 0 40 40" fill="none" xmlns="http://www.w3.org/2000/svg">
<path fill-rule="evenodd" clip-rule="evenodd" d="M20 0C31.0457 0 40 8.9543 40 20C40 31.0457 31.0457 40 20 40C8.95431 40 0 31.0457 0 20C0 8.9543 8.95431 0 20 0Z" fill="#7F4DA0"/>
<path fill-rule="evenodd" clip-rule="evenodd" d="M25.3268 17.4654C25.2295 16.6751 24.9866 16.0546 24.5552 15.505C23.9951 14.7973 23.2793 14.3735 22.2196 14.1221C21.529 13.9545 21.25 13.9737 21.0002 14.2019C20.7675 14.4157 20.7221 14.8442 20.8999 15.1217C21.0249 15.3231 21.1692 15.3953 21.5704 15.474C22.1046 15.5723 22.4738 15.6999 22.8097 15.8919C23.5226 16.3036 23.8545 16.9477 23.8901 17.9905C23.9067 18.4801 23.949 18.6306 24.12 18.8043C24.437 19.1217 25.001 19.06 25.2403 18.6801C25.3281 18.5369 25.3415 18.4746 25.3508 18.1421C25.3569 17.9363 25.3481 17.6299 25.3268 17.4654Z" fill="white"/>
<path fill-rule="evenodd" clip-rule="evenodd" d="M28.1204 18.3566C27.9796 15.9355 27.0326 13.9875 25.3378 12.617C24.3829 11.8469 23.2287 11.3174 21.9634 11.0599C21.5 10.9677 20.6467 10.8931 20.5003 10.9358C20.3621 10.9753 20.1668 11.1249 20.0797 11.2602C19.9876 11.4069 19.9668 11.7344 20.0454 11.9238C20.1722 12.2405 20.4081 12.3524 21.0687 12.4102C22.0871 12.4993 23.1375 12.8571 23.9312 13.3868C24.8373 13.9899 25.5576 14.8148 26.0236 15.7842C26.4262 16.617 26.6738 17.8173 26.6669 18.8921C26.6646 19.2808 26.7247 19.5004 26.881 19.6609C27.117 19.9077 27.4609 19.9616 27.7645 19.7977C28.1009 19.6208 28.1796 19.3102 28.1204 18.3566Z" fill="white"/>
<path fill-rule="evenodd" clip-rule="evenodd" d="M31.2085 27.6802C31.1611 27.5418 31.0506 27.3284 30.9716 27.2058C30.4743 26.4548 27.802 24.3635 26.4678 23.6795C25.706 23.2882 25.1416 23.1578 24.7232 23.2803C24.2732 23.4068 24.0363 23.6163 23.2824 24.5532C22.9785 24.9288 22.6667 25.2806 22.5838 25.3359C22.3785 25.4783 21.9759 25.593 21.6917 25.593C21.0325 25.5889 19.8365 25.162 18.9168 24.6006C18.2023 24.1658 17.2866 23.3871 16.584 22.6162C15.755 21.7109 15.1906 20.9123 14.7445 20.011C14.1683 18.8527 14.0222 18.1451 14.263 17.6272C14.3222 17.4967 14.4012 17.3584 14.4366 17.3149C14.4722 17.2754 14.8432 16.9709 15.2537 16.6389C16.059 15.9985 16.1892 15.8522 16.3392 15.4134C16.5287 14.856 16.4774 14.2867 16.1853 13.7135C15.9603 13.2786 15.3722 12.3299 14.9459 11.7171C14.3814 10.9107 12.9762 9.18711 12.6959 8.95381C12.1907 8.54271 11.5434 8.47151 10.8288 8.74829C10.075 9.04084 8.66184 10.1794 8.0579 10.974C7.51318 11.6934 7.30404 12.2034 7.27243 12.8754C7.24482 13.4288 7.29217 13.6581 7.58427 14.3658C9.86972 19.9161 13.2801 24.3476 17.9655 27.866C20.4128 29.7043 22.9508 31.1037 25.5837 32.0604C27.1191 32.6178 27.7862 32.6455 28.5717 32.1869C28.9033 31.9892 29.7243 31.1472 30.1822 30.5345C30.9401 29.5145 31.2203 29.0441 31.2992 28.6685C31.3545 28.4116 31.3111 27.9649 31.2085 27.6802Z" fill="white"/>
<path fill-rule="evenodd" clip-rule="evenodd" d="M30.9622 18.9123C30.9117 17.5427 30.6811 16.4194 30.2003 15.1669C29.7256 13.9349 29.2452 13.131 28.3379 12.0437C27.4801 11.0241 26.8138 10.442 25.7571 9.79402C24.2828 8.89119 22.4887 8.29373 20.478 8.04247C19.7923 7.95465 19.6372 7.96093 19.4268 8.10129C19.0192 8.3672 19.0246 9.03043 19.4335 9.29235C19.5689 9.37566 19.689 9.40601 20.2375 9.47781C21.0795 9.59116 21.6209 9.698 22.2633 9.87328C24.7825 10.5619 26.7198 11.9695 28.0149 14.0591C29.0988 15.8008 29.5487 17.5426 29.4848 19.7671C29.4626 20.5192 29.4787 20.6515 29.5937 20.8322C29.8139 21.169 30.3944 21.2356 30.6923 20.9561C30.8776 20.7858 30.9125 20.6579 30.949 20.0143C30.9665 19.6785 30.9703 19.1828 30.9622 18.9123Z" fill="white"/>
</svg>
