<?xml version="1.0" standalone="no"?>
<!DOCTYPE svg PUBLIC "-//W3C//DTD SVG 1.1//EN" "http://www.w3.org/Graphics/SVG/1.1/DTD/svg11.dtd" >
<svg xmlns="http://www.w3.org/2000/svg">
<defs>
  <font id="iconfont" horiz-adv-x="1000">
    <font-face font-family="iconfont"
      units-per-em="600" ascent="600"
      descent="0" />
    <missing-glyph horiz-adv-x="0" />
    <glyph glyph-name="arrow-down"
      unicode="&#xEA01;"
      horiz-adv-x="1000" d="M52.8514 547.1242C78.8864 573.1591 121.097 573.1591 147.132 547.1242L499.992 194.2650000000001L852.8510000000001 547.1242C878.886 573.1591 921.097 573.1591 947.132 547.1242C973.167 521.0892 973.167 478.878 947.132 452.843L547.1320000000001 52.8430000000001C521.097 26.808 478.886 26.808 452.851 52.8430000000001L52.8514 452.843C26.8165 478.878 26.8165 521.0892 52.8514 547.1242z" />
    <glyph glyph-name="arrow-long"
      unicode="&#xEA02;"
      horiz-adv-x="600" d="M323.5375 509.771C336.555 522.7885 336.555 543.894 323.5375 556.9117C310.52 569.92915 289.4145 569.92915 276.397 556.9117L43.0639 323.5785C30.0464 310.561 30.0464 289.4555 43.0639 276.438L276.397 43.105C289.4145 30.0849999999999 310.52 30.0849999999999 323.5375 43.105C336.555 56.12 336.555 77.23 323.5375 90.245L147.108 266.675H533.3000000000001C551.71 266.675 566.635 281.5985 566.635 300.008C566.635 318.4175 551.71 333.3415 533.3000000000001 333.3415H147.108L323.5375 509.771z" />
    <glyph glyph-name="arrow-right"
      unicode="&#xEA03;"
      horiz-adv-x="360" d="M31.75482 568.28184C47.37576 583.90278 72.7026 583.90278 88.3236 568.28184L328.3236 328.2816C343.9446 312.6606 343.9446 287.334 328.3236 271.713L88.3236 31.713C72.7026 16.092 47.37576 16.092 31.75482 31.713C16.13382 47.3339999999999 16.13382 72.6606000000001 31.75482 88.2816L243.4704 299.9976L31.75482 511.713C16.13382 527.3340000000001 16.13382 552.66084 31.75482 568.28184z" />
    <glyph glyph-name="balance"
      unicode="&#xEA04;"
      horiz-adv-x="685.7142857142858" d="M371.4285714285715 571.4285714285714C371.4285714285715 587.2081428571429 358.6371428571429 600 342.8571428571429 600C327.0771428571429 600 314.2857142857143 587.2081428571429 314.2857142857143 571.4285714285714V485.7142857142857H157.1428571428572H71.4285714285714C55.6491428571429 485.7142857142857 42.8571428571429 472.9222857142857 42.8571428571429 457.1428571428571C42.8571428571429 441.3634285714286 55.6491428571429 428.5714285714286 71.4285714285714 428.5714285714286H124.3214285714286C83.3082857142857 355.386 16.773 230.1628571428571 2.6765 164.2857142857143C0.9406885714286 156.1742857142857 0 148.9628571428571 0 142.8571428571428C0 135.5742857142857 0.5994971428571 128.4171428571428 1.7560771428571 121.4285714285714C13.1289142857143 52.6971428571428 78.3665714285714 0 157.1428571428572 0C235.9191428571429 0 301.1571428571429 52.6971428571428 312.5285714285714 121.4285714285714C313.6857142857143 128.4171428571428 314.2857142857143 135.5742857142857 314.2857142857143 142.8571428571428C314.2857142857143 148.9628571428571 313.3457142857144 156.1742857142857 311.6085714285715 164.2857142857143C297.5114285714286 230.1628571428571 230.9774285714286 355.386 189.9642857142857 428.5714285714286H314.2857142857143H342.8571428571429H371.4285714285715H495.7485714285714C454.7371428571429 355.386 388.2028571428572 230.1628571428571 374.1057142857144 164.2857142857143C372.3685714285715 156.1742857142857 371.4285714285715 148.9628571428571 371.4285714285715 142.8571428571428C371.4285714285715 135.5742857142857 372.0285714285715 128.4171428571428 373.1857142857143 121.4285714285714C384.5571428571429 52.6971428571428 449.7942857142858 0 528.5714285714286 0C607.3485714285715 0 672.5857142857144 52.6971428571428 683.9571428571429 121.4285714285714C685.1142857142858 128.4171428571428 685.7142857142858 135.5742857142857 685.7142857142858 142.8571428571428C685.7142857142858 148.9628571428571 684.7742857142857 156.1742857142857 683.037142857143 164.2857142857143C668.94 230.1628571428571 602.4057142857143 355.386 561.3942857142857 428.5714285714286H600C615.78 428.5714285714286 628.5714285714286 441.3634285714286 628.5714285714286 457.1428571428571C628.5714285714286 472.9222857142857 615.78 485.7142857142857 600 485.7142857142857H528.5714285714286H371.4285714285715V571.4285714285714zM266.3825714285715 168.2685714285714C266.7851428571429 166.8857142857143 267.1582857142858 165.5571428571428 267.5037142857143 164.2857142857143H46.782C47.1274285714286 165.5571428571428 47.5005714285714 166.8857142857143 47.9031428571429 168.2685714285714C51.6262857142857 181.0657142857143 57.1648571428572 196.3228571428571 64.1928571428572 213.42C78.2408571428572 247.5971428571429 97.242 286.7342857142857 116.6271428571429 324.1622857142857C130.7377142857143 351.4062857142857 144.8728571428572 377.4034285714286 157.1428571428572 399.4460000000001C169.4128571428572 377.4034285714286 183.548 351.4062857142857 197.6585714285714 324.1622857142857C217.0437142857143 286.7342857142857 236.0448571428572 247.5971428571429 250.0928571428572 213.42C257.1208571428572 196.3228571428571 262.6594285714286 181.0657142857143 266.3825714285715 168.2685714285714zM157.1428571428572 42.8571428571428C214.7608571428572 42.8571428571428 257.7431428571429 78.6857142857143 268.6991428571429 121.4285714285714H45.5865714285714C56.5425714285714 78.6857142857143 99.5248571428572 42.8571428571428 157.1428571428572 42.8571428571428zM488.0571428571429 324.1622857142857C502.1657142857143 351.4062857142857 516.3028571428572 377.4034285714286 528.5714285714286 399.4460000000001C540.84 377.4034285714286 554.9771428571429 351.4062857142857 569.0857142857143 324.1622857142857C588.4714285714285 286.7342857142857 607.4742857142858 247.5971428571429 621.5228571428571 213.42C628.5485714285714 196.3228571428571 634.0885714285715 181.0657142857143 637.8114285714286 168.2685714285714C638.2142857142857 166.8857142857143 638.5857142857143 165.5571428571428 638.9314285714286 164.2857142857143H418.2114285714286C418.5571428571429 165.5571428571428 418.9285714285715 166.8857142857143 419.3314285714286 168.2685714285714C423.0542857142858 181.0657142857143 428.5942857142857 196.3228571428571 435.6200000000001 213.42C449.6685714285715 247.5971428571429 468.6714285714286 286.7342857142857 488.0571428571429 324.1622857142857zM528.5714285714286 42.8571428571428C470.9542857142857 42.8571428571428 427.9714285714286 78.6857142857143 417.0142857142858 121.4285714285714H640.1285714285714C629.1714285714286 78.6857142857143 586.1885714285714 42.8571428571428 528.5714285714286 42.8571428571428z" />
    <glyph glyph-name="bookmarks"
      unicode="&#xEA05;"
      horiz-adv-x="490.90909090909093" d="M190.9090909090909 600C161.0869090909091 600 136.8548181818182 575.6630454545455 136.371 545.4545454545455H436.3636363636364V138.6654545454545L490.9090909090909 110.9345454545454V544.5332727272727C490.9090909090909 575.1667636363636 466.489090909091 600 436.3636363636364 600H190.9090909090909zM190.9090909090909 105.8727272727273L0 10.4181818181819V436.3636363636364C0 466.4882727272727 24.4208181818182 490.9090909090909 54.5454545454545 490.9090909090909H327.2727272727273C357.3981818181818 490.9090909090909 381.8181818181818 466.4882727272727 381.8181818181818 436.3636363636364V10.4181818181819L190.9090909090909 105.8727272727273zM54.5454545454545 98.6727272727272L190.9090909090909 166.8545454545455L327.2727272727273 98.6727272727272V436.3636363636364H54.5454545454545V98.6727272727272z" />
    <glyph glyph-name="calendar"
      unicode="&#xEA06;"
      horiz-adv-x="525" d="M87.52425 475.006125C73.717125 475.006125 62.5245 463.813125 62.5245 450.006V100.005C62.5245 86.1975 73.717125 75.0074999999999 87.52425 75.0074999999999H437.52375C451.33125 75.0074999999999 462.525 86.1975 462.525 100.005V450.006C462.525 463.813125 451.33125 475.006125 437.52375 475.006125H87.52425zM12.5244 450.006C12.5244 491.427375 46.102875 525.006 87.52425 525.006H437.52375C478.94625 525.006 512.52375 491.427375 512.52375 450.006V100.005C512.52375 58.5862500000001 478.94625 25.005 437.52375 25.005H87.52425C46.102875 25.005 12.5244 58.5862500000001 12.5244 100.005V450.006zM362.5245 575.0061C376.33125 575.0061 387.525 563.8132125 387.525 550.006125V450.006C387.525 436.198875 376.33125 425.00625 362.5245 425.00625C348.717375 425.00625 337.524375 436.198875 337.524375 450.006V550.006125C337.524375 563.8132125 348.717375 575.0061 362.5245 575.0061zM162.52425 575.0061C176.331375 575.0061 187.524375 563.8132125 187.524375 550.006125V450.006C187.524375 436.198875 176.331375 425.00625 162.52425 425.00625C148.717125 425.00625 137.5245 436.198875 137.5245 450.006V550.006125C137.5245 563.8132125 148.717125 575.0061 162.52425 575.0061zM12.5244 350.00625C12.5244 363.813375 23.7172875 375.006 37.524375 375.006H487.52625C501.33 375.006 512.52375 363.813375 512.52375 350.00625C512.52375 336.199125 501.33 325.006125 487.52625 325.006125H37.524375C23.7172875 325.006125 12.5244 336.199125 12.5244 350.00625z" />
    <glyph glyph-name="check"
      unicode="&#xEA07;"
      horiz-adv-x="600" d="M586.4213793103448 523.2881379310345C597.8172413793104 539.2419310344827 594.1220689655173 561.4131724137931 578.168275862069 572.8086206896552C562.2144827586208 584.2042758620689 540.043448275862 580.5090827586207 528.6475862068966 564.5553103448276L586.4213793103448 523.2881379310345zM202.5415862068966 46.9324137931035L174.1421379310345 25.6324137931034C180.9335172413793 16.576551724138 191.6360689655173 11.3027586206896 202.9543448275862 11.4351724137931C214.2724137931035 11.5675862068965 224.8489655172414 17.0875862068965 231.428275862069 26.2986206896552L202.5415862068966 46.9324137931035zM71.1943448275862 281.2262068965517C59.4308275862069 296.9110344827586 37.1799310344828 300.0910344827587 21.4953103448276 288.3268965517242C5.8107724137931 276.5627586206897 2.632075862069 254.3131034482758 14.3954896551724 238.628275862069L71.1943448275862 281.2262068965517zM528.6475862068966 564.5553103448276L173.6546896551724 67.5662068965517L231.428275862069 26.2986206896552L586.4213793103448 523.2881379310345L528.6475862068966 564.5553103448276zM230.9420689655173 68.2324137931034L71.1943448275862 281.2262068965517L14.3954896551724 238.628275862069L174.1421379310345 25.6324137931034L230.9420689655173 68.2324137931034z" />
    <glyph glyph-name="clip"
      unicode="&#xEA08;"
      horiz-adv-x="573.9130434782609" d="M385.5208695652174 537.7121739130434C364.7504347826087 537.7121739130434 344.8304347826087 529.4608695652174 330.1408695652174 514.7731304347826L90.4027826086957 275.0347826086957C65.9253913043478 250.5573913043479 52.1739130434783 217.3565217391305 52.1739130434783 182.7417391304348C52.1739130434783 148.124347826087 65.9253913043478 114.9260869565218 90.4027826086957 90.4486956521739C114.8804347826087 65.9713043478262 148.0792173913044 52.2182608695653 182.6958260869565 52.2182608695653C217.3121739130435 52.2182608695653 250.5109565217391 65.9713043478262 274.9878260869565 90.4486956521739L514.7269565217391 330.1878260869566C524.9165217391304 340.3750434782609 541.4321739130435 340.3750434782609 551.6191304347825 330.1878260869566C561.8086956521739 320.0008695652174 561.8086956521739 303.4826086956522 551.6191304347825 293.2956521739131L311.88 53.5565217391305C277.62 19.2939130434783 231.1497391304348 0.044347826087 182.6958260869565 0.044347826087C134.2419130434783 0.044347826087 87.7724347826087 19.2939130434783 53.510347826087 53.5565217391305C19.2482347826087 87.8191304347826 0 134.2878260869566 0 182.7417391304348C0 231.1956521739131 19.2482347826087 277.664347826087 53.510347826087 311.9269565217392L293.2486956521739 551.6658260869565C317.7208695652174 576.1378956521739 350.9139130434783 589.8862173913044 385.5208695652174 589.8862173913044C420.1304347826087 589.8862173913044 453.3208695652174 576.1378956521739 477.7930434782609 551.6658260869565C502.2652173913043 527.193652173913 516.015652173913 494.0021739130435 516.015652173913 459.3933913043478C516.015652173913 424.7846086956522 502.2652173913043 391.5931304347827 477.7930434782609 367.1209565217391L237.7940869565217 127.3826086956522C223.1120869565218 112.7008695652174 203.1986086956522 104.4521739130436 182.4349565217391 104.4521739130436C161.6710434782609 104.4521739130436 141.7578260869565 112.7008695652174 127.0755652173913 127.3826086956522C112.3933043478261 142.0643478260869 104.1448695652174 161.9765217391304 104.1448695652174 182.7417391304348C104.1448695652174 203.504347826087 112.3933043478261 223.4191304347826 127.0755652173913 238.1008695652174L348.5634782608696 459.3286956521739C358.7582608695652 469.5104347826087 375.2765217391305 469.5007826086957 385.4582608695652 459.3070434782609C395.64 449.1135652173913 395.6295652173913 432.5960869565218 385.4347826086957 422.4146086956522L163.968 201.2086956521739C159.0772173913043 196.3121739130435 156.3187826086957 189.6626086956522 156.3187826086957 182.7417391304348C156.3187826086957 175.8156521739131 159.0704347826087 169.1713043478261 163.968 164.2747826086957C168.8658260869565 159.3756521739131 175.5086086956522 156.6260869565218 182.4349565217391 156.6260869565218C189.3613043478261 156.6260869565218 196.0038260869565 159.3756521739131 200.901652173913 164.2747826086957L440.9008695652174 404.0136521739131C455.5826086956521 418.700347826087 463.8417391304347 438.6266086956522 463.8417391304347 459.3933913043478C463.8417391304347 480.1648695652174 455.5904347826087 500.085652173913 440.9008695652174 514.7731304347826C426.2139130434783 529.4608695652174 406.2939130434783 537.7121739130434 385.5208695652174 537.7121739130434z" />
    <glyph glyph-name="comment"
      unicode="&#xEA09;"
      horiz-adv-x="600" d="M100.0071428571429 528.5644285714286C92.4291428571429 528.5644285714286 85.1622857142857 525.5541428571429 79.8038571428571 520.1961428571428C74.4458571428571 514.8377142857144 71.4355714285714 507.5708571428571 71.4355714285714 499.9928571428571V111.8271428571429L136.947 177.339C142.305 182.6970000000001 149.5722857142857 185.7072857142858 157.1498571428572 185.7072857142858H500.0057142857142C507.5828571428571 185.7072857142858 514.8514285714285 188.7175714285714 520.2085714285714 194.0755714285715C525.5699999999999 199.4340000000001 528.5785714285714 206.7012857142857 528.5785714285714 214.2788571428572V499.9928571428571C528.5785714285714 507.5704285714286 525.5699999999999 514.8377142857144 520.2085714285714 520.1961428571428C514.8514285714285 525.5541428571429 507.5828571428571 528.5644285714286 500.0057142857142 528.5644285714286H100.0071428571429zM39.3978 560.6022C55.4725714285714 576.6767142857143 77.274 585.7073142857142 100.0071428571429 585.7073142857142H500.0057142857142C522.7414285714285 585.7073142857142 544.5428571428571 576.6767142857143 560.6142857142856 560.6022C576.6899999999999 544.5274285714286 585.7199999999999 522.726 585.7199999999999 499.9928571428571V214.2788571428572C585.7199999999999 191.5457142857143 576.6899999999999 169.7442857142857 560.6142857142856 153.6685714285715C544.5428571428571 137.5971428571429 522.7414285714285 128.5628571428572 500.0057142857142 128.5628571428572H168.9844285714286L63.0672857142857 22.6457142857143C54.8957142857143 14.4771428571429 42.6067285714286 12.03 31.9303285714286 16.4528571428572C21.2538857142857 20.8757142857144 14.2926857142857 31.2942857142857 14.2926857142857 42.8485714285715V499.9928571428571C14.2926857142857 522.726 23.3232857142857 544.5274285714286 39.3978 560.6022z" />
    <glyph glyph-name="compare"
      unicode="&#xEA0A;"
      horiz-adv-x="685.7142857142858" d="M371.4285714285715 571.4285714285714C371.4285714285715 587.2081428571429 358.6371428571429 600 342.8571428571429 600C327.0771428571429 600 314.2857142857143 587.2081428571429 314.2857142857143 571.4285714285714V485.7142857142857H157.1428571428572H71.4285714285714C55.6491428571429 485.7142857142857 42.8571428571429 472.9222857142857 42.8571428571429 457.1428571428571C42.8571428571429 441.3634285714286 55.6491428571429 428.5714285714286 71.4285714285714 428.5714285714286H124.3214285714286C83.3082857142857 355.386 16.773 230.1628571428571 2.6765 164.2857142857143C0.9406885714286 156.1742857142857 0 148.9628571428571 0 142.8571428571428C0 135.5742857142857 0.5994971428571 128.4171428571428 1.7560771428571 121.4285714285714C13.1289142857143 52.6971428571428 78.3665714285714 0 157.1428571428572 0C235.9191428571429 0 301.1571428571429 52.6971428571428 312.5285714285714 121.4285714285714C313.6857142857143 128.4171428571428 314.2857142857143 135.5742857142857 314.2857142857143 142.8571428571428C314.2857142857143 148.9628571428571 313.3457142857144 156.1742857142857 311.6085714285715 164.2857142857143C297.5114285714286 230.1628571428571 230.9774285714286 355.386 189.9642857142857 428.5714285714286H314.2857142857143H342.8571428571429H371.4285714285715H495.7485714285714C454.7371428571429 355.386 388.2028571428572 230.1628571428571 374.1057142857144 164.2857142857143C372.3685714285715 156.1742857142857 371.4285714285715 148.9628571428571 371.4285714285715 142.8571428571428C371.4285714285715 135.5742857142857 372.0285714285715 128.4171428571428 373.1857142857143 121.4285714285714C384.5571428571429 52.6971428571428 449.7942857142858 0 528.5714285714286 0C607.3485714285715 0 672.5857142857144 52.6971428571428 683.9571428571429 121.4285714285714C685.1142857142858 128.4171428571428 685.7142857142858 135.5742857142857 685.7142857142858 142.8571428571428C685.7142857142858 148.9628571428571 684.7742857142857 156.1742857142857 683.037142857143 164.2857142857143C668.94 230.1628571428571 602.4057142857143 355.386 561.3942857142857 428.5714285714286H600C615.78 428.5714285714286 628.5714285714286 441.3634285714286 628.5714285714286 457.1428571428571C628.5714285714286 472.9222857142857 615.78 485.7142857142857 600 485.7142857142857H528.5714285714286H371.4285714285715V571.4285714285714zM266.3825714285715 168.2685714285714C266.7851428571429 166.8857142857143 267.1582857142858 165.5571428571428 267.5037142857143 164.2857142857143H46.782C47.1274285714286 165.5571428571428 47.5005714285714 166.8857142857143 47.9031428571429 168.2685714285714C51.6262857142857 181.0657142857143 57.1648571428572 196.3228571428571 64.1928571428572 213.42C78.2408571428572 247.5971428571429 97.242 286.7342857142857 116.6271428571429 324.1622857142857C130.7377142857143 351.4062857142857 144.8728571428572 377.4034285714286 157.1428571428572 399.4460000000001C169.4128571428572 377.4034285714286 183.548 351.4062857142857 197.6585714285714 324.1622857142857C217.0437142857143 286.7342857142857 236.0448571428572 247.5971428571429 250.0928571428572 213.42C257.1208571428572 196.3228571428571 262.6594285714286 181.0657142857143 266.3825714285715 168.2685714285714zM157.1428571428572 42.8571428571428C214.7608571428572 42.8571428571428 257.7431428571429 78.6857142857143 268.6991428571429 121.4285714285714H45.5865714285714C56.5425714285714 78.6857142857143 99.5248571428572 42.8571428571428 157.1428571428572 42.8571428571428zM488.0571428571429 324.1622857142857C502.1657142857143 351.4062857142857 516.3028571428572 377.4034285714286 528.5714285714286 399.4460000000001C540.84 377.4034285714286 554.9771428571429 351.4062857142857 569.0857142857143 324.1622857142857C588.4714285714285 286.7342857142857 607.4742857142858 247.5971428571429 621.5228571428571 213.42C628.5485714285714 196.3228571428571 634.0885714285715 181.0657142857143 637.8114285714286 168.2685714285714C638.2142857142857 166.8857142857143 638.5857142857143 165.5571428571428 638.9314285714286 164.2857142857143H418.2114285714286C418.5571428571429 165.5571428571428 418.9285714285715 166.8857142857143 419.3314285714286 168.2685714285714C423.0542857142858 181.0657142857143 428.5942857142857 196.3228571428571 435.6200000000001 213.42C449.6685714285715 247.5971428571429 468.6714285714286 286.7342857142857 488.0571428571429 324.1622857142857zM528.5714285714286 42.8571428571428C470.9542857142857 42.8571428571428 427.9714285714286 78.6857142857143 417.0142857142858 121.4285714285714H640.1285714285714C629.1714285714286 78.6857142857143 586.1885714285714 42.8571428571428 528.5714285714286 42.8571428571428z" />
    <glyph glyph-name="copy"
      unicode="&#xEA0B;"
      horiz-adv-x="600" d="M274.987875 349.993875C261.18075 349.993875 249.98775 338.800875 249.98775 324.99375V99.99375C249.98775 86.18625 261.18075 74.9925000000001 274.987875 74.9925000000001H499.9875C513.795 74.9925000000001 524.98875 86.18625 524.98875 99.99375V324.99375C524.98875 338.800875 513.795 349.993875 499.9875 349.993875H274.987875zM199.987875 324.99375C199.987875 366.415125 233.5665 399.99375 274.987875 399.99375H499.9875C541.41 399.99375 574.9875 366.415125 574.9875 324.99375V99.99375C574.9875 58.57125 541.41 24.99375 499.9875 24.99375H274.987875C233.5665 24.99375 199.987875 58.57125 199.987875 99.99375V324.99375zM100.012125 525.006C93.38175 525.006 87.022875 522.372 82.334625 517.68375C77.646 512.9955 75.012375 506.636625 75.012375 500.00625V275.00625C75.012375 268.3755 77.646 262.0170000000001 82.334625 257.328375C87.022875 252.640125 93.38175 250.006125 100.012125 250.006125H125.01225C138.819375 250.006125 150.012375 238.813125 150.012375 225.006C150.012375 211.2 138.819375 200.00625 125.01225 200.00625H100.012125C80.121 200.00625 61.044375 207.9075 46.97925 221.97375C32.913975 236.0385 25.0122 255.11475 25.0122 275.00625V500.00625C25.0122 519.897375 32.913975 538.974 46.97925 553.039125C61.044375 567.1043625 80.121 575.0061 100.012125 575.0061H325.0121250000001C344.9036250000001 575.0061 363.979875 567.104325 378.045 553.039125C392.1112500000001 538.974 400.0125 519.897375 400.0125 500.00625V475.006125C400.0125 461.199 388.81875 450.006 375.01125 450.006C361.20525 450.006 350.01225 461.199 350.01225 475.006125V500.00625C350.01225 506.636625 347.37825 512.9955 342.6900000000001 517.68375C338.001375 522.372 331.6425 525.006 325.0121250000001 525.006H100.012125z" />
    <glyph glyph-name="delete"
      unicode="&#xEA0C;"
      horiz-adv-x="600" d="M525 475H475H425V500C425 520 417.5 540 402.5000000000001 552.5C390 567.5 370 575 350 575H250C230 575 210 567.5 197.5 552.5S175 520 175 500V475H125H75C60 475 50 465 50 450C50 435 60 425 75 425H100V100C100 80 107.5 60 122.5 47.5C135 32.5 155 25 175 25H425C445 25 465.0000000000001 32.5 477.5000000000001 47.5C492.5000000000001 62.5 500 80 500 100V425H525C540 425 550 435 550 450C550 465 540 475 525 475zM225 500C225 507.5 227.5 512.5 232.5000000000001 517.5C237.5 522.5 242.5 525 250 525H350C357.5 525 362.5 522.5 367.5 517.5C372.5 512.5 375 507.5 375 500V475H225V500zM450 100C450 92.5 447.5 87.5 442.5 82.5S432.5 75 425 75H175C167.5 75 162.5 77.5 157.5 82.5C152.5 87.5 150 92.5 150 100V425H450V100zM250 150C265 150 275 160 275 175V325C275 340 265 350 250 350S225 340 225 325V175C225 160 235 150 250 150zM350 150C365 150 375 160 375 175V325C375 340 365 350 350 350S325 340 325 325V175C325 160 335 150 350 150z" />
    <glyph glyph-name="download"
      unicode="&#xEA0D;"
      horiz-adv-x="600" d="M75 250C88.807 250 100 238.8075 100 225V125C100 118.37 102.634 112.01 107.32225 107.3225C112.01075 102.635 118.3695 100 125 100H475C481.63 100 487.99 102.635 492.6775 107.3225C497.365 112.01 500 118.37 500 125V225C500 238.8075 511.1925000000001 250 525 250C538.8075 250 550 238.8075 550 225V125C550 105.1075 542.0975000000001 86.0324999999999 528.0325 71.9675C513.9675000000001 57.9024999999999 494.8925 50 475 50H125C105.10875 50 86.03225 57.9024999999999 71.967 71.9675C57.90175 86.0324999999999 50 105.11 50 125V225C50 238.8075 61.193 250 75 250zM157.32225 367.67775C167.0855 377.44075 182.9145 377.44075 192.67775 367.67775L300 260.355L407.3225 367.67775C417.085 377.44075 432.915 377.44075 442.6775 367.67775C452.44 357.9145 452.44 342.0850000000001 442.6775 332.3225L317.6775 207.3225C307.915 197.56 292.0850000000001 197.56 282.3225 207.3225L157.32225 332.3225C147.55925 342.0850000000001 147.55925 357.9145 157.32225 367.67775zM300 550C313.8075 550 325 538.807 325 525V225C325 211.1925 313.8075 200 300 200C286.1925 200 275 211.1925 275 225V525C275 538.807 286.1925 550 300 550z" />
    <glyph glyph-name="edit"
      unicode="&#xEA0E;"
      horiz-adv-x="627.2727272727273" d="M95.4545454545455 490.9090909090909C88.2212727272727 490.9090909090909 81.2844545454546 488.0356363636363 76.1697272727273 482.9211818181818C71.0552727272727 477.8064545454545 68.1818181818182 470.8696363636363 68.1818181818182 463.6363636363636V81.8181818181818C68.1818181818182 74.5854545454546 71.0552727272727 67.6472727272727 76.1697272727273 62.5336363636363C81.2844545454546 57.42 88.2212727272727 54.5454545454545 95.4545454545455 54.5454545454545H477.2727272727273C484.5054545454545 54.5454545454545 491.4436363636364 57.42 496.5572727272727 62.5336363636363C501.6709090909091 67.6472727272727 504.5454545454546 74.5854545454546 504.5454545454546 81.8181818181818V227.4545454545455C504.5454545454546 242.5172727272727 516.7554545454545 254.7272727272727 531.8181818181819 254.7272727272727C546.8809090909091 254.7272727272727 559.0909090909091 242.5172727272727 559.0909090909091 227.4545454545455V81.8181818181818C559.0909090909091 60.1172727272727 550.47 39.3081818181818 535.1263636363636 23.9645454545454C519.7827272727274 8.6209090909091 498.9736363636364 0 477.2727272727273 0H95.4545454545455C73.755 0 52.9442727272727 8.6209090909091 37.6003636363636 23.9645454545454C22.2564545454545 39.3081818181818 13.6363636363636 60.1172727272727 13.6363636363636 81.8181818181818V463.6363636363636C13.6363636363636 485.3359090909091 22.2564545454545 506.1466363636364 37.6003636363636 521.4905454545454C52.9442727272727 536.8344545454545 73.755 545.4545454545455 95.4545454545455 545.4545454545455H241.0909090909091C256.1530909090909 545.4545454545455 268.3636363636364 533.244 268.3636363636364 518.1818181818182C268.3636363636364 503.1196363636363 256.1530909090909 490.9090909090909 241.0909090909091 490.9090909090909H95.4545454545455zM457.9881818181818 592.0120090909091C468.6381818181818 602.6626663636364 485.9072727272728 602.6626663636364 496.5572727272727 592.0120090909091L605.6481818181818 482.9211818181818C616.2981818181818 472.2703636363636 616.2981818181818 455.0023636363636 605.6481818181818 444.3515454545455L332.9209090909091 171.6245454545455C327.8072727272728 166.5109090909091 320.8690909090909 163.6363636363636 313.6363636363637 163.6363636363636H204.5454545454546C189.4832727272728 163.6363636363636 177.2727272727273 175.8463636363636 177.2727272727273 190.9090909090909V300C177.2727272727273 307.2327272727273 180.1461818181818 314.1709090909091 185.2606363636364 319.2845454545455L457.9881818181818 592.0120090909091zM231.8181818181818 288.7036363636364V218.1818181818182H302.3400000000001L547.7945454545454 463.6363636363636L477.2727272727273 534.1579090909091L231.8181818181818 288.7036363636364z" />
    <glyph glyph-name="fb"
      unicode="&#xEA0F;"
      horiz-adv-x="337.5" d="M118.933875 531.072C147.0645 559.202625 185.217375 575.0061 225 575.0061H300C313.807125 575.0061 325.000125 563.8132125 325.000125 550.006125V450.006C325.000125 436.198875 313.807125 425.00625 300 425.00625H225V375.006H300C307.698375 375.006 314.967375 371.45925 319.705125 365.391375C324.442875 359.3235 326.120625 351.411375 324.2535000000001 343.942875L299.253375 243.9427500000001C296.47125 232.8135000000001 286.471875 225.006 274.9998750000001 225.006H225V50.00625C225 36.19875 213.807 25.005 199.999875 25.005H100.000125C86.193 25.005 75 36.19875 75 50.00625V225.006H25.0000125C11.1928875 225.006 0 236.199 0 250.006125V350.00625C0 363.813375 11.1928875 375.006 25.0000125 375.006H75V425.00625C75 464.7885 90.803625 502.94175 118.933875 531.072zM225 525.006C198.4785 525.006 173.043 514.470375 154.28925 495.716625C135.5355 476.96325 124.999875 451.52775 124.999875 425.00625V350.00625C124.999875 336.199125 113.80725 325.006125 100.000125 325.006125H49.999875V275.00625H100.000125C113.80725 275.00625 124.999875 263.81325 124.999875 250.006125V75.0074999999999H175.000125V250.006125C175.000125 263.81325 186.19275 275.00625 199.999875 275.00625H255.48075L267.980625 325.006125H199.999875C186.19275 325.006125 175.000125 336.199125 175.000125 350.00625V425.00625C175.000125 438.267 180.26775 450.98475 189.644625 460.36125C199.0215 469.738125 211.73925 475.006125 225 475.006125H274.9998750000001V525.006H225z" />
    <glyph glyph-name="filter"
      unicode="&#xEA10;"
      horiz-adv-x="685.7142857142857" d="M31.2395571428571 569.1609428571428C35.9211857142857 579.2513571428572 46.0337142857143 585.7073142857142 57.1572857142857 585.7073142857142H628.5857142857143C639.7114285714285 585.7073142857142 649.8214285714286 579.2513571428572 654.5014285714285 569.1609428571428C659.1857142857142 559.0705285714286 657.5828571428572 547.1802857142857 650.4 538.6864285714286L428.5842857142857 276.3887142857143V42.8485714285715C428.5842857142857 32.9485714285715 423.4585714285714 23.7514285714286 415.0354285714286 18.5442857142858C406.6118571428571 13.3414285714285 396.0934285714285 12.8657142857144 387.237 17.2971428571429L272.9511428571429 74.4385714285714C263.2714285714286 79.2771428571429 257.157 89.1728571428572 257.157 99.9942857142858V276.3887142857143L35.3409 538.6864285714286C28.1581285714286 547.1802857142857 26.5578857142857 559.0705285714286 31.2395571428571 569.1609428571428zM118.7374285714286 528.5644285714286L307.545 305.2992857142857C311.9065714285714 300.1414285714286 314.3001428571428 293.6052857142858 314.3001428571428 286.8501428571429V117.6514285714287L371.4428571428571 89.0785714285715V286.8501428571429C371.4428571428571 293.6052857142858 373.8364285714286 300.1414285714286 378.1979999999999 305.2992857142857L567.0042857142856 528.5644285714286H118.7374285714286z" />
    <glyph glyph-name="home"
      unicode="&#xEA11;"
      horiz-adv-x="600" d="M284.63925 569.7399C293.6670000000001 576.7615125 306.308625 576.7615125 315.336375 569.7399L540.3375 394.74C546.4275 390.003375 549.98625 382.720875 549.98625 375.006V100.005C549.98625 80.115 542.085 61.0387500000001 528.0225 46.9725C513.9562500000001 32.90625 494.88 25.005 474.98625 25.005H124.987875C105.096375 25.005 86.020125 32.90625 71.954625 46.9725C57.8895 61.0387500000001 49.987875 80.115 49.987875 100.005V375.006C49.987875 382.720875 53.549625 390.003375 59.63925 394.74L284.63925 569.7399zM99.98775 362.779125V100.005C99.98775 93.375 102.62175 87.01875 107.31 82.3275C111.998625 77.64 118.3575 75.0074999999999 124.987875 75.0074999999999H474.98625C481.62 75.0074999999999 487.9762500000001 77.64 492.6637500000001 82.3275C497.355 87.01875 499.9875 93.375 499.9875 100.005V362.779125L299.987625 518.33475L99.98775 362.779125zM199.987875 300.0060000000001C199.987875 313.813125 211.1805 325.006125 224.987625 325.006125H374.987625C388.7962500000001 325.006125 399.98625 313.813125 399.98625 300.0060000000001V50.00625C399.98625 36.19875 388.7962500000001 25.005 374.987625 25.005C361.1805 25.005 349.987875 36.19875 349.987875 50.00625V275.00625H249.98775V50.00625C249.98775 36.19875 238.79475 25.005 224.987625 25.005C211.1805 25.005 199.987875 36.19875 199.987875 50.00625V300.0060000000001z" />
    <glyph glyph-name="left"
      unicode="&#xEA12;"
      horiz-adv-x="342.85714285714283" d="M330.3047142857143 587.4474428571428C347.0412857142857 570.7107 347.0412857142857 543.5751428571429 330.3047142857143 526.8381428571429L103.4661428571429 300L330.3047142857143 73.1614285714286C347.0412857142857 56.4257142857143 347.0412857142857 29.2885714285715 330.3047142857143 12.5528571428572C313.5677142857143 -4.1828571428571 286.4322857142857 -4.1828571428571 269.6952857142857 12.5528571428572L12.5525571428571 269.6952857142857C-4.18419 286.4322857142858 -4.18419 313.5677142857143 12.5525571428571 330.3047142857143L269.6952857142857 587.4474428571428C286.4322857142857 604.18419 313.5677142857143 604.18419 330.3047142857143 587.4474428571428z" />
    <glyph glyph-name="linkedin"
      unicode="&#xEA13;"
      horiz-adv-x="640" d="M426.72 360.0064C391.3564 360.0064 357.4428000000001 345.9588 332.438 320.954C307.4328 295.9492 293.3852 262.0352 293.3852 226.6732V66.672H346.7188V226.6732C346.7188 247.8904 355.1472 268.2388000000001 370.15 283.2416C385.1532000000001 298.2444 405.5 306.6732 426.72 306.6732C447.936 306.6732 468.284 298.2444 483.288 283.2416C498.292 268.2388000000001 506.72 247.8904 506.72 226.6732V66.672H560.052V226.6732C560.052 262.0352 546.004 295.9492 521 320.954C495.996 345.9588 462.08 360.0064 426.72 360.0064zM426.72 413.3400000000001C377.2116 413.3400000000001 329.7324 393.6732 294.7256 358.6664C259.7188 323.6596 240.052 276.1804 240.052 226.6732V40.008C240.052 25.28 251.9912 13.34 266.7188 13.34H373.3852000000001C388.1128 13.34 400.052 25.28 400.052 40.008V226.6732C400.052 233.7456 402.86 240.5284000000001 407.8640000000001 245.5292C412.8640000000001 250.5304000000001 419.648 253.3400000000001 426.72 253.3400000000001C433.792 253.3400000000001 440.572 250.5304000000001 445.576 245.5292C450.576 240.5284000000001 453.384 233.7456 453.384 226.6732V40.008C453.384 25.28 465.324 13.34 480.052 13.34H586.72C601.448 13.34 613.384 25.28 613.384 40.008V226.6732C613.384 276.1804 593.72 323.6596 558.712 358.6664C523.704 393.6732 476.224 413.3400000000001 426.72 413.3400000000001zM26.71876 360.0064C26.71876 374.7340000000001 38.65784 386.6732 53.3856 386.6732H160.052C174.7796 386.6732 186.7188 374.7340000000001 186.7188 360.0064V40.008C186.7188 25.28 174.7796 13.34 160.052 13.34H53.3856C38.65784 13.34 26.71876 25.28 26.71876 40.008V360.0064zM80.052 333.34V66.672H133.3856V333.34H80.052zM106.7188 520.0064C91.9912 520.0064 80.052 508.0676 80.052 493.34C80.052 478.6124 91.9912 466.6732 106.7188 466.6732C121.4464 466.6732 133.3856 478.6124 133.3856 493.34C133.3856 508.0676 121.4464 520.0064 106.7188 520.0064zM26.71876 493.34C26.71876 537.5228 62.536 573.33984 106.7188 573.33984C150.9016 573.33984 186.7188 537.5228 186.7188 493.34C186.7188 449.1572 150.9016 413.3400000000001 106.7188 413.3400000000001C62.536 413.3400000000001 26.71876 449.1572 26.71876 493.34z" />
    <glyph glyph-name="map"
      unicode="&#xEA14;"
      horiz-adv-x="500" d="M250 550C196.95675 550 146.086 528.92875 108.57875 491.42125C71.07125 453.914 50 403.04325 50 350C50 272.5475 100.3935 197.3950000000001 155.64875 139.0675C182.76525 110.445 209.96675 87.0124999999999 230.417 70.73C238.02775 64.6675 244.6755 59.62 250 55.6849999999999C255.325 59.62 261.9725 64.6675 269.5825000000001 70.73C290.0325000000001 87.0124999999999 317.235 110.445 344.35 139.0675C399.6075 197.3950000000001 450 272.5475 450 350C450 403.04325 428.9275 453.914 391.4225 491.42125C353.915 528.92875 303.0425 550 250 550zM250 25C236.1325 4.1975 236.119 4.2075 236.119 4.2075L236.0475 4.255L235.881 4.3675000000001L235.308 4.755C234.82125 5.0849999999999 234.127 5.5600000000001 233.2390000000001 6.175C231.46325 7.405 228.9115 9.1975 225.69475 11.52C219.26375 16.165 210.159 22.9449999999999 199.2705 31.615C177.53325 48.9250000000001 148.48475 73.9300000000001 119.35125 104.6825C62.1065 165.105 0 252.4525 0 350C0.000001490115 416.304 26.33925 479.8925 73.22325 526.77675C120.1075 573.66075 183.696 600 250 600C316.305 600 379.8925 573.66075 426.7775000000001 526.77675C473.66 479.8925 500 416.304 500 350C500 252.4525 437.8925 165.105 380.6500000000001 104.6825C351.5150000000001 73.9300000000001 322.4675 48.9250000000001 300.73 31.615C289.8400000000001 22.9449999999999 280.7375 16.165 274.305 11.52C271.0875000000001 9.1975 268.5375 7.405 266.76 6.175C265.8725 5.5600000000001 265.18 5.0849999999999 264.6925 4.755L264.12 4.3675000000001L263.9525 4.255L263.9 4.22C263.9 4.22 263.8675 4.1975 250 25zM250 25L263.8675 4.1975C255.47 -1.4 244.5165 -1.39 236.119 4.2075L250 25zM250 400C222.38575 400 200 377.6142500000001 200 350C200 322.385 222.38575 300 250 300C277.615 300 300 322.385 300 350C300 377.6142500000001 277.615 400 250 400zM150 350C150 405.2285 194.7715 450 250 450C305.2275 450 350 405.2285 350 350C350 294.7725000000001 305.2275 250 250 250C194.7715 250 150 294.7725000000001 150 350z" />
    <glyph glyph-name="menu"
      unicode="&#xEA15;"
      horiz-adv-x="600" d="M50 300C50 313.8075 61.193 325 75 325H525C538.8075 325 550 313.8075 550 300C550 286.1925 538.8075 275 525 275H75C61.193 275 50 286.1925 50 300zM50 450C50 463.807 61.193 475 75 475H525C538.8075 475 550 463.807 550 450C550 436.193 538.8075 425 525 425H75C61.193 425 50 436.193 50 450zM50 150C50 163.8075 61.193 175 75 175H525C538.8075 175 550 163.8075 550 150C550 136.1925000000001 538.8075 125 525 125H75C61.193 125 50 136.1925000000001 50 150z" />
    <glyph glyph-name="menu-btn"
      unicode="&#xEA16;"
      horiz-adv-x="750" d="M0 525C0 483.578625 33.578625 450 75 450C116.421375 450 150 483.578625 150 525C150 566.421375 116.421375 600 75 600C33.578625 600 0 566.421375 0 525zM225 562.5H750V487.5H225V562.5zM750 337.5H225V262.5H750V337.5zM225 37.5H750V112.5H225V37.5zM0 75C0 33.5775 33.578625 0 75 0C116.421375 0 150 33.5775 150 75C150 116.4225 116.421375 150 75 150C33.578625 150 0 116.4225 0 75zM75 225C33.578625 225 0 258.578625 0 300C0 341.421375 33.578625 375 75 375C116.421375 375 150 341.421375 150 300C150 258.578625 116.421375 225 75 225z" />
    <glyph glyph-name="phone"
      unicode="&#xEA17;"
      horiz-adv-x="600" d="M182.5000909090909 538.6595454545454C177.4660909090909 542.9888181818181 171.0291818181818 545.34 164.3899090909091 545.2745454545454C164.3001818181818 545.2737272727272 164.2101818181818 545.2734545454546 164.1204545454546 545.2734545454546H82.0489090909091C78.2541818181818 545.2682727272727 74.5017272727273 544.4738181818182 71.0304545454546 542.9405454545455C67.5556363636364 541.4056363636364 64.4386363636364 539.1640909090909 61.8774545454546 536.3585454545455C59.3165454545455 533.553 57.3679090909091 530.2448181818181 56.1553636363636 526.6448181818182C54.9619090909091 523.1018181818182 54.5075454545455 519.3526363636364 54.8195454545455 515.6285454545455C63.3766363636364 435.4150909090909 90.6891818181818 358.3396363636364 134.55 290.6345454545455C134.5726363636364 290.599090909091 134.5952727272727 290.5636363636364 134.6176363636364 290.5281818181818C134.6383636363636 290.4981818181818 134.6588181818182 290.4654545454545 134.6792727272728 290.4327272727273C174.5348181818182 227.7109090909091 227.7114545454546 174.5345454545454 290.4327272727273 134.6781818181818C290.5036363636364 134.6345454545454 290.5745454545455 134.5881818181818 290.6454545454546 134.5418181818182C358.0336363636364 90.8427272727273 434.7218181818182 63.5372727272727 514.5627272727273 54.8181818181819C518.2881818181819 54.51 522.0409090909092 54.9681818181817 525.5836363636364 56.1654545454545C529.1918181818182 57.3872727272727 532.5081818181819 59.3481818181818 535.3145454545455 61.9227272727272C538.1236363636364 64.5 540.36 67.6336363636364 541.8872727272727 71.1245454545455C543.4145454545454 74.6154545454546 544.1945454545455 78.3872727272727 544.1781818181818 82.1972727272727L544.1781818181818 82.309090909091V164.3945454545454C544.1781818181818 164.6209090909091 544.180909090909 164.8472727272727 544.1863636363636 165.0736363636364C544.3527272727273 171.7827272727273 542.0481818181818 178.32 537.709090909091 183.4390909090909C533.3918181818182 188.5336363636364 527.3618181818182 191.8745454545454 520.7536363636364 192.8318181818182C492.4909090909091 196.5709090909091 464.7381818181819 203.49 438.0245454545455 213.4581818181818L437.9645454545455 213.48C433.0663636363637 215.3209090909091 427.7454545454546 215.7190909090909 422.6290909090909 214.6281818181818C417.5345454545455 213.5427272727273 412.8545454545455 211.0227272727273 409.1427272727273 207.3709090909091C409.1263636363637 207.3545454545454 409.1127272727273 207.3381818181818 409.0963636363636 207.3245454545455L374.4545454545455 172.6827272727273C365.7463636363637 163.9718181818182 352.29 162.1554545454545 341.5827272727273 168.2454545454546C268.7991818181818 209.6290909090909 208.5354545454546 269.8936363636364 167.1496363636364 342.6769090909091C161.0612727272727 353.3844545454546 162.8776363636364 366.84 171.5874545454546 375.5498181818182L206.2726363636364 410.2347272727273C209.9274545454546 413.9476363636363 212.4466363636364 418.6270909090909 213.5337272727273 423.723C214.6246363636364 428.8393636363636 214.2264545454546 434.161090909091 212.3858181818182 439.0579090909091L212.3626363636364 439.1195454545455C202.3952727272728 465.8301818181818 195.4764545454546 493.5812727272727 191.7373636363636 521.8445454545455C190.7888181818182 528.3793636363637 187.5084545454546 534.3523636363636 182.5000909090909 538.6595454545454zM163.9996363636364 599.99734638C183.8656363636364 600.1570153636363 203.1171818181818 593.1063818181818 218.1823636363636 580.1503909090909C233.2849090909091 567.1622727272727 243.1494545454546 549.1254545454545 245.9372727272728 529.4020909090909C245.949 529.3183636363636 245.9604545454545 529.2343636363637 245.9716363636364 529.1503636363636C249.1652727272728 504.9362727272728 255.087 481.161 263.6236363636364 458.2775454545455C269.1343636363636 443.5971818181818 270.3248181818182 427.6450909090909 267.0540000000001 412.3088181818182C263.7807272727273 396.9600000000001 256.1757272727273 382.8714545454546 245.1409090909091 371.7122727272728C245.1049090909091 371.676 245.0689090909091 371.6397272727273 245.0329090909092 371.6037272727273L225.4118181818182 351.9826363636364C257.5854545454546 301.5081818181818 300.4145454545455 258.6790909090909 350.8881818181818 226.5054545454546L370.5081818181818 246.1281818181818C370.5463636363637 246.1636363636364 370.5818181818182 246.1990909090909 370.6172727272728 246.2345454545455C381.7772727272728 257.2690909090909 395.8663636363637 264.8754545454546 411.2154545454545 268.1481818181818C426.5536363636364 271.4209090909091 442.5081818181819 270.229090909091 457.1918181818182 264.7145454545455C480.0709090909091 256.1809090909091 503.8445454545454 250.26 528.0572727272728 247.0663636363637C528.1363636363636 247.0554545454546 528.2181818181818 247.0445454545454 528.3 247.0336363636364C548.2363636363636 244.219090909091 566.4463636363637 234.1772727272727 579.4609090909091 218.8172727272727C592.3963636363636 203.55 599.3072727272727 184.0854545454545 598.9036363636365 164.0890909090909V82.3527272727273C598.9390909090909 70.9445454545454 596.5990909090909 59.6536363636363 592.0281818181818 49.1999999999999C587.449090909091 38.7272727272728 580.7318181818182 29.3263636363636 572.3100000000001 21.6C563.8881818181818 13.8709090909091 553.9418181818182 7.9881818181818 543.1145454545455 4.3254545454545C532.2872727272727 0.6654545454545 520.8136363636363 -0.6954545454546 509.4299999999999 0.3327272727273C509.3427272727272 0.340909090909 509.2554545454545 0.3490909090908 509.1681818181818 0.3572727272727C509.0890909090909 0.3654545454546 509.0127272727273 0.3736363636364 508.9363636363637 0.3818181818182C420.5263636363636 9.99 335.599090909091 40.189090909091 260.9757272727273 88.56C191.5543636363636 132.6954545454546 132.6902727272728 191.5609090909091 88.5559090909091 260.9809090909091C40.0150909090909 335.9462727272728 9.8060727272727 421.2870000000001 0.3750818181818 510.0968181818182C0.3599836363636 510.2389090909091 0.3460009090909 510.3812727272727 0.3331336363636 510.5236363636363C-0.6925118181818 521.8734545454545 0.6563454545455 533.3121818181818 4.2937909090909 544.1121818181819C7.9312636363636 554.9121818181818 13.7776363636364 564.8361818181818 21.4606909090909 573.2528454545454C29.1436363636364 581.6694545454545 38.4951818181818 588.3940909090909 48.9193636363636 592.9986C59.3438181818182 597.6031090909091 70.6126363636364 599.9866018636363 82.0088181818182 599.9973350972728L163.9996363636364 599.99734638z" />
    <glyph glyph-name="right"
      unicode="&#xEA18;"
      horiz-adv-x="342.85714285714283" d="M12.5525571428571 587.4474428571428C29.2893 604.18419 56.4248571428571 604.18419 73.1618571428571 587.4474428571428L330.3047142857143 330.3047142857143C347.0412857142857 313.5677142857143 347.0412857142857 286.4322857142858 330.3047142857143 269.6952857142857L73.1618571428571 12.5528571428572C56.4248571428571 -4.1828571428571 29.2893 -4.1828571428571 12.5525571428571 12.5528571428572C-4.18419 29.2885714285715 -4.18419 56.4257142857143 12.5525571428571 73.1614285714286L239.391 300L12.5525571428571 526.8381428571429C-4.18419 543.5751428571429 -4.18419 570.7107 12.5525571428571 587.4474428571428z" />
    <glyph glyph-name="rotate"
      unicode="&#xEA19;"
      horiz-adv-x="600" d="M600 347.5C600 347.5 600 350 600 350V500C600 515 590 525 575 525S550 515 550 500V407.5L477.5000000000001 477.5C440.0000000000001 515 390.0000000000001 540 335.0000000000001 547.5C282.5000000000001 555 227.5000000000001 545 180.0000000000001 520C132.5000000000001 495 95.0000000000001 452.5 72.5000000000001 402.5C50.0000000000001 352.5 45.0000000000001 297.5 57.5000000000001 245C70.0000000000001 192.5 97.5000000000001 145 140 109.9999999999999C182.5 75 232.5000000000001 55 287.5000000000001 50C342.5000000000001 47.5 395 62.5 440.0000000000001 92.5C485.0000000000001 122.5 520 167.5 537.5 217.5C542.5 230 535 245 522.5 250C509.9999999999999 255 494.9999999999999 247.5 489.9999999999999 235C474.9999999999999 195 447.5 160 412.4999999999999 135C377.4999999999999 109.9999999999999 332.5 100 289.9999999999999 102.4999999999999C247.4999999999999 105 204.9999999999999 122.5 172.4999999999999 149.9999999999999C139.9999999999999 177.5 117.4999999999999 214.9999999999999 107.4999999999999 257.5C97.4999999999999 299.9999999999999 102.4999999999999 345 119.9999999999999 382.5S165 455 202.5 475C240 495 285 505 327.5 497.5S410 472.5 440.0000000000001 440C440.0000000000001 440 440.0000000000001 440 440.0000000000001 440L512.5 375H425C410 375 400 365 400 350S410 325 425 325H575C575 325 575 325 575 325C577.5 325 580 325 580 325C580 325 582.5 325 582.5 325C582.5 325 585 327.5 585 327.5C587.5000000000001 327.5 587.5000000000001 330 590 330C590 330 590 330 590 330C590 330 590 332.5 592.5000000000001 332.5C592.5000000000001 335 595.0000000000001 335 595.0000000000001 337.5C600 342.5 600 345 600 347.5z" />
    <glyph glyph-name="search"
      unicode="&#xEA1A;"
      horiz-adv-x="600" d="M525 109.9999999999999L407.5 227.5C435.0000000000001 262.5 450 305 450 350C450 460 360 550 250 550S50 460 50 350S140 150 250 150C295 150 340 165.0000000000001 372.5 192.5L490.0000000000001 75C500 65 515 65 525 75S535 100 525 109.9999999999999zM250 200C167.5 200 100 267.5 100 350C100 432.5 167.5 500 250 500S400 432.5 400 350C400 267.5 332.5 200 250 200z" />
    <glyph glyph-name="shopping-cart"
      unicode="&#xEA1B;"
      horiz-adv-x="626.0869565217391" d="M182.6086956521739 52.1739130434783C182.6086956521739 80.9895652173914 205.9677391304348 104.3478260869566 234.7826086956522 104.3478260869566C263.5982608695652 104.3478260869566 286.9565217391305 80.9895652173914 286.9565217391305 52.1739130434783C286.9565217391305 23.3582608695652 263.5982608695652 0 234.7826086956522 0C205.9677391304348 0 182.6086956521739 23.3582608695652 182.6086956521739 52.1739130434783zM469.5652173913043 52.1739130434783C469.5652173913043 80.9895652173914 492.9234782608695 104.3478260869566 521.7391304347826 104.3478260869566C550.5547826086956 104.3478260869566 573.9130434782609 80.9895652173914 573.9130434782609 52.1739130434783C573.9130434782609 23.3582608695652 550.5547826086956 0 521.7391304347826 0C492.9234782608695 0 469.5652173913043 23.3582608695652 469.5652173913043 52.1739130434783zM0 573.9130434782609C0 588.3204782608695 11.6795217391304 600 26.0869565217391 600H130.4347826086957C142.8686086956522 600 153.5741739130435 591.2247391304347 156.014347826087 579.0327913043478L177.9242608695652 469.5652173913044H600C607.7739130434782 469.5652173913044 615.1434782608695 466.0974782608696 620.0999999999999 460.1071304347826C625.0565217391304 454.1170434782609 627.0808695652173 446.228347826087 625.6252173913043 438.5913913043479L583.8495652173913 219.5269565217392C580.2704347826087 201.5113043478261 570.4695652173913 185.3269565217392 556.1608695652174 173.8095652173914C541.9252173913044 162.3495652173914 524.1286956521739 156.2347826086957 505.8626086956522 156.5217391304348H252.7471304347826C234.4792173913044 156.2347826086957 216.6834782608696 162.3495652173914 202.4473043478261 173.8095652173914C188.145652173913 185.324347826087 178.3471304347826 201.4982608695652 174.7651304347826 219.5034782608696C174.7666956521739 219.4982608695652 174.7635652173913 219.5113043478261 174.7651304347826 219.5034782608696L131.1858260869565 437.2382608695653C131.0089565217391 437.9585217391305 130.8620869565217 438.6905217391304 130.7465217391304 439.432695652174L109.0518260869565 547.8260869565217H26.0869565217391C11.6795217391304 547.8260869565217 0 559.5057391304348 0 573.9130434782609zM188.3668695652174 417.3913043478261L225.9349565217392 229.6904347826088C227.127652173913 223.6852173913044 230.3945217391305 218.2904347826087 235.1637391304348 214.4530434782609C239.9329565217392 210.6130434782609 245.9006086956522 208.5730434782609 252.0219130434783 208.6904347826088L252.5217391304348 208.6956521739131H506.0869565217391L506.5878260869565 208.6904347826088C512.7078260869565 208.5730434782609 518.6765217391304 210.6130434782609 523.4452173913044 214.4530434782609C528.1930434782608 218.2747826086957 531.4513043478261 223.6356521739131 532.6565217391304 229.6069565217392L568.4686956521739 417.3913043478261H188.3668695652174z" />
    <glyph glyph-name="time"
      unicode="&#xEA1C;"
      horiz-adv-x="600" d="M300 545.4545454545455C164.4392727272727 545.4545454545455 54.5454545454545 435.5607272727273 54.5454545454545 300C54.5454545454545 164.4381818181818 164.4392727272727 54.5454545454545 300 54.5454545454545C435.5618181818182 54.5454545454545 545.4545454545455 164.4381818181818 545.4545454545455 300C545.4545454545455 435.5607272727273 435.5618181818182 545.4545454545455 300 545.4545454545455zM0 300C0 465.6853636363636 134.3146363636364 600 300 600C465.6845454545455 600 600 465.6853636363636 600 300C600 134.3154545454546 465.6845454545455 0 300 0C134.3146363636364 0 0 134.3154545454546 0 300zM300 490.9090909090909C315.0627272727273 490.9090909090909 327.2727272727273 478.6985454545454 327.2727272727273 463.6363636363636V316.8545454545455L421.2872727272728 269.8472727272727C434.76 263.1109090909091 440.2200000000001 246.7309090909091 433.4836363636364 233.2581818181818C426.7472727272728 219.7854545454545 410.3672727272728 214.3254545454545 396.8945454545455 221.0618181818182L287.8036363636364 275.6072727272728C278.5636363636364 280.2272727272728 272.7272727272728 289.669090909091 272.7272727272728 300V463.6363636363636C272.7272727272728 478.6985454545454 284.9372727272728 490.9090909090909 300 490.9090909090909z" />
    <glyph glyph-name="union"
      unicode="&#xEA1D;"
      horiz-adv-x="600" d="M362.491875 567.7916625C302.049 581.897175 238.6125 575.1412125 182.496375 548.622375C126.38025 522.1034999999999 80.88525 477.381 53.408625 421.727625C25.9324125 366.073875 18.0907125 302.76225 31.1587875 242.086875C44.22675 181.41 77.436 126.94125 125.3865 87.5324999999999C173.337 48.12375 233.208375 26.0962500000001 295.266 25.0275C357.323625 23.9625 417.9187500000001 43.9200000000001 467.19375 81.65625C478.155 90.04875 480.23625 105.7425 471.84375 116.70375C463.4475 127.665 447.7575000000001 129.74625 436.7925 121.35C396.47625 90.47625 346.900125 74.14875 296.125875 75.0225C245.35125 75.8925 196.365375 93.91875 157.13325 126.16125C117.901125 158.40375 90.730125 202.9725 80.038125 252.6142500000001C69.34575 302.2575 75.762 354.058125 98.2425 399.592875C120.723 445.127625 157.94625 481.718625 203.859375 503.416125C249.7725 525.11325 301.6755 530.64075 351.128625 519.100125C400.5825 507.559125 444.675 479.628375 476.2425 439.849875C507.81 400.071375 524.9925000000001 350.782875 524.9925000000001 300.001875V275.0032500000001C524.9925000000001 261.7425 519.7275000000001 249.0247500000001 510.34875 239.647875C500.97375 230.271 488.25375 225.003375 474.99375 225.003375C461.73375 225.003375 449.0175000000001 230.271 439.63875 239.647875C430.26375 249.0247500000001 424.995 261.7425 424.995 275.0032500000001V400.003125C424.995 413.81025 413.8012500000001 425.00325 399.99375 425.00325C386.1900000000001 425.00325 374.998875 413.815125 374.994375 400.012125C354.10275 415.70475 328.134375 425.00325 299.994 425.00325C230.958375 425.00325 174.99375 369.039 174.99375 300.003375C174.99375 230.96775 230.958375 175.005 299.994 175.005C337.19625 175.005 370.60275 191.25375 393.5025 217.0462500000001C396.7125000000001 212.53125 400.3125 208.26375 404.2837500000001 204.2925C423.0375 185.53875 448.4737500000001 175.005 474.99375 175.005C501.5175 175.005 526.9499999999999 185.53875 545.70375 204.2925C564.4575 223.0462500000001 574.995 248.48175 574.995 275.0032500000001V300.0048750000001C574.99125 362.0715 553.99125 422.311875 515.4075 470.93025C476.8275 519.548625 422.9325 553.686 362.491875 567.7916625zM224.994 300.003375C224.994 341.42475 258.572625 375.003375 299.994 375.003375C341.415375 375.003375 374.9940000000001 341.42475 374.9940000000001 300.003375C374.9940000000001 258.582 341.415375 225.003375 299.994 225.003375C258.572625 225.003375 224.994 258.582 224.994 300.003375z" />
    <glyph glyph-name="user"
      unicode="&#xEA1E;"
      horiz-adv-x="600" d="M111.61175 213.3875000000001C135.05375 236.83 166.848 250 200 250H400C433.1525000000001 250 464.9475 236.83 488.3875 213.3875000000001C511.83 189.9475 525 158.1525 525 125V75C525 61.1925 513.8075 50 500 50C486.1925000000001 50 475 61.1925 475 75V125C475 144.89 467.0975 163.9675 453.0325 178.0325C438.9675000000001 192.0975 419.89 200 400 200H200C180.10875 200 161.03225 192.0975 146.967 178.0325C132.90175 163.9675 125 144.89 125 125V75C125 61.1925 113.807 50 100 50C86.193 50 75 61.1925 75 75V125C75 158.1525 88.1695 189.9475 111.61175 213.3875000000001zM300 500C258.5775 500 225 466.42125 225 425C225 383.57875 258.5775 350 300 350C341.4225 350 375 383.57875 375 425C375 466.42125 341.4225 500 300 500zM175 425C175 494.0355 230.9645 550 300 550C369.0350000000001 550 425 494.0355 425 425C425 355.9645000000001 369.0350000000001 300 300 300C230.9645 300 175 355.9645000000001 175 425z" />
    <glyph glyph-name="x-circle"
      unicode="&#xEA1F;"
      horiz-adv-x="600" d="M300 525C175.736 525 75 424.264 75 300C75 175.735 175.736 75 300 75C424.2650000000001 75 525 175.735 525 300C525 424.264 424.2650000000001 525 300 525zM25 300C25 451.87825 148.12175 575 300 575C451.8775 575 575 451.87825 575 300C575 148.1225 451.8775 25 300 25C148.12175 25 25 148.1225 25 300zM392.6775 392.67775C402.44 382.9145 402.44 367.0855 392.6775 357.32225L242.67775 207.3225C232.9145 197.56 217.0855 197.56 207.32225 207.3225C197.55925 217.085 197.55925 232.915 207.32225 242.6775L357.3225 392.67775C367.0850000000001 402.44075 382.915 402.44075 392.6775 392.67775zM207.32225 392.67775C217.0855 402.44075 232.9145 402.44075 242.67775 392.67775L392.6775 242.6775C402.44 232.915 402.44 217.085 392.6775 207.3225C382.915 197.56 367.0850000000001 197.56 357.3225 207.3225L207.32225 357.32225C197.55925 367.0855 197.55925 382.9145 207.32225 392.67775z" />
    <glyph glyph-name="x-icon"
      unicode="&#xEA20;"
      horiz-adv-x="600" d="M467.6775 467.67775C477.44 457.9145 477.44 442.0855 467.6775 432.32225L167.67775 132.3225C157.9145 122.56 142.0855 122.56 132.32225 132.3225C122.55925 142.085 122.55925 157.915 132.32225 167.6775L432.3225 467.67775C442.085 477.44075 457.915 477.44075 467.6775 467.67775zM132.32225 467.67775C142.0855 477.44075 157.9145 477.44075 167.67775 467.67775L467.6775 167.6775C477.44 157.915 477.44 142.085 467.6775 132.3225C457.915 122.56 442.085 122.56 432.3225 132.3225L132.32225 432.32225C122.55925 442.0855 122.55925 457.9145 132.32225 467.67775z" />
    <glyph glyph-name="youtube"
      unicode="&#xEA21;"
      horiz-adv-x="600" d="M268.125 268.125L337.5 305.625L268.125 345zM588.75 444.375L588.75 444.375C585 461.25 575.625 476.25 564.375 489.375C553.1249999999999 500.625 538.125 510 523.125 513.75C523.125 513.75 523.125 513.75 523.125 513.75C510 517.5 489.3749999999999 519.375 466.875 521.25C444.375 523.125 418.125 523.125 393.75 525C367.5 525 345 525 328.125 525C318.75 525 313.125 525 307.5 525C305.625 525 303.75 525 301.875 525L300 525L298.125 525C296.25 525 294.375 525 292.5 525C286.875 525 281.25 525 271.875 525C255 525 232.5 525 208.125 523.125C183.75 523.125 157.5 521.25 135 519.375C112.5 519.375 91.875 515.625 78.75 511.875L78.75 511.875C61.875 508.125 46.875 498.75 35.625 487.5C24.375 476.25 16.875 461.25 13.125 444.375C13.125 444.375 13.125 442.5 13.125 442.5C3.75 397.5 0 352.5 0 305.625C0 258.75 3.75 213.75 11.25 168.75C11.25 168.75 11.25 166.875 11.25 166.875C16.875 150 24.375 136.875 37.5 125.625C48.75 114.375 63.75 104.9999999999999 78.75 101.25L78.75 101.25C91.875 97.5 112.5 95.6249999999999 135 93.75C157.5 91.875 183.75 91.875 208.125 90C232.5 90 255 88.125 271.875 88.125C281.25 88.125 286.875 88.125 292.5 88.125C294.375 88.125 296.25 88.125 298.125 88.125L300 88.125L301.875 88.125C303.7500000000001 88.125 305.625 88.125 307.5000000000001 88.125C313.1250000000001 88.125 318.7500000000001 88.125 328.1250000000001 88.125C345.0000000000001 88.125 367.5000000000001 88.125 391.8750000000001 90C416.2500000000001 90 442.5 91.8750000000001 465 93.75C487.5 95.625 508.125 97.5 521.25 101.25L521.25 101.25C538.125 104.9999999999999 551.25 114.375 562.5 125.625C573.75 136.875 583.125 151.875 586.875 168.75C586.875 168.75 586.875 170.625 586.875 170.625C594.375 215.625 598.125 260.6250000000001 598.125 305.625C600 352.5 596.25 399.375 588.75 444.375zM399.375 285L255.0000000000001 202.5C247.5000000000001 198.75 238.1250000000001 198.75 230.625 202.5C223.125 206.25 217.5 215.625 217.5 225V388.1249999999999C217.5 397.4999999999999 223.125 404.9999999999999 230.625 410.6249999999999S247.5000000000001 414.3749999999999 255.0000000000001 410.6249999999999L399.375 328.1249999999999C406.875 324.3749999999999 412.5 314.9999999999999 412.5 305.6249999999999C412.5 298.125 406.875 288.75 399.375 285z" />
  </font>
</defs>
</svg>
