<svg width="14" height="16" viewBox="0 0 14 16" fill="none" xmlns="http://www.w3.org/2000/svg">
<path fill-rule="evenodd" clip-rule="evenodd" d="M2.33398 3.33317C1.96579 3.33317 1.66732 3.63165 1.66732 3.99984V13.3332C1.66732 13.7014 1.96579 13.9998 2.33398 13.9998H11.6673C12.0355 13.9998 12.334 13.7014 12.334 13.3332V3.99984C12.334 3.63165 12.0355 3.33317 11.6673 3.33317H2.33398ZM0.333984 3.99984C0.333984 2.89527 1.22941 1.99984 2.33398 1.99984H11.6673C12.7719 1.99984 13.6673 2.89527 13.6673 3.99984V13.3332C13.6673 14.4377 12.7719 15.3332 11.6673 15.3332H2.33398C1.22941 15.3332 0.333984 14.4377 0.333984 13.3332V3.99984Z" fill="#AAADBB"/>
<path fill-rule="evenodd" clip-rule="evenodd" d="M9.66732 0.666504C10.0355 0.666504 10.334 0.964981 10.334 1.33317V3.99984C10.334 4.36803 10.0355 4.6665 9.66732 4.6665C9.29913 4.6665 9.00065 4.36803 9.00065 3.99984V1.33317C9.00065 0.964981 9.29913 0.666504 9.66732 0.666504Z" fill="#AAADBB"/>
<path fill-rule="evenodd" clip-rule="evenodd" d="M4.33398 0.666504C4.70217 0.666504 5.00065 0.964981 5.00065 1.33317V3.99984C5.00065 4.36803 4.70217 4.6665 4.33398 4.6665C3.96579 4.6665 3.66732 4.36803 3.66732 3.99984V1.33317C3.66732 0.964981 3.96579 0.666504 4.33398 0.666504Z" fill="#AAADBB"/>
<path fill-rule="evenodd" clip-rule="evenodd" d="M0.333984 6.6665C0.333984 6.29831 0.632461 5.99984 1.00065 5.99984H13.0007C13.3688 5.99984 13.6673 6.29831 13.6673 6.6665C13.6673 7.03469 13.3688 7.33317 13.0007 7.33317H1.00065C0.632461 7.33317 0.333984 7.03469 0.333984 6.6665Z" fill="#AAADBB"/>
</svg>
