<svg width="29" height="29" viewBox="0 0 29 29" fill="none" xmlns="http://www.w3.org/2000/svg">
<path d="M28.3437 3.70774C28.8945 2.93664 28.7159 1.86503 27.9448 1.31425C27.1737 0.76346 26.1021 0.942061 25.5513 1.71316L28.3437 3.70774ZM9.78951 26.7316L8.41687 27.7611C8.74512 28.1988 9.26241 28.4537 9.80946 28.4473C10.3565 28.4409 10.8677 28.1741 11.1857 27.7289L9.78951 26.7316ZM3.44106 15.4074C2.87249 14.6493 1.79703 14.4956 1.03894 15.0642C0.280854 15.6328 0.127217 16.7082 0.695782 17.4663L3.44106 15.4074ZM25.5513 1.71316L8.39331 25.7343L11.1857 27.7289L28.3437 3.70774L25.5513 1.71316ZM11.1622 25.7021L3.44106 15.4074L0.695782 17.4663L8.41687 27.7611L11.1622 25.7021Z" fill="white"/>
</svg>
