<svg width="22" height="23" viewBox="0 0 22 23" fill="none" xmlns="http://www.w3.org/2000/svg">
<path fill-rule="evenodd" clip-rule="evenodd" d="M14.7783 2.3877C13.9821 2.3877 13.2185 2.704 12.6554 3.26703L3.46544 12.457C2.52714 13.3953 2 14.668 2 15.9949C2 17.3219 2.52714 18.5945 3.46544 19.5328C4.40375 20.4711 5.67637 20.9983 7.00334 20.9983C8.3303 20.9983 9.60292 20.4711 10.5412 19.5328L19.7312 10.3428C20.1218 9.95229 20.7549 9.95229 21.1454 10.3428C21.536 10.7333 21.536 11.3665 21.1454 11.757L11.9554 20.947C10.6421 22.2604 8.86074 22.9983 7.00334 22.9983C5.14594 22.9983 3.36461 22.2604 2.05123 20.947C0.737849 19.6336 0 17.8523 0 15.9949C0 14.1375 0.737849 12.3562 2.05123 11.0428L11.2412 1.85281C12.1793 0.914714 13.4517 0.387695 14.7783 0.387695C16.105 0.387695 17.3773 0.914714 18.3154 1.85281C19.2535 2.79091 19.7806 4.06325 19.7806 5.38992C19.7806 6.71659 19.2535 7.98893 18.3154 8.92703L9.11544 18.117C8.55263 18.6798 7.78928 18.996 6.99334 18.996C6.19739 18.996 5.43405 18.6798 4.87123 18.117C4.30841 17.5542 3.99222 16.7909 3.99222 15.9949C3.99222 15.199 4.30841 14.4356 4.87123 13.8728L13.3616 5.3924C13.7524 5.0021 14.3856 5.00247 14.7759 5.39323C15.1662 5.78398 15.1658 6.41715 14.775 6.80744L6.28544 15.287C6.09796 15.4747 5.99222 15.7296 5.99222 15.9949C5.99222 16.2604 6.0977 16.5151 6.28544 16.7028C6.47319 16.8906 6.72783 16.996 6.99334 16.996C7.25885 16.996 7.51348 16.8906 7.70123 16.7028L16.9012 7.51281C17.464 6.94982 17.7806 6.18598 17.7806 5.38992C17.7806 4.59368 17.4643 3.83005 16.9012 3.26703C16.3382 2.704 15.5746 2.3877 14.7783 2.3877Z" fill="#AAADBB"/>
</svg>
