<svg width="14" height="14" viewBox="0 0 14 14" fill="none" xmlns="http://www.w3.org/2000/svg">
<path fill-rule="evenodd" clip-rule="evenodd" d="M2.3335 1.66683C2.15668 1.66683 1.98712 1.73707 1.86209 1.86209C1.73707 1.98712 1.66683 2.15668 1.66683 2.3335V11.3907L3.19543 9.86209C3.32045 9.73707 3.49002 9.66683 3.66683 9.66683H11.6668C11.8436 9.66683 12.0132 9.59659 12.1382 9.47157C12.2633 9.34654 12.3335 9.17697 12.3335 9.00016V2.3335C12.3335 2.15669 12.2633 1.98712 12.1382 1.86209C12.0132 1.73707 11.8436 1.66683 11.6668 1.66683H2.3335ZM0.919282 0.919282C1.29436 0.54421 1.80306 0.333496 2.3335 0.333496H11.6668C12.1973 0.333496 12.706 0.54421 13.081 0.919282C13.4561 1.29436 13.6668 1.80306 13.6668 2.3335V9.00016C13.6668 9.5306 13.4561 10.0393 13.081 10.4144C12.706 10.7894 12.1973 11.0002 11.6668 11.0002H3.94297L1.47157 13.4716C1.2809 13.6622 0.994157 13.7193 0.745041 13.6161C0.495924 13.5129 0.333496 13.2698 0.333496 13.0002V2.3335C0.333496 1.80306 0.54421 1.29436 0.919282 0.919282Z" fill="#7A87D4"/>
</svg>
