<svg width="24" height="21" viewBox="0 0 24 21" fill="none" xmlns="http://www.w3.org/2000/svg">
<path fill-rule="evenodd" clip-rule="evenodd" d="M13 1C13 0.447715 12.5523 0 12 0C11.4477 0 11 0.447715 11 1V4H5.5H2.5C1.94772 4 1.5 4.44772 1.5 5C1.5 5.55228 1.94772 6 2.5 6H4.35125C2.91579 8.56149 0.587055 12.9443 0.0936775 15.25C0.0329241 15.5339 0 15.7863 0 16C0 16.2549 0.0209824 16.5054 0.0614627 16.75C0.459512 19.1556 2.74283 21 5.5 21C8.25717 21 10.5405 19.1556 10.9385 16.75C10.979 16.5054 11 16.2549 11 16C11 15.7863 10.9671 15.5339 10.9063 15.25C10.4129 12.9443 8.08421 8.56149 6.64875 6H11H12H13H17.3512C15.9158 8.56149 13.5871 12.9443 13.0937 15.25C13.0329 15.5339 13 15.7863 13 16C13 16.2549 13.021 16.5054 13.0615 16.75C13.4595 19.1556 15.7428 21 18.5 21C21.2572 21 23.5405 19.1556 23.9385 16.75C23.979 16.5054 24 16.2549 24 16C24 15.7863 23.9671 15.5339 23.9063 15.25C23.4129 12.9443 21.0842 8.56149 19.6488 6H21C21.5523 6 22 5.55228 22 5C22 4.44772 21.5523 4 21 4H18.5H13V1ZM9.32339 15.1106C9.33748 15.159 9.35054 15.2055 9.36263 15.25H1.63737C1.64946 15.2055 1.66252 15.159 1.67661 15.1106C1.80692 14.6627 2.00077 14.1287 2.24675 13.5303C2.73843 12.3341 3.40347 10.9643 4.08195 9.65432C4.57582 8.70078 5.07055 7.79088 5.5 7.01939C5.92945 7.79088 6.42418 8.70078 6.91805 9.65432C7.59653 10.9643 8.26157 12.3341 8.75325 13.5303C8.99923 14.1287 9.19308 14.6627 9.32339 15.1106ZM5.5 19.5C7.51663 19.5 9.02101 18.246 9.40447 16.75H1.59553C1.97899 18.246 3.48337 19.5 5.5 19.5ZM17.082 9.65432C17.5758 8.70078 18.0706 7.79088 18.5 7.01939C18.9294 7.79088 19.4242 8.70078 19.918 9.65432C20.5965 10.9643 21.2616 12.3341 21.7533 13.5303C21.9992 14.1287 22.1931 14.6627 22.3234 15.1106C22.3375 15.159 22.3505 15.2055 22.3626 15.25H14.6374C14.6495 15.2055 14.6625 15.159 14.6766 15.1106C14.8069 14.6627 15.0008 14.1287 15.2467 13.5303C15.7384 12.3341 16.4035 10.9643 17.082 9.65432ZM18.5 19.5C16.4834 19.5 14.979 18.246 14.5955 16.75H22.4045C22.021 18.246 20.5166 19.5 18.5 19.5Z" fill="#AAADBB"/>
</svg>
