<?xml version="1.0" encoding="utf-8"?>
<!-- Generator: Adobe Illustrator 23.0.0, SVG Export Plug-In . SVG Version: 6.00 Build 0)  -->
<svg version="1.1" id="Слой_1" xmlns="http://www.w3.org/2000/svg" xmlns:xlink="http://www.w3.org/1999/xlink" x="0px" y="0px"
	 viewBox="0 0 24 24" style="enable-background:new 0 0 24 24;" xml:space="preserve">
<style type="text/css">
	.st0{fill:#AAADBB;}
</style>
<g>
	<path class="st0" d="M21,5h-2h-2V4c0-0.8-0.3-1.6-0.9-2.1C15.6,1.3,14.8,1,14,1h-4C9.2,1,8.4,1.3,7.9,1.9S7,3.2,7,4v1H5H3
		C2.4,5,2,5.4,2,6c0,0.6,0.4,1,1,1h1v13c0,0.8,0.3,1.6,0.9,2.1C5.4,22.7,6.2,23,7,23h10c0.8,0,1.6-0.3,2.1-0.9
		c0.6-0.6,0.9-1.3,0.9-2.1V7h1c0.6,0,1-0.4,1-1C22,5.4,21.6,5,21,5z M9,4c0-0.3,0.1-0.5,0.3-0.7C9.5,3.1,9.7,3,10,3h4
		c0.3,0,0.5,0.1,0.7,0.3C14.9,3.5,15,3.7,15,4v1H9V4z M18,20c0,0.3-0.1,0.5-0.3,0.7S17.3,21,17,21H7c-0.3,0-0.5-0.1-0.7-0.3
		C6.1,20.5,6,20.3,6,20V7h12V20z"/>
	<path class="st0" d="M10,18c0.6,0,1-0.4,1-1v-6c0-0.6-0.4-1-1-1s-1,0.4-1,1v6C9,17.6,9.4,18,10,18z"/>
	<path class="st0" d="M14,18c0.6,0,1-0.4,1-1v-6c0-0.6-0.4-1-1-1s-1,0.4-1,1v6C13,17.6,13.4,18,14,18z"/>
</g>
</svg>
