<svg width="23" height="22" viewBox="0 0 23 22" fill="none" xmlns="http://www.w3.org/2000/svg">
<path fill-rule="evenodd" clip-rule="evenodd" d="M3.5 4C3.23478 4 2.98043 4.10536 2.79289 4.29289C2.60536 4.48043 2.5 4.73478 2.5 5V19C2.5 19.2652 2.60536 19.5196 2.79289 19.7071C2.98043 19.8946 3.23478 20 3.5 20H17.5C17.7652 20 18.0196 19.8946 18.2071 19.7071C18.3946 19.5196 18.5 19.2652 18.5 19V13.66C18.5 13.1077 18.9477 12.66 19.5 12.66C20.0523 12.66 20.5 13.1077 20.5 13.66V19C20.5 19.7957 20.1839 20.5587 19.6213 21.1213C19.0587 21.6839 18.2957 22 17.5 22H3.5C2.70435 22 1.94129 21.6839 1.37868 21.1213C0.81607 20.5587 0.5 19.7957 0.5 19V5C0.5 4.20435 0.81607 3.44129 1.37868 2.87868C1.94129 2.31607 2.70435 2 3.5 2H8.84C9.39228 2 9.84 2.44772 9.84 3C9.84 3.55228 9.39228 4 8.84 4H3.5Z" fill="#AAADBB"/>
<path fill-rule="evenodd" clip-rule="evenodd" d="M16.7929 0.292893C17.1834 -0.0976311 17.8166 -0.0976311 18.2071 0.292893L22.2071 4.29289C22.5976 4.68342 22.5976 5.31658 22.2071 5.70711L12.2071 15.7071C12.0196 15.8946 11.7652 16 11.5 16H7.5C6.94772 16 6.5 15.5523 6.5 15V11C6.5 10.7348 6.60536 10.4804 6.79289 10.2929L16.7929 0.292893ZM8.5 11.4142V14H11.0858L20.0858 5L17.5 2.41421L8.5 11.4142Z" fill="#AAADBB"/>
</svg>
