<svg width="16" height="14" viewBox="0 0 16 14" fill="none" xmlns="http://www.w3.org/2000/svg">
<path fill-rule="evenodd" clip-rule="evenodd" d="M0.728923 0.719578C0.838161 0.484135 1.07412 0.333496 1.33367 0.333496H14.667C14.9266 0.333496 15.1625 0.484135 15.2717 0.719578C15.381 0.955021 15.3436 1.23246 15.176 1.43065L10.0003 7.55093V13.0002C10.0003 13.2312 9.8807 13.4458 9.68416 13.5673C9.48761 13.6887 9.24218 13.6998 9.03553 13.5964L6.36886 12.2631C6.143 12.1502 6.00033 11.9193 6.00033 11.6668V7.55093L0.824621 1.43065C0.657023 1.23246 0.619684 0.955021 0.728923 0.719578ZM2.77054 1.66683L7.17605 6.87635C7.27782 6.9967 7.33367 7.14921 7.33367 7.30683V11.2548L8.667 11.9215V7.30683C8.667 7.14921 8.72285 6.9967 8.82462 6.87635L13.2301 1.66683H2.77054Z" fill="white"/>
</svg>
