<svg width="16" height="15" viewBox="0 0 16 15" fill="none" xmlns="http://www.w3.org/2000/svg">
<path fill-rule="evenodd" clip-rule="evenodd" d="M10.668 5.99984C9.78391 5.99984 8.93607 6.35103 8.31095 6.97615C7.68582 7.60127 7.33463 8.44912 7.33463 9.33317V13.3332H8.66797V9.33317C8.66797 8.80274 8.87868 8.29403 9.25375 7.91896C9.62883 7.54389 10.1375 7.33317 10.668 7.33317C11.1984 7.33317 11.7071 7.54389 12.0822 7.91896C12.4573 8.29403 12.668 8.80274 12.668 9.33317V13.3332H14.0013V9.33317C14.0013 8.44912 13.6501 7.60127 13.025 6.97615C12.3999 6.35103 11.552 5.99984 10.668 5.99984ZM10.668 4.6665C9.43029 4.6665 8.24331 5.15817 7.36814 6.03334C6.49297 6.90851 6.0013 8.09549 6.0013 9.33317V13.9998C6.0013 14.368 6.29978 14.6665 6.66797 14.6665H9.33463C9.70282 14.6665 10.0013 14.368 10.0013 13.9998V9.33317C10.0013 9.15636 10.0715 8.98679 10.1966 8.86177C10.3216 8.73674 10.4912 8.6665 10.668 8.6665C10.8448 8.6665 11.0143 8.73674 11.1394 8.86177C11.2644 8.98679 11.3346 9.15636 11.3346 9.33317V13.9998C11.3346 14.368 11.6331 14.6665 12.0013 14.6665H14.668C15.0362 14.6665 15.3346 14.368 15.3346 13.9998V9.33317C15.3346 8.09549 14.843 6.90851 13.9678 6.03334C13.0926 5.15817 11.9056 4.6665 10.668 4.6665Z" fill="#AAADBB"/>
<path fill-rule="evenodd" clip-rule="evenodd" d="M0.667969 5.99984C0.667969 5.63165 0.966446 5.33317 1.33464 5.33317H4.0013C4.36949 5.33317 4.66797 5.63165 4.66797 5.99984V13.9998C4.66797 14.368 4.36949 14.6665 4.0013 14.6665H1.33464C0.966446 14.6665 0.667969 14.368 0.667969 13.9998V5.99984ZM2.0013 6.6665V13.3332H3.33464V6.6665H2.0013Z" fill="#AAADBB"/>
<path fill-rule="evenodd" clip-rule="evenodd" d="M2.66797 1.99984C2.29978 1.99984 2.0013 2.29831 2.0013 2.6665C2.0013 3.03469 2.29978 3.33317 2.66797 3.33317C3.03616 3.33317 3.33464 3.03469 3.33464 2.6665C3.33464 2.29831 3.03616 1.99984 2.66797 1.99984ZM0.667969 2.6665C0.667969 1.56193 1.5634 0.666504 2.66797 0.666504C3.77254 0.666504 4.66797 1.56193 4.66797 2.6665C4.66797 3.77107 3.77254 4.6665 2.66797 4.6665C1.5634 4.6665 0.667969 3.77107 0.667969 2.6665Z" fill="#AAADBB"/>
</svg>
