<?xml version="1.0" encoding="utf-8"?>
<!-- Generator: Adobe Illustrator 23.0.0, SVG Export Plug-In . SVG Version: 6.00 Build 0)  -->
<svg version="1.1" id="Слой_1" xmlns="http://www.w3.org/2000/svg" xmlns:xlink="http://www.w3.org/1999/xlink" x="0px" y="0px"
	 viewBox="0 0 24 24" style="enable-background:new 0 0 24 24;" xml:space="preserve">
<style type="text/css">
	.st0{fill-rule:evenodd;clip-rule:evenodd;fill:#28347C;}
</style>
<path class="st0" d="M24,10.1c0,0,0-0.1,0-0.1V4c0-0.6-0.4-1-1-1s-1,0.4-1,1v3.7l-2.9-2.8c-1.5-1.5-3.5-2.5-5.7-2.8
	c-2.1-0.3-4.3,0.1-6.2,1.1c-1.9,1-3.4,2.7-4.3,4.7c-0.9,2-1.1,4.2-0.6,6.3c0.5,2.1,1.6,4,3.3,5.4c1.7,1.4,3.7,2.2,5.9,2.4
	c2.2,0.1,4.3-0.5,6.1-1.7c1.8-1.2,3.2-3,3.9-5c0.2-0.5-0.1-1.1-0.6-1.3c-0.5-0.2-1.1,0.1-1.3,0.6c-0.6,1.6-1.7,3-3.1,4
	c-1.4,1-3.2,1.4-4.9,1.3c-1.7-0.1-3.4-0.8-4.7-1.9c-1.3-1.1-2.2-2.6-2.6-4.3c-0.4-1.7-0.2-3.5,0.5-5S6.6,5.8,8.1,5
	c1.5-0.8,3.3-1.2,5-0.9s3.3,1,4.5,2.3c0,0,0,0,0,0L20.5,9H17c-0.6,0-1,0.4-1,1s0.4,1,1,1h6c0,0,0,0,0,0c0.1,0,0.2,0,0.2,0
	c0,0,0.1,0,0.1,0c0,0,0.1-0.1,0.1-0.1c0.1,0,0.1-0.1,0.2-0.1c0,0,0,0,0,0c0,0,0-0.1,0.1-0.1c0-0.1,0.1-0.1,0.1-0.2
	C24,10.3,24,10.2,24,10.1z"/>
</svg>
