<?xml version="1.0" encoding="utf-8"?>
<!-- Generator: Adobe Illustrator 23.0.0, SVG Export Plug-In . SVG Version: 6.00 Build 0)  -->
<svg version="1.1" id="Слой_1" xmlns="http://www.w3.org/2000/svg" xmlns:xlink="http://www.w3.org/1999/xlink" x="0px" y="0px"
	 viewBox="0 0 24 24" style="enable-background:new 0 0 24 24;" xml:space="preserve">
<style type="text/css">
	.st0{fill-rule:evenodd;clip-rule:evenodd;fill:#AAADBB;}
</style>
<path class="st0" d="M21,19.6l-4.7-4.7c1.1-1.4,1.7-3.1,1.7-4.9c0-4.4-3.6-8-8-8s-8,3.6-8,8s3.6,8,8,8c1.8,0,3.6-0.6,4.9-1.7
	l4.7,4.7c0.4,0.4,1,0.4,1.4,0S21.4,20,21,19.6z M10,16c-3.3,0-6-2.7-6-6c0-3.3,2.7-6,6-6s6,2.7,6,6C16,13.3,13.3,16,10,16z"/>
</svg>
