<svg width="16" height="16" viewBox="0 0 16 16" fill="none" xmlns="http://www.w3.org/2000/svg">
<path fill-rule="evenodd" clip-rule="evenodd" d="M9.66645 0.858889C8.05464 0.482742 6.363 0.662901 4.86657 1.37007C3.37014 2.07724 2.15694 3.26984 1.42423 4.75393C0.691531 6.23803 0.482419 7.92634 0.830901 9.54435C1.17938 11.1624 2.06496 12.6149 3.34364 13.6658C4.62232 14.7167 6.21889 15.3041 7.87376 15.3326C9.52863 15.361 11.1445 14.8288 12.4585 13.8225C12.7508 13.5987 12.8063 13.1802 12.5825 12.8879C12.3586 12.5956 11.9402 12.5401 11.6478 12.764C10.5727 13.5873 9.25067 14.0227 7.89669 13.9994C6.5427 13.9762 5.23641 13.4955 4.19022 12.6357C3.14403 11.7759 2.41947 10.5874 2.13435 9.26362C1.84922 7.9398 2.02032 6.55845 2.6198 5.34419C3.21928 4.12993 4.2119 3.15417 5.43625 2.57557C6.6606 1.99698 8.04468 1.84958 9.36343 2.15733C10.6822 2.46509 11.858 3.20991 12.6998 4.27067C13.5416 5.33143 13.9998 6.64579 13.9998 7.99995V8.66658C13.9998 9.0202 13.8594 9.35934 13.6093 9.60939C13.3593 9.85944 13.0201 9.99991 12.6665 9.99991C12.3129 9.99991 11.9738 9.85944 11.7237 9.60939C11.4737 9.35934 11.3332 9.0202 11.3332 8.66658V5.33325C11.3332 4.96506 11.0347 4.66658 10.6665 4.66658C10.2984 4.66658 9.99997 4.96493 9.99985 5.33301C9.44274 4.91454 8.75025 4.66658 7.99984 4.66658C6.15889 4.66658 4.6665 6.15896 4.6665 7.99991C4.6665 9.84086 6.15889 11.3332 7.99984 11.3332C8.9919 11.3332 9.88274 10.8999 10.4934 10.2121C10.579 10.3325 10.675 10.4463 10.7809 10.5522C11.281 11.0523 11.9593 11.3332 12.6665 11.3332C13.3738 11.3332 14.052 11.0523 14.5521 10.5522C15.0522 10.0521 15.3332 9.37382 15.3332 8.66658V7.99987C15.3331 6.34476 14.7731 4.73835 13.7442 3.44186C12.7154 2.14537 11.2782 1.23504 9.66645 0.858889ZM5.99984 7.99991C5.99984 6.89534 6.89527 5.99991 7.99984 5.99991C9.10441 5.99991 9.99984 6.89534 9.99984 7.99991C9.99984 9.10448 9.10441 9.99991 7.99984 9.99991C6.89527 9.99991 5.99984 9.10448 5.99984 7.99991Z" fill="#7A87D4"/>
</svg>
