<?xml version="1.0" encoding="utf-8"?>
<!-- Generator: Adobe Illustrator 23.0.0, SVG Export Plug-In . SVG Version: 6.00 Build 0)  -->
<svg version="1.1" id="Слой_1" opacity="0.5" xmlns="http://www.w3.org/2000/svg" xmlns:xlink="http://www.w3.org/1999/xlink"
	 x="0px" y="0px" viewBox="0 0 32 32" style="enable-background:new 0 0 32 32;" xml:space="preserve">
<style type="text/css">
	.st0{fill:#282828;}
</style>
<polygon class="st0" points="14.3,17.7 18,15.7 14.3,13.6 "/>
<path class="st0" d="M31.4,8.3L31.4,8.3c-0.2-0.9-0.7-1.7-1.3-2.4c-0.6-0.6-1.4-1.1-2.2-1.3c0,0,0,0,0,0c-0.7-0.2-1.8-0.3-3-0.4
	c-1.2-0.1-2.6-0.1-3.9-0.2C19.6,4,18.4,4,17.5,4c-0.5,0-0.8,0-1.1,0c-0.1,0-0.2,0-0.3,0L16,4l-0.1,0c-0.1,0-0.2,0-0.3,0
	c-0.3,0-0.6,0-1.1,0c-0.9,0-2.1,0-3.4,0.1c-1.3,0-2.7,0.1-3.9,0.2C6,4.3,4.9,4.5,4.2,4.7l0,0C3.3,4.9,2.5,5.4,1.9,6
	C1.3,6.6,0.9,7.4,0.7,8.3c0,0,0,0.1,0,0.1C0.2,10.8,0,13.2,0,15.7c0,2.5,0.2,4.9,0.6,7.3c0,0,0,0.1,0,0.1C0.9,24,1.3,24.7,2,25.3
	c0.6,0.6,1.4,1.1,2.2,1.3l0,0c0.7,0.2,1.8,0.3,3,0.4c1.2,0.1,2.6,0.1,3.9,0.2c1.3,0,2.5,0.1,3.4,0.1c0.5,0,0.8,0,1.1,0
	c0.1,0,0.2,0,0.3,0l0.1,0l0.1,0c0.1,0,0.2,0,0.3,0c0.3,0,0.6,0,1.1,0c0.9,0,2.1,0,3.4-0.1c1.3,0,2.7-0.1,3.9-0.2
	c1.2-0.1,2.3-0.2,3-0.4l0,0c0.9-0.2,1.6-0.7,2.2-1.3c0.6-0.6,1.1-1.4,1.3-2.3c0,0,0-0.1,0-0.1c0.4-2.4,0.6-4.8,0.6-7.2
	C32,13.2,31.8,10.7,31.4,8.3z M21.3,16.8l-7.7,4.4c-0.4,0.2-0.9,0.2-1.3,0c-0.4-0.2-0.7-0.7-0.7-1.2v-8.7c0-0.5,0.3-0.9,0.7-1.2
	s0.9-0.2,1.3,0l7.7,4.4c0.4,0.2,0.7,0.7,0.7,1.2C22,16.1,21.7,16.6,21.3,16.8z"/>
</svg>
