<svg width="101" height="97" viewBox="0 0 101 97" fill="none" xmlns="http://www.w3.org/2000/svg">
<path d="M100.5 56.481C100.5 83.6059 66.2563 97 39.1503 97C12.0443 97 0.5 67.6439 0.5 40.519C0.5 13.3941 18.1793 0 45.2853 0C72.3913 0 100.5 29.3561 100.5 56.481Z" fill="#F3F4F6"/>
<g clip-path="url(#clip0)">
<g opacity="0.8">
<path d="M27.0617 54.8684H13.8232V81.3452H27.0617V54.8684Z" fill="url(#paint0_linear)"/>
<path d="M54.8635 41.6299H53.5397C54.2708 41.6299 54.8635 41.0378 54.8635 40.306V35.0107C54.8635 34.2796 54.2708 33.6868 53.5397 33.6868H35.0059C34.2748 33.6868 33.682 34.2796 33.682 35.0107V40.306C33.682 41.0378 34.2748 41.6299 35.0059 41.6299H36.3297C35.5986 41.6299 35.0059 42.2226 35.0059 42.9537V48.2491C35.0059 48.9808 35.5986 49.573 36.3297 49.573H54.8635C55.5946 49.573 56.1874 48.9808 56.1874 48.2491V42.9537C56.1874 42.2226 55.5946 41.6299 54.8635 41.6299Z" fill="url(#paint1_linear)"/>
<path d="M83.9875 24.42V19.1246C83.9875 18.3935 83.3947 17.8008 82.6636 17.8008H64.1298C63.3987 17.8008 62.806 18.3935 62.806 19.1246V24.42C62.806 25.1517 63.3987 25.7438 64.1298 25.7438H61.4821C60.751 25.7438 60.1583 26.3366 60.1583 27.0677V32.3631C60.1583 33.0948 60.751 33.6869 61.4821 33.6869H64.1298C63.3987 33.6869 62.806 34.2797 62.806 35.0107V40.3061C62.806 41.0379 63.3987 41.63 64.1298 41.63H62.806C62.0749 41.63 61.4821 42.2227 61.4821 42.9538V48.2492C61.4821 48.9809 62.0749 49.573 62.806 49.573H81.3398C82.0709 49.573 82.6636 48.9809 82.6636 48.2492V42.9538C82.6636 42.2227 82.0709 41.63 81.3398 41.63H82.6636C83.3947 41.63 83.9875 41.0379 83.9875 40.3061V35.0107C83.9875 34.2797 83.3947 33.6869 82.6636 33.6869H80.0159C80.747 33.6869 81.3398 33.0948 81.3398 32.3631V27.0677C81.3398 26.3366 80.747 25.7438 80.0159 25.7438H82.6636C83.3947 25.7438 83.9875 25.1517 83.9875 24.42Z" fill="url(#paint2_linear)"/>
</g>
<path d="M36.3292 20.4479H33.6815C32.9504 20.4479 32.3577 19.8558 32.3577 19.124H29.71C29.71 21.3179 31.4883 23.0956 33.6815 23.0956V24.4194H36.3292V23.0956C38.5225 23.0956 40.3007 21.3179 40.3007 19.124C40.3007 16.9308 38.5225 15.1525 36.3292 15.1525H33.6815C32.9504 15.1525 32.3577 14.5604 32.3577 13.8287C32.3577 13.0976 32.9504 12.5048 33.6815 12.5048H36.3292C37.0603 12.5048 37.653 13.0976 37.653 13.8287H40.3007C40.3007 11.6354 38.5225 9.85713 36.3292 9.85713V8.53329H33.6815V9.85713C31.4883 9.85713 29.71 11.6354 29.71 13.8287C29.71 16.0226 31.4883 17.8002 33.6815 17.8002H36.3292C37.0603 17.8002 37.653 18.3929 37.653 19.124C37.653 19.8558 37.0603 20.4479 36.3292 20.4479Z" fill="#28347C"/>
<path d="M35.0047 29.7147C42.3162 29.7147 48.2431 23.7877 48.2431 16.4762C48.2431 9.16535 42.3162 3.23779 35.0047 3.23779C27.6932 3.23779 21.7663 9.16535 21.7663 16.4762C21.774 23.7845 27.6964 29.7069 35.0047 29.7147ZM35.0047 5.88548C40.854 5.88548 45.5955 10.6275 45.5955 16.4762C45.5955 22.3256 40.854 27.067 35.0047 27.067C29.1554 27.067 24.414 22.3256 24.414 16.4762C24.4204 10.6301 29.1586 5.89259 35.0047 5.88548Z" fill="#28347C"/>
<path d="M91.8866 58.5866C91.1471 56.9958 89.8045 55.7644 88.1555 55.1645C86.5066 54.5646 84.6869 54.6461 83.0981 55.3895L65.945 63.3752C67.0827 61.3248 67.0503 58.8264 65.8616 56.8057C64.6722 54.7851 62.5029 53.5446 60.1583 53.544H40.3007C36.7215 53.5414 33.4624 55.6041 31.933 58.8393H28.3861V54.8678C28.3861 54.1367 27.7934 53.544 27.0623 53.544H13.8238C13.0928 53.544 12.5 54.1367 12.5 54.8678V81.3446C12.5 82.0764 13.0928 82.6685 13.8238 82.6685H27.0623C27.7934 82.6685 28.3861 82.0764 28.3861 81.3446V78.697H62.9566C63.923 78.6963 64.8771 78.4849 65.753 78.0777L88.6927 67.3848C91.992 65.8263 93.4173 61.8994 91.8866 58.5866ZM25.7384 80.0208H15.1477V56.1916H25.7384V80.0208ZM87.5725 64.9873L64.6341 75.6789C64.1085 75.9219 63.5365 76.0486 62.9566 76.0493H28.3861V61.487H32.8211C33.3841 61.487 33.8857 61.1302 34.0706 60.5976C35.0002 57.9544 37.4985 56.1871 40.3007 56.1916H60.1583C62.3516 56.1916 64.1299 57.9699 64.1299 60.1632C64.1299 62.3571 62.3516 64.1347 60.1583 64.1347H48.2438V66.7824H63.435C64.3994 66.7817 65.3522 66.5704 66.2268 66.1631L84.2189 57.787C86.1989 56.8607 88.5544 57.7139 89.4813 59.6932C89.725 60.2226 89.8517 60.7986 89.8524 61.3816C89.8511 62.9227 88.9642 64.326 87.5725 64.9873Z" fill="#28347C"/>
<path d="M32.3573 35.0104V40.3058C32.3605 41.2618 32.8802 42.1416 33.7166 42.6044C33.6966 42.7195 33.685 42.8365 33.6811 42.9535V48.2489C33.6811 49.7117 34.8666 50.8965 36.3288 50.8965H54.8626C56.3248 50.8965 57.5103 49.7117 57.5103 48.2489V42.9535C57.507 41.9981 56.9873 41.1183 56.1509 40.6555C56.1709 40.5398 56.1826 40.4234 56.1864 40.3058V35.0104C56.1864 33.5482 55.0009 32.3627 53.5387 32.3627H35.0049C33.5428 32.3627 32.3573 33.5482 32.3573 35.0104ZM54.8626 48.2489H36.3288V42.9535H38.9765V45.6012H41.6242V42.9535H44.2718V45.6012H46.9195V42.9535H49.5672V45.6012H52.2149V42.9535H54.8626V48.2489ZM53.5387 40.3058H35.0049V35.0104H37.6526V37.6581H40.3003V35.0104H42.948V37.6581H45.5957V35.0104H48.2434V37.6581H50.8911V35.0104H53.5387V40.3058Z" fill="#28347C"/>
<path d="M61.4818 35.0097V40.3051C61.4857 40.4227 61.4974 40.5391 61.5174 40.6548C60.6809 41.1176 60.1612 41.9974 60.158 42.9528V48.2482C60.158 49.711 61.3435 50.8959 62.8057 50.8959H81.3395C82.8017 50.8959 83.9872 49.711 83.9872 48.2482V42.9528C83.9833 42.8358 83.9717 42.7188 83.9516 42.6037C84.7881 42.1409 85.3078 41.2611 85.311 40.3051V35.0097C85.311 33.5476 84.1255 32.362 82.6633 32.362V27.0667C84.1255 27.0667 85.311 25.8818 85.311 24.419V19.1236C85.311 17.6614 84.1255 16.4759 82.6633 16.4759H64.1295C62.6674 16.4759 61.4818 17.6614 61.4818 19.1236V24.419C60.0197 24.419 58.8342 25.6045 58.8342 27.0667V32.362C58.8342 33.8249 60.0197 35.0097 61.4818 35.0097ZM69.4249 37.6574V35.0097H72.0726V37.6574H74.7203V35.0097H77.368V37.6574H80.0156V35.0097H82.6633V40.3051H64.1295V35.0097H66.7772V37.6574H69.4249ZM81.3395 48.2482H62.8057V42.9528H65.4534V45.6005H68.1011V42.9528H70.7487V45.6005H73.3964V42.9528H76.0441V45.6005H78.6918V42.9528H81.3395V48.2482ZM64.1295 19.1236H66.7772V21.7713H69.4249V19.1236H72.0726V21.7713H74.7203V19.1236H77.368V21.7713H80.0156V19.1236H82.6633V24.419H64.1295V19.1236ZM61.4818 27.0667H64.1295V29.7144H66.7772V27.0667H69.4249V29.7144H72.0726V27.0667H74.7203V29.7144H77.368V27.0667H80.0156V32.362H61.4818V27.0667Z" fill="#28347C"/>
</g>
<defs>
<linearGradient id="paint0_linear" x1="48.9053" y1="17.8008" x2="48.9053" y2="81.3452" gradientUnits="userSpaceOnUse">
<stop stop-color="#F9B335"/>
<stop offset="1" stop-color="#F69914"/>
</linearGradient>
<linearGradient id="paint1_linear" x1="48.9053" y1="17.8008" x2="48.9053" y2="81.3452" gradientUnits="userSpaceOnUse">
<stop stop-color="#F9B335"/>
<stop offset="1" stop-color="#F69914"/>
</linearGradient>
<linearGradient id="paint2_linear" x1="48.9053" y1="17.8008" x2="48.9053" y2="81.3452" gradientUnits="userSpaceOnUse">
<stop stop-color="#F9B335"/>
<stop offset="1" stop-color="#F69914"/>
</linearGradient>
<clipPath id="clip0">
<path d="M12.5 3H92.5V83H12.5V3Z" fill="white"/>
</clipPath>
</defs>
</svg>
