<svg width="80" height="80" viewBox="0 0 80 80" fill="none" xmlns="http://www.w3.org/2000/svg">
<g opacity="0.8">
<path d="M71.9992 64.0001C71.9992 68.4181 68.4171 72.0001 63.9992 72.0001C59.5812 72.0001 55.9992 68.4181 55.9992 64.0001C55.9992 59.5822 59.5812 56.0001 63.9992 56.0001C68.4171 56.0001 71.9992 59.5822 71.9992 64.0001Z" fill="url(#paint0_linear)"/>
<path d="M34.6662 64.0001C34.6662 68.4181 31.0842 72.0001 26.6662 72.0001C22.2483 72.0001 18.6662 68.4181 18.6662 64.0001C18.6662 59.5822 22.2483 56.0001 26.6662 56.0001C31.0842 56.0001 34.6662 59.5822 34.6662 64.0001Z" fill="url(#paint1_linear)"/>
<path d="M17.333 26.667C17.333 28.1396 18.527 29.3336 19.9997 29.3336C21.4723 29.3336 22.6663 28.1396 22.6663 26.667C22.6663 25.1943 21.4723 24.0003 19.9997 24.0003C18.529 24.0049 17.3376 25.1963 17.333 26.667ZM38.6663 26.667C38.665 27.5504 38.6025 28.4326 38.4795 29.307C37.0615 39.2581 28.0186 46.2998 18.0238 45.2353C8.02833 44.1715 0.670251 35.3838 1.37924 25.3571C2.08822 15.3304 10.6097 7.66568 20.6553 8.01854C30.7002 8.37141 38.6624 16.6155 38.6663 26.667Z" fill="url(#paint2_linear)"/>
</g>
<path d="M79.6094 45.7232L63.0573 29.1712C62.3092 28.4186 61.291 27.996 60.2292 27.9993H42.6667V30.666H44V50.666H46.6667V30.666H60.2292C60.5827 30.6673 60.9212 30.8079 61.1719 31.0566L63.4479 33.3326H57.3333C55.8607 33.3326 54.6667 34.5266 54.6667 35.9993V47.9993C54.6667 49.4719 55.8607 50.666 57.3333 50.666H77.3333V61.3326C77.3333 62.0689 76.7363 62.666 76 62.666H73.2266C72.5677 58.0768 68.6361 54.6699 64 54.6699C59.3639 54.6699 55.4323 58.0768 54.7734 62.666H35.8932C35.2344 58.0768 31.3027 54.6699 26.6667 54.6699C22.0306 54.6699 18.099 58.0768 17.4401 62.666H14.6667C13.9303 62.666 13.3333 62.0689 13.3333 61.3326V47.9993H10.6667V61.3326C10.6667 63.5416 12.4577 65.3326 14.6667 65.3326H17.4401C17.7305 67.36 18.6829 69.235 20.1478 70.666H0V73.3326H64C68.6354 73.3274 72.5645 69.9205 73.2266 65.3326H76C78.209 65.3326 80 63.5416 80 61.3326V46.666C80 46.3124 79.8594 45.9732 79.6094 45.7232ZM20 63.9993C20 60.3176 22.985 57.3326 26.6667 57.3326C30.3483 57.3326 33.3333 60.3176 33.3333 63.9993C33.3333 67.6809 30.3483 70.666 26.6667 70.666C22.9863 70.6614 20.0046 67.6796 20 63.9993ZM33.1855 70.666C34.6504 69.235 35.6029 67.36 35.8932 65.3326H54.7734C55.0638 67.36 56.0163 69.235 57.4811 70.666H33.1855ZM64 70.666C60.3184 70.666 57.3333 67.6809 57.3333 63.9993C57.3333 60.3176 60.3184 57.3326 64 57.3326C67.6816 57.3326 70.6667 60.3176 70.6667 63.9993C70.6621 67.6796 67.6803 70.6614 64 70.666ZM57.3333 47.9993V35.9993H66.1146L77.3333 47.218V47.9993H57.3333Z" fill="#28347C"/>
<path d="M25.3335 62.6662H28.0001V65.3329H25.3335V62.6662Z" fill="#28347C"/>
<path d="M62.6664 62.6662H65.3331V65.3329H62.6664V62.6662Z" fill="#28347C"/>
<path d="M0 58.6663H6.66667V61.333H0V58.6663Z" fill="#28347C"/>
<path d="M2.66641 53.3328H6.66641V55.9995H2.66641V53.3328Z" fill="#28347C"/>
<path d="M4.00026 47.9994H6.66693V50.666H4.00026V47.9994Z" fill="#28347C"/>
<path d="M50.6669 53.3328H56.0003V55.9995H50.6669V53.3328Z" fill="#28347C"/>
<path d="M20 46.6665C31.0456 46.6665 40 37.7121 40 26.6665C40 15.6209 31.0456 6.6665 20 6.6665C8.95443 6.6665 0 15.6209 0 26.6665C0.0123698 37.7069 8.95963 46.6541 20 46.6665ZM20 9.33317C29.5729 9.33317 37.3333 17.0936 37.3333 26.6665C37.3333 36.2394 29.5729 43.9998 20 43.9998C10.4271 43.9998 2.66667 36.2394 2.66667 26.6665C2.67773 17.0981 10.4316 9.34424 20 9.33317Z" fill="#28347C"/>
<path d="M20.0001 30.6666C21.9461 30.6705 23.6108 29.2701 23.9409 27.3521C24.2703 25.4341 23.1688 23.5585 21.3335 22.912V15.9999H18.6668V22.912C17.5372 23.315 16.6486 24.2037 16.2456 25.3332H12.0001V27.9999H16.2456C16.8087 29.5923 18.3113 30.6594 20.0001 30.6666ZM20.0001 25.3332C20.7365 25.3332 21.3335 25.9302 21.3335 26.6666C21.3335 27.4029 20.7365 27.9999 20.0001 27.9999C19.2638 27.9999 18.6668 27.4029 18.6668 26.6666C18.6668 25.9302 19.2638 25.3332 20.0001 25.3332Z" fill="#28347C"/>
<path d="M4.00026 25.3333H6.66693V28H4.00026V25.3333Z" fill="#28347C"/>
<path d="M18.6668 39.9998H21.3335V42.6665H18.6668V39.9998Z" fill="#28347C"/>
<path d="M33.3333 25.3333H36V28H33.3333V25.3333Z" fill="#28347C"/>
<path d="M18.6668 10.6664H21.3335V13.3331H18.6668V10.6664Z" fill="#28347C"/>
<defs>
<linearGradient id="paint0_linear" x1="36.6656" y1="8.00684" x2="36.6656" y2="72.0001" gradientUnits="userSpaceOnUse">
<stop stop-color="#F9B335"/>
<stop offset="1" stop-color="#F69914"/>
</linearGradient>
<linearGradient id="paint1_linear" x1="36.6656" y1="8.00684" x2="36.6656" y2="72.0001" gradientUnits="userSpaceOnUse">
<stop stop-color="#F9B335"/>
<stop offset="1" stop-color="#F69914"/>
</linearGradient>
<linearGradient id="paint2_linear" x1="36.6656" y1="8.00684" x2="36.6656" y2="72.0001" gradientUnits="userSpaceOnUse">
<stop stop-color="#F9B335"/>
<stop offset="1" stop-color="#F69914"/>
</linearGradient>
</defs>
</svg>
