<svg width="80" height="80" viewBox="0 0 80 80" fill="none" xmlns="http://www.w3.org/2000/svg">
<g clip-path="url(#clip0)">
<g opacity="0.8">
<path d="M14.5607 51.8684H1.32227V78.3452H14.5607V51.8684Z" fill="url(#paint0_linear)"/>
<path d="M42.3625 38.6299H41.0387C41.7698 38.6299 42.3625 38.0378 42.3625 37.306V32.0107C42.3625 31.2796 41.7698 30.6868 41.0387 30.6868H22.5049C21.7738 30.6868 21.181 31.2796 21.181 32.0107V37.306C21.181 38.0378 21.7738 38.6299 22.5049 38.6299H23.8287C23.0976 38.6299 22.5049 39.2226 22.5049 39.9537V45.2491C22.5049 45.9808 23.0976 46.573 23.8287 46.573H42.3625C43.0936 46.573 43.6864 45.9808 43.6864 45.2491V39.9537C43.6864 39.2226 43.0936 38.6299 42.3625 38.6299Z" fill="url(#paint1_linear)"/>
<path d="M71.4865 21.42V16.1246C71.4865 15.3935 70.8937 14.8008 70.1626 14.8008H51.6288C50.8977 14.8008 50.305 15.3935 50.305 16.1246V21.42C50.305 22.1517 50.8977 22.7438 51.6288 22.7438H48.9811C48.2501 22.7438 47.6573 23.3366 47.6573 24.0677V29.3631C47.6573 30.0948 48.2501 30.6869 48.9811 30.6869H51.6288C50.8977 30.6869 50.305 31.2797 50.305 32.0107V37.3061C50.305 38.0379 50.8977 38.63 51.6288 38.63H50.305C49.5739 38.63 48.9811 39.2227 48.9811 39.9538V45.2492C48.9811 45.9809 49.5739 46.573 50.305 46.573H68.8388C69.5699 46.573 70.1626 45.9809 70.1626 45.2492V39.9538C70.1626 39.2227 69.5699 38.63 68.8388 38.63H70.1626C70.8937 38.63 71.4865 38.0379 71.4865 37.3061V32.0107C71.4865 31.2797 70.8937 30.6869 70.1626 30.6869H67.515C68.246 30.6869 68.8388 30.0948 68.8388 29.3631V24.0677C68.8388 23.3366 68.246 22.7438 67.515 22.7438H70.1626C70.8937 22.7438 71.4865 22.1517 71.4865 21.42Z" fill="url(#paint2_linear)"/>
</g>
<path d="M23.8292 17.4479H21.1815C20.4504 17.4479 19.8577 16.8558 19.8577 16.124H17.21C17.21 18.3179 18.9883 20.0956 21.1815 20.0956V21.4194H23.8292V20.0956C26.0225 20.0956 27.8007 18.3179 27.8007 16.124C27.8007 13.9308 26.0225 12.1525 23.8292 12.1525H21.1815C20.4504 12.1525 19.8577 11.5604 19.8577 10.8287C19.8577 10.0976 20.4504 9.50482 21.1815 9.50482H23.8292C24.5603 9.50482 25.153 10.0976 25.153 10.8287H27.8007C27.8007 8.6354 26.0225 6.85713 23.8292 6.85713V5.53329H21.1815V6.85713C18.9883 6.85713 17.21 8.6354 17.21 10.8287C17.21 13.0226 18.9883 14.8002 21.1815 14.8002H23.8292C24.5603 14.8002 25.153 15.3929 25.153 16.124C25.153 16.8558 24.5603 17.4479 23.8292 17.4479Z" fill="#28347C"/>
<path d="M22.5047 26.7147C29.8162 26.7147 35.7431 20.7877 35.7431 13.4762C35.7431 6.16535 29.8162 0.237793 22.5047 0.237793C15.1932 0.237793 9.26626 6.16535 9.26626 13.4762C9.27402 20.7845 15.1964 26.7069 22.5047 26.7147ZM22.5047 2.88548C28.354 2.88548 33.0955 7.62753 33.0955 13.4762C33.0955 19.3256 28.354 24.067 22.5047 24.067C16.6554 24.067 11.914 19.3256 11.914 13.4762C11.9204 7.63011 16.6586 2.89259 22.5047 2.88548Z" fill="#28347C"/>
<path d="M79.3866 55.5866C78.6471 53.9958 77.3045 52.7644 75.6555 52.1645C74.0066 51.5646 72.1869 51.6461 70.5981 52.3895L53.445 60.3752C54.5827 58.3248 54.5503 55.8264 53.3616 53.8057C52.1722 51.7851 50.0029 50.5446 47.6583 50.544H27.8007C24.2215 50.5414 20.9624 52.6041 19.433 55.8393H15.8861V51.8678C15.8861 51.1367 15.2934 50.544 14.5623 50.544H1.32384C0.592756 50.544 0 51.1367 0 51.8678V78.3446C0 79.0764 0.592756 79.6685 1.32384 79.6685H14.5623C15.2934 79.6685 15.8861 79.0764 15.8861 78.3446V75.697H50.4566C51.423 75.6963 52.3771 75.4849 53.253 75.0777L76.1927 64.3848C79.492 62.8263 80.9173 58.8994 79.3866 55.5866ZM13.2384 77.0208H2.64769V53.1916H13.2384V77.0208ZM75.0725 61.9873L52.1341 72.6789C51.6085 72.9219 51.0365 73.0486 50.4566 73.0493H15.8861V58.487H20.3211C20.8841 58.487 21.3857 58.1302 21.5706 57.5976C22.5002 54.9544 24.9985 53.1871 27.8007 53.1916H47.6583C49.8516 53.1916 51.6299 54.9699 51.6299 57.1632C51.6299 59.3571 49.8516 61.1347 47.6583 61.1347H35.7438V63.7824H50.935C51.8994 63.7817 52.8522 63.5704 53.7268 63.1631L71.7189 54.787C73.6989 53.8607 76.0544 54.7139 76.9813 56.6932C77.225 57.2226 77.3517 57.7986 77.3524 58.3816C77.3511 59.9227 76.4642 61.326 75.0725 61.9873Z" fill="#28347C"/>
<path d="M19.8573 32.0104V37.3058C19.8605 38.2618 20.3802 39.1416 21.2166 39.6044C21.1966 39.7195 21.185 39.8365 21.1811 39.9535V45.2489C21.1811 46.7117 22.3666 47.8965 23.8288 47.8965H42.3626C43.8248 47.8965 45.0103 46.7117 45.0103 45.2489V39.9535C45.007 38.9981 44.4873 38.1183 43.6509 37.6555C43.6709 37.5398 43.6826 37.4234 43.6864 37.3058V32.0104C43.6864 30.5482 42.5009 29.3627 41.0387 29.3627H22.5049C21.0428 29.3627 19.8573 30.5482 19.8573 32.0104ZM42.3626 45.2489H23.8288V39.9535H26.4765V42.6012H29.1242V39.9535H31.7718V42.6012H34.4195V39.9535H37.0672V42.6012H39.7149V39.9535H42.3626V45.2489ZM41.0387 37.3058H22.5049V32.0104H25.1526V34.6581H27.8003V32.0104H30.448V34.6581H33.0957V32.0104H35.7434V34.6581H38.3911V32.0104H41.0387V37.3058Z" fill="#28347C"/>
<path d="M48.9818 32.0097V37.3051C48.9857 37.4227 48.9974 37.5391 49.0174 37.6548C48.1809 38.1176 47.6612 38.9974 47.658 39.9528V45.2482C47.658 46.711 48.8435 47.8959 50.3057 47.8959H68.8395C70.3017 47.8959 71.4872 46.711 71.4872 45.2482V39.9528C71.4833 39.8358 71.4717 39.7188 71.4516 39.6037C72.2881 39.1409 72.8078 38.2611 72.811 37.3051V32.0097C72.811 30.5476 71.6255 29.362 70.1633 29.362V24.0667C71.6255 24.0667 72.811 22.8818 72.811 21.419V16.1236C72.811 14.6614 71.6255 13.4759 70.1633 13.4759H51.6295C50.1674 13.4759 48.9818 14.6614 48.9818 16.1236V21.419C47.5197 21.419 46.3342 22.6045 46.3342 24.0667V29.362C46.3342 30.8249 47.5197 32.0097 48.9818 32.0097ZM56.9249 34.6574V32.0097H59.5726V34.6574H62.2203V32.0097H64.868V34.6574H67.5156V32.0097H70.1633V37.3051H51.6295V32.0097H54.2772V34.6574H56.9249ZM68.8395 45.2482H50.3057V39.9528H52.9534V42.6005H55.6011V39.9528H58.2487V42.6005H60.8964V39.9528H63.5441V42.6005H66.1918V39.9528H68.8395V45.2482ZM51.6295 16.1236H54.2772V18.7713H56.9249V16.1236H59.5726V18.7713H62.2203V16.1236H64.868V18.7713H67.5156V16.1236H70.1633V21.419H51.6295V16.1236ZM48.9818 24.0667H51.6295V26.7144H54.2772V24.0667H56.9249V26.7144H59.5726V24.0667H62.2203V26.7144H64.868V24.0667H67.5156V29.362H48.9818V24.0667Z" fill="#28347C"/>
</g>
<defs>
<linearGradient id="paint0_linear" x1="36.4044" y1="14.8008" x2="36.4044" y2="78.3452" gradientUnits="userSpaceOnUse">
<stop stop-color="#F9B335"/>
<stop offset="1" stop-color="#F69914"/>
</linearGradient>
<linearGradient id="paint1_linear" x1="36.4044" y1="14.8008" x2="36.4044" y2="78.3452" gradientUnits="userSpaceOnUse">
<stop stop-color="#F9B335"/>
<stop offset="1" stop-color="#F69914"/>
</linearGradient>
<linearGradient id="paint2_linear" x1="36.4044" y1="14.8008" x2="36.4044" y2="78.3452" gradientUnits="userSpaceOnUse">
<stop stop-color="#F9B335"/>
<stop offset="1" stop-color="#F69914"/>
</linearGradient>
<clipPath id="clip0">
<rect width="80" height="80" fill="white"/>
</clipPath>
</defs>
</svg>
