<svg width="80" height="80" viewBox="0 0 80 80" fill="none" xmlns="http://www.w3.org/2000/svg">
<path opacity="0.8" d="M29.4995 31.5C31.8995 25.5 39.1661 25.3333 42.4995 26L36.499 33.5L37.499 39.5L44.499 40L50.999 33.5L51.499 34.5C53.099 44.5 46.166 48.3333 42.4995 49V60C39.2998 62.8 33.8329 60.5 31.4995 59V46C29.8328 43.6667 27.0995 37.5 29.4995 31.5Z" fill="#FF9B00"/>
<path d="M77 49.3335C78.6569 49.3335 80 47.9903 80 46.3335V33.6665C80 32.0097 78.6569 30.6665 77 30.6665H72.7502C72.3056 30.6665 71.916 30.3726 71.7819 29.9488C71.2032 28.1196 70.4657 26.3446 69.578 24.6438C69.372 24.2491 69.4393 23.7647 69.7542 23.4499L72.7627 20.4411C73.9342 19.2695 73.9341 17.3701 72.7626 16.1986L63.8055 7.24112C62.6339 6.06947 60.7343 6.0695 59.5627 7.24117L56.5546 10.2495C56.2397 10.5645 55.7552 10.6318 55.3605 10.4256C53.6583 9.53654 51.8821 8.79747 50.0513 8.21811C49.6274 8.084 49.3335 7.69435 49.3335 7.24982V3C49.3335 1.34315 47.9903 0 46.3335 0H33.6665C32.0097 0 30.6665 1.34315 30.6665 3V7.24984C30.6665 7.69436 30.3726 8.08402 29.9488 8.21809C28.1196 8.79676 26.3447 9.5343 24.6439 10.4219C24.2491 10.628 23.7647 10.5606 23.4499 10.2457L20.4411 7.23643C19.2696 6.06469 17.37 6.06461 16.1983 7.23625L7.24113 16.1934C6.06949 17.3651 6.06957 19.2647 7.24132 20.4363L10.2494 23.4438C10.5644 23.7588 10.6317 24.2434 10.4254 24.6382C9.53587 26.3411 8.79732 28.1177 8.21808 29.9487C8.08401 30.3726 7.69435 30.6665 7.24982 30.6665H3C1.34315 30.6665 0 32.0097 0 33.6665V46.3335C0 47.9903 1.34315 49.3335 3 49.3335H7.24984C7.69436 49.3335 8.08402 49.6274 8.21809 50.0512C8.79676 51.8804 9.53429 53.6553 10.4219 55.3561C10.628 55.7508 10.5606 56.2353 10.2457 56.5501L7.23662 59.5584C6.06479 60.7299 6.06466 62.6296 7.23634 63.8013L16.1935 72.7585C17.3651 73.9301 19.2647 73.93 20.4363 72.7584L23.444 69.7504C23.7589 69.4355 24.2433 69.3681 24.638 69.5742C26.3411 70.4633 28.1179 71.2019 29.9491 71.7818C30.3727 71.9159 30.6665 72.3055 30.6665 72.7499V77C30.6665 78.6569 32.0097 80 33.6665 80H46.3335C47.9903 80 49.3335 78.6569 49.3335 77V72.7502C49.3335 72.3056 49.6274 71.916 50.0512 71.7819C51.8804 71.2032 53.6554 70.4657 55.3562 69.578C55.7509 69.372 56.2353 69.4394 56.5501 69.7542L59.5584 72.7625C60.73 73.9341 62.6294 73.9341 63.801 72.7626L72.7586 63.8053C73.9302 62.6338 73.9302 60.7343 72.7587 59.5627L69.7504 56.5542C69.4355 56.2393 69.3683 55.7547 69.5744 55.36C70.4634 53.6579 71.2019 51.8812 71.7817 50.0508C71.9159 49.6272 72.3055 49.3335 72.7498 49.3335H77ZM69.6963 47.6655C68.9795 50.4385 67.875 53.0952 66.415 55.5586C66.1013 56.0824 66.1841 56.7524 66.6159 57.1841L70.4052 60.9731C70.7957 61.3636 70.7958 61.9968 70.4053 62.3873L62.3873 70.407C61.9968 70.7976 61.3635 70.7976 60.973 70.4071L57.184 66.6181C56.7523 66.1864 56.0824 66.1035 55.5586 66.417C53.0957 67.8784 50.4385 68.9834 47.6655 69.6982C47.0778 69.8494 46.667 70.3793 46.667 70.9861V76.3335C46.667 76.8858 46.2193 77.3335 45.667 77.3335H34.333C33.7807 77.3335 33.333 76.8858 33.333 76.3335V70.9866C33.333 70.3792 32.9224 69.8487 32.3345 69.6963C29.5615 68.98 26.9043 67.8755 24.4414 66.415C23.9176 66.1013 23.2476 66.1842 22.816 66.616L19.0269 70.4068C18.6364 70.7975 18.0031 70.7976 17.6126 70.407L9.59281 62.3868C9.2023 61.9963 9.20231 61.3631 9.59283 60.9726L13.3822 57.1832C13.8137 56.7518 13.8964 56.0821 13.583 55.5586C12.1221 53.0952 11.0176 50.4375 10.3018 47.6655C10.1506 47.0773 9.62031 46.666 9.01294 46.666H3.6665C3.11422 46.666 2.6665 46.2183 2.6665 45.666V34.333C2.6665 33.7807 3.11422 33.333 3.6665 33.333H9.0134C9.62077 33.333 10.1513 32.9224 10.3037 32.3345C11.02 29.5615 12.1245 26.9043 13.585 24.4414C13.8987 23.9176 13.8158 23.2476 13.384 22.816L9.59318 19.0269C9.2025 18.6364 9.20243 18.0031 9.59301 17.6126L17.6127 9.59285C18.0032 9.20233 18.6364 9.20232 19.0269 9.59285L22.816 13.3819C23.2477 13.8136 23.9176 13.8965 24.4414 13.583C26.9043 12.1216 29.5615 11.0166 32.3345 10.3018C32.9222 10.1506 33.333 9.62073 33.333 9.01388V3.6665C33.333 3.11422 33.7807 2.6665 34.333 2.6665H45.667C46.2193 2.6665 46.667 3.11422 46.667 3.6665V9.0134C46.667 9.62077 47.0776 10.1513 47.6655 10.3037C50.4385 11.02 53.0957 12.1245 55.5586 13.585C56.0824 13.8987 56.7524 13.8158 57.184 13.384L60.9731 9.59318C61.3636 9.2025 61.9969 9.20243 62.3874 9.59301L70.4072 17.6127C70.7977 18.0032 70.7977 18.6364 70.4072 19.0269L66.6181 22.816C66.1864 23.2477 66.1035 23.9176 66.417 24.4414C67.8784 26.9043 68.9834 29.5615 69.6982 32.3345C69.8506 32.9224 70.3812 33.333 70.9886 33.333H76.3335C76.8858 33.333 77.3335 33.7807 77.3335 34.333V45.667C77.3335 46.2193 76.8858 46.667 76.3335 46.667H70.9866C70.3792 46.667 69.8487 47.0776 69.6963 47.6655Z" fill="#28347C"/>
<path d="M40.0003 17.3338C27.4886 17.327 17.3402 27.4652 17.3338 39.9764C17.3294 48.8861 22.5467 56.9705 30.6668 60.6361V60.6668L31.492 61.0067H31.5003L33.3333 61.7493V61.6585C35.4925 62.3284 37.7401 62.6683 40.0003 62.6668C40.4505 62.6668 40.8939 62.6522 41.3338 62.6268V62.6839L42.828 62.4959L44.0003 62.3543V62.2947C56.3187 60.0931 64.5199 48.3231 62.3187 36.0052C60.3866 25.1956 50.9813 17.327 40.0003 17.3338ZM33.3333 58.8577V45.6697L32.8885 45.2694C28.5008 41.345 28.1258 34.6068 32.0506 30.2196C34.0736 27.9573 36.9657 26.6654 40.0003 26.6673C40.3914 26.6673 40.7826 26.6878 41.1722 26.7293L35.6792 32.2262C35.234 32.6717 35.0247 33.3008 35.1142 33.9242L35.9437 39.7002C36.0699 40.5791 36.7604 41.2696 37.6393 41.3957L43.4149 42.2244C44.0385 42.3139 44.6678 42.1043 45.1133 41.6588L50.6048 36.1668C50.6458 36.554 50.6668 36.9437 50.6668 37.3338C50.6429 42.304 47.2118 46.6077 42.3724 47.7401L41.3338 47.9749V59.9588C38.6204 60.1331 35.8993 59.7586 33.3333 58.8577ZM44.0003 59.6043V50.0589C49.5365 48.2821 53.3021 43.1473 53.3333 37.3338C53.3392 35.8846 53.1029 34.4446 52.6351 33.0736C52.3145 32.1416 51.1284 31.8677 50.4317 32.5647L43.4671 39.5321L38.515 38.8231L37.8021 33.867L44.7698 26.8981C45.4666 26.2012 45.1922 25.0152 44.2601 24.6951C42.8885 24.2288 41.4486 23.994 40.0003 24.0003C32.64 23.9969 26.6707 29.9608 26.6673 37.3206C26.6654 40.9041 28.1068 44.3372 30.6668 46.8455V57.6898C20.9046 52.5325 17.1707 40.4393 22.327 30.6766C27.4832 20.9139 39.578 17.1805 49.3402 22.3367C59.1024 27.493 62.8368 39.5872 57.68 49.3499C54.8841 54.6419 49.8646 58.4036 44.0003 59.6004V59.6043Z" fill="#28347C"/>
</svg>
