<svg width="80" height="80" viewBox="0 0 80 80" fill="none" xmlns="http://www.w3.org/2000/svg">
<g opacity="0.8">
<path d="M65 52.5L63.75 43.75C66.4022 43.75 68.9457 44.8036 70.8211 46.6789C72.6964 48.5543 73.75 51.0978 73.75 53.75V63.75H57.5V51.25L65 52.5Z" fill="url(#paint0_linear)"/>
<path d="M50 52.5L57.5 51.25V63.75H41.25V53.75C41.25 51.0978 42.3036 48.5543 44.1789 46.6789C46.0543 44.8036 48.5978 43.75 51.25 43.75L50 52.5Z" fill="url(#paint1_linear)"/>
<path d="M76.25 63.75V68.75H3.75V63.75H41.25H57.5H73.75H76.25Z" fill="url(#paint2_linear)"/>
<path d="M36.25 35V52.5C36.248 53.1624 35.984 53.7972 35.5156 54.2656C35.0472 54.734 34.4124 54.998 33.75 55H23.75V45H16.25V55H6.25C5.58757 54.998 4.95283 54.734 4.48442 54.2656C4.01601 53.7972 3.75198 53.1624 3.75 52.5V35C3.75198 34.3376 4.01601 33.7028 4.48442 33.2344C4.95283 32.766 5.58757 32.502 6.25 32.5H33.75C34.4124 32.502 35.0472 32.766 35.5156 33.2344C35.984 33.7028 36.248 34.3376 36.25 35Z" fill="url(#paint3_linear)"/>
<path d="M66.25 23.75C66.9115 23.7549 67.5446 24.0199 68.0123 24.4877C68.4801 24.9554 68.7451 25.5885 68.75 26.25C68.748 26.9124 68.484 27.5472 68.0156 28.0156C67.5472 28.484 66.9124 28.748 66.25 28.75H48.75C48.0885 28.7451 47.4554 28.4801 46.9877 28.0123C46.5199 27.5446 46.2549 26.9115 46.25 26.25C46.252 25.5876 46.516 24.9528 46.9844 24.4844C47.4528 24.016 48.0876 23.752 48.75 23.75H66.25Z" fill="url(#paint4_linear)"/>
<path d="M66.25 23.75L60 23.7497V16.3622C61.5384 16.6075 62.9577 17.339 64.05 18.4497C64.7498 19.1432 65.3046 19.9689 65.6823 20.8788C66.06 21.7887 66.253 22.7648 66.25 23.75Z" fill="url(#paint5_linear)"/>
<path d="M60 16.3622V23.7497L55 23.75V15C55 14.6685 55.1317 14.3505 55.3661 14.1161C55.6005 13.8817 55.9185 13.75 56.25 13.75H58.75C59.0815 13.75 59.3995 13.8817 59.6339 14.1161C59.8683 14.3505 60 14.6685 60 15V16.3622Z" fill="url(#paint6_linear)"/>
<path d="M55 16.3622L55 23.75H48.75C48.7493 21.9782 49.3769 20.2633 50.5213 18.9107C51.6656 17.5581 53.2526 16.6551 55 16.3622Z" fill="url(#paint7_linear)"/>
</g>
<path d="M66.2502 33.75V30C67.1403 30.0032 68.0023 29.6887 68.6813 29.1131C69.3603 28.5375 69.8116 27.7385 69.9541 26.8599C70.0966 25.9813 69.921 25.0806 69.4588 24.3199C68.9966 23.5592 68.2782 22.9883 67.4327 22.71C67.2107 20.7631 66.3309 18.9503 64.9389 17.5712C63.917 16.5379 62.6469 15.7842 61.2502 15.3825V15C61.2502 14.337 60.9868 13.7011 60.5179 13.2322C60.0491 12.7634 59.4132 12.5 58.7502 12.5H56.2502C55.5871 12.5 54.9512 12.7634 54.4824 13.2322C54.0136 13.7011 53.7502 14.337 53.7502 15V15.375C52.1135 15.8549 50.6544 16.8062 49.5551 18.1102C48.4558 19.4143 47.765 21.0132 47.5689 22.7075C46.7232 22.9858 46.0046 23.5567 45.5422 24.3176C45.0798 25.0784 44.904 25.9792 45.0463 26.858C45.1887 27.7369 45.6399 28.5361 46.3188 29.1121C46.9977 29.688 47.8599 30.0028 48.7502 30V33.75C48.7502 36.0706 49.672 38.2962 51.313 39.9372C52.9539 41.5781 55.1795 42.5 57.5002 42.5C59.8208 42.5 62.0464 41.5781 63.6874 39.9372C65.3283 38.2962 66.2502 36.0706 66.2502 33.75ZM63.1702 19.3375C64.041 20.1982 64.6347 21.2995 64.8752 22.5H61.2502V18.0375C61.9678 18.3433 62.6198 18.7847 63.1702 19.3375ZM56.2502 15H58.7502V22.5H56.2502V15ZM53.7502 18.04V22.5H50.1252C50.3237 21.5189 50.7573 20.6006 51.3887 19.8238C52.02 19.047 52.8304 18.4349 53.7502 18.04ZM47.5002 26.25C47.5002 25.9185 47.6319 25.6005 47.8663 25.3661C48.1007 25.1317 48.4187 25 48.7502 25H66.2502C66.5817 25 66.8996 25.1317 67.1341 25.3661C67.3685 25.6005 67.5002 25.9185 67.5002 26.25C67.5002 26.5815 67.3685 26.8995 67.1341 27.1339C66.8996 27.3683 66.5817 27.5 66.2502 27.5H48.7502C48.4187 27.5 48.1007 27.3683 47.8663 27.1339C47.6319 26.8995 47.5002 26.5815 47.5002 26.25ZM57.5002 40C55.8432 39.998 54.2546 39.3389 53.0829 38.1672C51.9113 36.9956 51.2522 35.407 51.2502 33.75V30H63.7502V33.75C63.7482 35.407 63.0891 36.9956 61.9174 38.1672C60.7457 39.3389 59.1572 39.998 57.5002 40Z" fill="#28347C"/>
<path d="M76.25 62.5H75V53.75C74.9967 50.7673 73.8104 47.9078 71.7013 45.7987C69.5922 43.6896 66.7327 42.5033 63.75 42.5H51.25C48.2673 42.5033 45.4078 43.6896 43.2987 45.7987C41.1896 47.9078 40.0033 50.7673 40 53.75V62.5H30V60C30 59.6685 29.8683 59.3505 29.6339 59.1161C29.3995 58.8817 29.0815 58.75 28.75 58.75H25V56.25H33.75C34.7446 56.25 35.6984 55.8549 36.4016 55.1516C37.1049 54.4484 37.5 53.4946 37.5 52.5V35C37.5 34.0054 37.1049 33.0516 36.4016 32.3483C35.6984 31.6451 34.7446 31.25 33.75 31.25H6.25C5.25544 31.25 4.30161 31.6451 3.59835 32.3483C2.89509 33.0516 2.5 34.0054 2.5 35V52.5C2.5 53.4946 2.89509 54.4484 3.59835 55.1516C4.30161 55.8549 5.25544 56.25 6.25 56.25H15V58.75H11.25C10.9185 58.75 10.6005 58.8817 10.3661 59.1161C10.1317 59.3505 10 59.6685 10 60V62.5H3.75C3.41848 62.5 3.10054 62.6317 2.86612 62.8661C2.6317 63.1005 2.5 63.4185 2.5 63.75V68.75C2.5 69.0815 2.6317 69.3995 2.86612 69.6339C3.10054 69.8683 3.41848 70 3.75 70H6.25V76.25C6.25 76.5815 6.3817 76.8995 6.61612 77.1339C6.85054 77.3683 7.16848 77.5 7.5 77.5H72.5C72.8315 77.5 73.1495 77.3683 73.3839 77.1339C73.6183 76.8995 73.75 76.5815 73.75 76.25V70H76.25C76.5815 70 76.8995 69.8683 77.1339 69.6339C77.3683 69.3995 77.5 69.0815 77.5 68.75V63.75C77.5 63.4185 77.3683 63.1005 77.1339 62.8661C76.8995 62.6317 76.5815 62.5 76.25 62.5ZM72.5 53.75V62.5H68.75V53.75H66.25V62.5H58.75V52.725L64.795 53.7325C64.9888 53.7647 65.1875 53.7508 65.375 53.6919C65.5624 53.633 65.7333 53.5307 65.8738 53.3933C66.0144 53.256 66.1205 53.0875 66.1837 52.9014C66.2469 52.7153 66.2653 52.517 66.2375 52.3225L65.21 45.1325C67.2463 45.4784 69.0948 46.5329 70.4288 48.1099C71.7628 49.6868 72.4964 51.6845 72.5 53.75ZM63.52 50.9863L59.8562 50.375L62.91 46.7088L63.52 50.9863ZM61.08 45L57.5 49.2962L53.92 45H61.08ZM52.09 46.71L55.1438 50.375L51.48 50.985L52.09 46.71ZM42.5 53.75C42.5038 51.6846 43.2375 49.687 44.5715 48.1101C45.9054 46.5332 47.7538 45.4786 49.79 45.1325L48.7625 52.3225C48.7347 52.517 48.7531 52.7153 48.8163 52.9014C48.8795 53.0875 48.9856 53.256 49.1262 53.3933C49.2667 53.5307 49.4376 53.633 49.625 53.6919C49.8125 53.7508 50.0112 53.7647 50.205 53.7325L56.25 52.725V62.5H48.75V53.75H46.25V62.5H42.5V53.75ZM6.25 53.75C5.91848 53.75 5.60054 53.6183 5.36612 53.3839C5.1317 53.1495 5 52.8315 5 52.5V35C5 34.6685 5.1317 34.3505 5.36612 34.1161C5.60054 33.8817 5.91848 33.75 6.25 33.75H33.75C34.0815 33.75 34.3995 33.8817 34.6339 34.1161C34.8683 34.3505 35 34.6685 35 35V52.5C35 52.8315 34.8683 53.1495 34.6339 53.3839C34.3995 53.6183 34.0815 53.75 33.75 53.75H25V45C25 44.6685 24.8683 44.3505 24.6339 44.1161C24.3995 43.8817 24.0815 43.75 23.75 43.75H16.25C15.9185 43.75 15.6005 43.8817 15.3661 44.1161C15.1317 44.3505 15 44.6685 15 45V53.75H6.25ZM17.5 46.25H22.5V58.75H17.5V46.25ZM12.5 61.25H27.5V62.5H12.5V61.25ZM71.25 75H8.75V70H71.25V75ZM75 67.5H5V65H75V67.5Z" fill="#28347C"/>
<defs>
<linearGradient id="paint0_linear" x1="40" y1="13.75" x2="40" y2="68.75" gradientUnits="userSpaceOnUse">
<stop stop-color="#F9B335"/>
<stop offset="1" stop-color="#F69914"/>
</linearGradient>
<linearGradient id="paint1_linear" x1="40" y1="13.75" x2="40" y2="68.75" gradientUnits="userSpaceOnUse">
<stop stop-color="#F9B335"/>
<stop offset="1" stop-color="#F69914"/>
</linearGradient>
<linearGradient id="paint2_linear" x1="40" y1="13.75" x2="40" y2="68.75" gradientUnits="userSpaceOnUse">
<stop stop-color="#F9B335"/>
<stop offset="1" stop-color="#F69914"/>
</linearGradient>
<linearGradient id="paint3_linear" x1="40" y1="13.75" x2="40" y2="68.75" gradientUnits="userSpaceOnUse">
<stop stop-color="#F9B335"/>
<stop offset="1" stop-color="#F69914"/>
</linearGradient>
<linearGradient id="paint4_linear" x1="40" y1="13.75" x2="40" y2="68.75" gradientUnits="userSpaceOnUse">
<stop stop-color="#F9B335"/>
<stop offset="1" stop-color="#F69914"/>
</linearGradient>
<linearGradient id="paint5_linear" x1="40" y1="13.75" x2="40" y2="68.75" gradientUnits="userSpaceOnUse">
<stop stop-color="#F9B335"/>
<stop offset="1" stop-color="#F69914"/>
</linearGradient>
<linearGradient id="paint6_linear" x1="40" y1="13.75" x2="40" y2="68.75" gradientUnits="userSpaceOnUse">
<stop stop-color="#F9B335"/>
<stop offset="1" stop-color="#F69914"/>
</linearGradient>
<linearGradient id="paint7_linear" x1="40" y1="13.75" x2="40" y2="68.75" gradientUnits="userSpaceOnUse">
<stop stop-color="#F9B335"/>
<stop offset="1" stop-color="#F69914"/>
</linearGradient>
</defs>
</svg>
